<svg xmlns="http://www.w3.org/2000/svg" xmlns:xlink="http://www.w3.org/1999/xlink" width="220" height="139.99996948242188" viewBox="0 0 220 139.99996948242188" fill="none"><g opacity="0.9"><path d="M27.5783 139.94C25.4083 140.145 23.2072 139.82 21.3105 139.014C13.1624 134.843 15.0427 126.039 16.2963 117.698C17.8629 114.111 18.2919 110.306 17.5499 106.577C6.3409 95.8072 0.180394 82.6318 0 69.0434C0 31.0464 49.5157 0 109.687 0C169.858 0 220 31.0464 220 69.0434C220 107.04 170.484 138.087 109.687 138.087C93.7864 138.312 77.9951 136.103 63.3048 131.6C57.8454 132.446 52.5718 133.85 47.6353 135.77C41.3477 138.049 34.5511 139.462 27.5783 139.94ZM109.687 9.26757C56.4103 9.26757 12.5356 36.1435 12.5356 69.0434C12.5264 80.6507 17.8279 91.919 27.5783 101.017C31.9658 105.187 30.7123 112.138 28.8319 119.088C27.7228 122.894 27.5107 126.813 28.2051 130.673C33.4186 129.933 38.4768 128.687 43.2479 126.966C54.5299 123.722 62.0513 121.405 67.6923 123.259C81.1199 126.976 95.3487 128.86 109.687 128.819C163.59 128.819 207.464 102.407 207.464 69.0434C207.464 35.6801 163.59 9.26757 109.687 9.26757Z"  style="mix-blend-mode:normal" fill="#C2ECD6" ></path></g></svg>