<svg xmlns="http://www.w3.org/2000/svg" xmlns:xlink="http://www.w3.org/1999/xlink" width="170" height="170" viewBox="0 0 170 170" fill="none"><path d="M159.375 42.0325L85 10.1575L10.625 42.0325L10.625 132.908L85 164.571L91.4228 161.835L92.7828 161.835L92.7828 161.256L159.375 132.913L159.375 42.0325ZM85 69.1634L66.1513 61.1416L119.101 36.7041C119.223 36.6456 119.303 36.5394 119.42 36.4703L140.542 45.5228L85 69.1634ZM106.367 30.8762L52.9603 55.5262L29.4578 45.5175L85 21.7175L106.367 30.8762ZM21.25 53.5712L42.5 62.6184L42.5 95.625C42.5 97.034 43.0597 98.3852 44.056 99.3815C45.0523 100.378 46.4035 100.937 47.8125 100.937C49.2215 100.937 50.5727 100.378 51.569 99.3815C52.5653 98.3852 53.125 97.034 53.125 95.625L53.125 67.15L53.1356 67.1447L82.1578 79.5016L82.1578 151.815L21.25 125.885L21.25 53.5712ZM92.7828 149.712L92.7828 77.3978L148.75 53.5712L148.75 125.89L92.7828 149.712Z"  style="mix-blend-mode:normal" fill="#7CCBED" ></path></svg>