<svg xmlns="http://www.w3.org/2000/svg" xmlns:xlink="http://www.w3.org/1999/xlink" width="240" height="72" viewBox="0 0 240 72" fill="none"><g ><path    style="mix-blend-mode:normal" fill="#C2ECD6"  d="M34.82 17.06C34.82 15.764 33.956 14.9 32.66 14.9L10.1 14.9C8.804 14.9 7.94 15.764 7.94 17.06C7.94 18.356 8.804 19.22 10.1 19.22L32.66 19.22C33.956 19.22 34.82 18.356 34.82 17.06ZM23.78 24.02C23.78 22.58 22.82 21.62 21.38 21.62C19.94 21.62 18.98 22.58 18.98 24.02L18.98 48.5C18.98 49.94 19.94 50.9 21.38 50.9C22.82 50.9 23.78 49.94 23.78 48.5L23.78 24.02ZM44.66 48.5L44.66 17.3C44.66 15.86 43.7 14.9 42.26 14.9C40.82 14.9 39.86 15.86 39.86 17.3L39.86 48.5C39.86 49.94 40.82 50.9 42.26 50.9C43.7 50.9 44.66 49.94 44.66 48.5ZM54.26 50.9C55.7 50.9 56.66 49.94 56.66 48.5L56.66 21.86L71.06 49.796C71.396 50.468 71.972 51.428 72.836 51.428C73.7 51.428 74.276 50.468 74.612 49.796L89.012 21.86L89.012 48.5C89.012 49.94 89.972 50.9 91.412 50.9C92.852 50.9 93.812 49.94 93.812 48.5L93.812 17.492C93.812 15.476 92.18 14.42 90.308 14.42C89.252 14.42 87.86 14.804 87.332 15.812L72.836 43.796L58.34 15.812C57.812 14.804 56.42 14.42 55.364 14.42C53.492 14.42 51.86 15.476 51.86 17.492L51.86 48.5C51.86 49.94 52.82 50.9 54.26 50.9ZM105.812 48.5L105.812 17.3C105.812 15.86 104.852 14.9 103.412 14.9C101.972 14.9 101.012 15.86 101.012 17.3L101.012 48.5C101.012 49.94 101.972 50.9 103.412 50.9C104.852 50.9 105.812 49.94 105.812 48.5ZM142.175 18.692C148.031 18.692 152.447 21.956 153.647 26.708C153.983 28.244 154.991 29.3 156.575 29.3L156.671 29.3C158.255 29.3 159.359 28.244 159.071 26.708C157.727 19.508 150.719 14.372 141.695 14.372C131.087 14.372 123.695 21.62 123.695 32.9C123.695 44.18 131.087 51.428 141.695 51.428C150.719 51.428 157.727 46.292 159.071 39.092C159.359 37.556 158.255 36.5 156.671 36.5L156.575 36.5C154.991 36.5 153.983 37.556 153.647 39.092C152.447 43.844 148.031 47.108 142.175 47.108C133.727 47.108 128.639 41.348 128.639 32.9C128.639 24.452 133.727 18.692 142.175 18.692ZM142.463 37.076C145.007 37.076 146.687 35.396 146.687 32.804C146.687 30.26 145.007 28.58 142.463 28.58C139.871 28.58 138.191 30.26 138.191 32.804C138.191 35.396 139.871 37.076 142.463 37.076ZM165.695 50.9L166.559 50.9C167.615 50.9 168.575 50.228 169.007 49.22L180.287 20.66C180.767 19.412 181.631 18.788 182.495 18.788C183.359 18.788 184.223 19.412 184.703 20.66L195.983 49.22C196.415 50.228 197.375 50.9 198.431 50.9L199.343 50.9C200.927 50.9 201.551 49.94 200.975 48.452L188.687 19.172C187.391 16.052 184.943 14.468 182.495 14.468C180.047 14.468 177.599 16.052 176.303 19.172L164.015 48.452C163.439 49.94 164.063 50.9 165.695 50.9ZM178.223 36.164C178.223 38.756 179.903 40.436 182.495 40.436C185.039 40.436 186.719 38.756 186.719 36.164C186.719 33.62 185.039 31.94 182.495 31.94C179.903 31.94 178.223 33.62 178.223 36.164ZM231.599 17.06C231.599 15.764 230.735 14.9 229.439 14.9L206.879 14.9C205.583 14.9 204.719 15.764 204.719 17.06C204.719 18.356 205.583 19.22 206.879 19.22L229.439 19.22C230.735 19.22 231.599 18.356 231.599 17.06ZM220.559 24.02C220.559 22.58 219.599 21.62 218.159 21.62C216.719 21.62 215.759 22.58 215.759 24.02L215.759 48.5C215.759 49.94 216.719 50.9 218.159 50.9C219.599 50.9 220.559 49.94 220.559 48.5L220.559 24.02Z"></path><path fill-rule="evenodd"  fill="rgba(194, 236, 214, 1)" style="mix-blend-mode:normal" d="M129.639,32.9c0,4.01213 1.11033,7.20877 3.331,9.5899c2.25,2.41207 5.31833,3.6181 9.205,3.6181c5.77333,0 9.273,-2.41537 10.499,-7.2461c0.49533,-2.24127 1.79567,-3.3619 3.901,-3.3619h0.096c1.09067,0 1.965,0.34243 2.623,1.0273c0.71133,0.74047 0.96467,1.65653 0.76,2.7482c-0.72533,3.88553 -2.795,7.05133 -6.209,9.4974c-3.40067,2.43673 -7.45067,3.6551 -12.15,3.6551c-5.62533,0 -10.189,-1.7774 -13.691,-5.3322c-3.53933,-3.59327 -5.309,-8.3252 -5.309,-14.1958c0,-5.8706 1.76967,-10.60253 5.309,-14.1958c3.502,-3.5548 8.06567,-5.3322 13.691,-5.3322c4.69933,0 8.74933,1.21837 12.15,3.6551c3.414,2.44607 5.48367,5.6116 6.209,9.4966c0.20467,1.0922 -0.04867,2.00853 -0.76,2.749c-0.658,0.68487 -1.53233,1.0273 -2.623,1.0273h-0.096c-2.10533,0 -3.40567,-1.12063 -3.901,-3.3619c-1.226,-4.83073 -4.72567,-7.2461 -10.499,-7.2461c-3.88667,0 -6.955,1.20603 -9.205,3.6181c-2.22067,2.38113 -3.331,5.57777 -3.331,9.5899zM142.175,47.108c-8.448,0 -13.536,-5.76 -13.536,-14.208c0,-8.448 5.088,-14.208 13.536,-14.208c5.856,0 10.272,3.264 11.472,8.016c0.336,1.536 1.344,2.592 2.928,2.592h0.096c1.584,0 2.688,-1.056 2.4,-2.592c-1.344,-7.2 -8.352,-12.336 -17.376,-12.336c-10.608,0 -18,7.248 -18,18.528c0,11.28 7.392,18.528 18,18.528c9.024,0 16.032,-5.136 17.376,-12.336c0.288,-1.536 -0.816,-2.592 -2.4,-2.592h-0.096c-1.584,0 -2.592,1.056 -2.928,2.592c-1.2,4.752 -5.616,8.016 -11.472,8.016zM50.86,48.5v-31.008c0,-2.71467 1.50133,-4.072 4.504,-4.072c1.90127,0 3.18923,0.644 3.8639,1.932l13.6081,26.2699l13.6102,-26.2739c0.67327,-1.28533 1.96053,-1.928 3.8618,-1.928c3.00267,0 4.504,1.35733 4.504,4.072v31.008c0,2.26667 -1.13333,3.4 -3.4,3.4c-2.26667,0 -3.4,-1.13333 -3.4,-3.4v-22.5175l-12.5056,24.2607c-0.72827,1.45653 -1.6184,2.1848 -2.6704,2.1848c-1.05207,0 -1.94037,-0.7246 -2.6649,-2.1738l-12.5111,-24.2716v22.5174c0,0.99613 -0.31763,1.81183 -0.9529,2.4471c-0.63527,0.63527 -1.45097,0.9529 -2.4471,0.9529c-0.99613,0 -1.81183,-0.31763 -2.4471,-0.9529c-0.63527,-0.63527 -0.9529,-1.45097 -0.9529,-2.4471zM73.3991,42.709l-0.5631,1.087l-0.5631,-1.087l-13.9329,-26.897c-0.528,-1.008 -1.92,-1.392 -2.976,-1.392c-1.872,0 -3.504,1.056 -3.504,3.072v31.008c0,1.44 0.96,2.4 2.4,2.4c1.44,0 2.4,-0.96 2.4,-2.4v-26.64l1,1.94l13.4,25.996c0.336,0.672 0.912,1.632 1.776,1.632c0.864,0 1.44,-0.96 1.776,-1.632l13.4,-25.996l1,-1.94v26.64c0,1.44 0.96,2.4 2.4,2.4c1.44,0 2.4,-0.96 2.4,-2.4v-31.008c0,-2.016 -1.632,-3.072 -3.504,-3.072c-1.056,0 -2.448,0.384 -2.976,1.392zM163.082,48.091l0.005,-0.0131l12.292,-29.2895c1.47333,-3.54693 3.84533,-5.3204 7.116,-5.3204c3.27,0 5.64133,1.77233 7.114,5.317l12.293,29.2929l0.005,0.0131c0.41333,1.06713 0.37867,1.96547 -0.104,2.695c-0.492,0.74267 -1.312,1.114 -2.46,1.114h-0.912c-1.592,0 -2.71433,-0.76203 -3.367,-2.2861l-0.006,-0.0132l-11.289,-28.5817c-0.31533,-0.82067 -0.74,-1.231 -1.274,-1.231c-0.534,0 -0.96,0.4131 -1.278,1.2393l-11.285,28.5734l-0.006,0.0132c-0.65333,1.52407 -1.77567,2.2861 -3.367,2.2861h-0.864c-1.166,0 -1.99833,-0.36863 -2.497,-1.1059c-0.49267,-0.72893 -0.53133,-1.62997 -0.116,-2.7031zM10.1,20.22c-2.10667,0 -3.16,-1.05333 -3.16,-3.16c0,-2.10667 1.05333,-3.16 3.16,-3.16h22.56c2.10667,0 3.16,1.05333 3.16,3.16c0,2.10667 -1.05333,3.16 -3.16,3.16zM42.26,51.9c-2.26667,0 -3.4,-1.13333 -3.4,-3.4v-31.2c0,-2.26667 1.13333,-3.4 3.4,-3.4c2.26667,0 3.4,1.13333 3.4,3.4v31.2c0,0.99613 -0.31763,1.81183 -0.9529,2.4471c-0.63527,0.63527 -1.45097,0.9529 -2.4471,0.9529zM103.412,51.9c-2.26667,0 -3.4,-1.13333 -3.4,-3.4v-31.2c0,-0.99613 0.31767,-1.81183 0.953,-2.4471c0.63533,-0.63527 1.451,-0.9529 2.447,-0.9529c0.996,0 1.81167,0.31763 2.447,0.9529c0.63533,0.63527 0.953,1.45097 0.953,2.4471v31.2c0,0.99613 -0.31767,1.81183 -0.953,2.4471c-0.63533,0.63527 -1.451,0.9529 -2.447,0.9529zM206.879,20.22c-2.10667,0 -3.16,-1.05333 -3.16,-3.16c0,-0.92413 0.29567,-1.68183 0.887,-2.2731c0.59133,-0.59127 1.349,-0.8869 2.273,-0.8869h22.56c2.10667,0 3.16,1.05333 3.16,3.16c0,2.10667 -1.05333,3.16 -3.16,3.16zM169.007,49.22l11.28,-28.56c0.48,-1.248 1.344,-1.872 2.208,-1.872c0.864,0 1.728,0.624 2.208,1.872l11.28,28.56c0.432,1.008 1.392,1.68 2.448,1.68h0.912c1.584,0 2.208,-0.96 1.632,-2.448l-12.288,-29.28c-1.296,-3.12 -3.744,-4.704 -6.192,-4.704c-2.448,0 -4.896,1.584 -6.192,4.704l-12.288,29.28c-0.576,1.488 0.048,2.448 1.68,2.448h0.864c1.056,0 2.016,-0.672 2.448,-1.68zM10.1,14.9c-1.296,0 -2.16,0.864 -2.16,2.16c0,1.296 0.864,2.16 2.16,2.16h22.56c1.296,0 2.16,-0.864 2.16,-2.16c0,-1.296 -0.864,-2.16 -2.16,-2.16zM42.26,14.9c-1.44,0 -2.4,0.96 -2.4,2.4v31.2c0,1.44 0.96,2.4 2.4,2.4c1.44,0 2.4,-0.96 2.4,-2.4v-31.2c0,-1.44 -0.96,-2.4 -2.4,-2.4zM103.412,14.9c-1.44,0 -2.4,0.96 -2.4,2.4v31.2c0,1.44 0.96,2.4 2.4,2.4c1.44,0 2.4,-0.96 2.4,-2.4v-31.2c0,-1.44 -0.96,-2.4 -2.4,-2.4zM206.879,14.9c-1.296,0 -2.16,0.864 -2.16,2.16c0,1.296 0.864,2.16 2.16,2.16h22.56c1.296,0 2.16,-0.864 2.16,-2.16c0,-1.296 -0.864,-2.16 -2.16,-2.16zM21.38,51.9c-2.26667,0 -3.4,-1.13333 -3.4,-3.4v-24.48c0,-2.26667 1.13333,-3.4 3.4,-3.4c0.99613,0 1.81183,0.31763 2.4471,0.9529c0.63527,0.63527 0.9529,1.45097 0.9529,2.4471v24.48c0,2.26667 -1.13333,3.4 -3.4,3.4zM220.606,50.9471c-0.63533,0.63527 -1.451,0.9529 -2.447,0.9529c-2.26667,0 -3.4,-1.13333 -3.4,-3.4v-24.48c0,-0.99613 0.31767,-1.81183 0.953,-2.4471c0.63533,-0.63527 1.451,-0.9529 2.447,-0.9529c2.26667,0 3.4,1.13333 3.4,3.4v24.48c0,0.99613 -0.31767,1.81183 -0.953,2.4471zM18.98,24.02v24.48c0,1.44 0.96,2.4 2.4,2.4c1.44,0 2.4,-0.96 2.4,-2.4v-24.48c0,-1.44 -0.96,-2.4 -2.4,-2.4c-1.44,0 -2.4,0.96 -2.4,2.4zM215.759,24.02v24.48c0,1.44 0.96,2.4 2.4,2.4c1.44,0 2.4,-0.96 2.4,-2.4v-24.48c0,-1.44 -0.96,-2.4 -2.4,-2.4c-1.44,0 -2.4,0.96 -2.4,2.4zM142.463,27.58c3.48267,0 5.224,1.74133 5.224,5.224c0,3.51467 -1.74133,5.272 -5.224,5.272c-3.51467,0 -5.272,-1.75733 -5.272,-5.272c0,-3.48267 1.75733,-5.224 5.272,-5.224zM142.463,28.58c-2.592,0 -4.272,1.68 -4.272,4.224c0,2.592 1.68,4.272 4.272,4.272c2.544,0 4.224,-1.68 4.224,-4.272c0,-2.544 -1.68,-4.224 -4.224,-4.224zM182.495,30.94c3.48267,0 5.224,1.74133 5.224,5.224c0,3.51467 -1.74133,5.272 -5.224,5.272c-1.572,0 -2.84367,-0.48563 -3.815,-1.4569c-0.97133,-0.97127 -1.457,-2.24297 -1.457,-3.8151c0,-1.552 0.48667,-2.81067 1.46,-3.776c0.97267,-0.96533 2.24333,-1.448 3.812,-1.448zM186.719,36.164c0,-2.544 -1.68,-4.224 -4.224,-4.224c-2.592,0 -4.272,1.68 -4.272,4.224c0,2.592 1.68,4.272 4.272,4.272c2.544,0 4.224,-1.68 4.224,-4.272z"></path></g></svg>