<svg xmlns="http://www.w3.org/2000/svg" xmlns:xlink="http://www.w3.org/1999/xlink" width="72.440185546875" height="72.4400634765625" viewBox="0 0 72.440185546875 72.4400634765625" fill="none"><path d="M22.542 39.9209C23.4322 43.5952 25.7454 46.7654 28.973 48.7341C32.2005 50.7028 36.078 51.3088 39.7523 50.4186C43.4266 49.5285 46.5968 47.2152 48.5655 43.9876C50.5342 40.7601 51.1402 36.8827 50.25 33.2084C49.8093 31.389 49.0145 29.6743 47.9111 28.1621C46.8077 26.65 45.4172 25.3699 43.8191 24.3951C42.2209 23.4203 40.4465 22.7698 38.597 22.4808C36.7474 22.1918 34.8591 22.2699 33.0398 22.7106C31.2204 23.1514 29.5057 23.9461 27.9936 25.0496C26.4814 26.153 25.2013 27.5435 24.2265 29.1416C23.2517 30.7397 22.6012 32.5142 22.3122 34.3637C22.0232 36.2132 22.1013 38.1015 22.542 39.9209Z"  style="mix-blend-mode:normal" fill="#C2ECD6" ></path><path d="M42.9992 63.1612C42.6613 63.2431 42.3046 63.1873 42.0077 63.0062C41.7108 62.8251 41.498 62.5335 41.4162 62.1955L28.9134 10.5862C28.8315 10.2482 28.8872 9.89158 29.0683 9.59469C29.2494 9.2978 29.541 9.08501 29.879 9.00313C30.217 8.92125 30.5737 8.97699 30.8705 9.15808C31.1674 9.33918 31.3802 9.63079 31.4621 9.96877L43.9649 61.5781C44.0468 61.9161 43.991 62.2727 43.8099 62.5696C43.6288 62.8665 43.3372 63.0793 42.9992 63.1612Z"  style="mix-blend-mode:normal" fill="#67B3DB" ></path><path d="M33.7036 24.7905C33.5363 24.8311 33.3626 24.8383 33.1924 24.8117C33.0223 24.7851 32.8591 24.7253 32.7121 24.6356L23.1976 18.832C22.9045 18.6491 22.6954 18.358 22.6157 18.0218C22.536 17.6856 22.5923 17.3316 22.7722 17.0366C22.9521 16.7417 23.2411 16.5296 23.5765 16.4466C23.9119 16.3636 24.2664 16.4163 24.5632 16.5932L32.9584 21.7142L38.0791 13.3189C38.1688 13.1719 38.2865 13.044 38.4256 12.9425C38.5647 12.841 38.7224 12.7678 38.8898 12.7273C39.0571 12.6867 39.2308 12.6796 39.401 12.7061C39.5711 12.7327 39.7343 12.7925 39.8813 12.8822C40.0283 12.9719 40.1562 13.0896 40.2578 13.2287C40.3593 13.3678 40.4324 13.5255 40.4729 13.6929C40.5135 13.8602 40.5207 14.0339 40.4941 14.204C40.4675 14.3742 40.4077 14.5374 40.318 14.6844L34.5144 24.199C34.3332 24.4958 34.0416 24.7085 33.7036 24.7905ZM33.7043 58.2642C33.4522 58.3253 33.1877 58.3103 32.9442 58.2211C32.7007 58.1319 32.4891 57.9724 32.3362 57.7629C32.1833 57.5534 32.096 57.3033 32.0853 57.0441C32.0746 56.785 32.141 56.5285 32.2761 56.3071L38.0796 46.7926C38.1692 46.6455 38.287 46.5176 38.426 46.4161C38.5651 46.3146 38.7229 46.2414 38.8902 46.2009C39.0576 46.1603 39.2313 46.1531 39.4014 46.1797C39.5716 46.2063 39.7348 46.2661 39.8818 46.3558L49.3965 52.1594C49.6933 52.3406 49.906 52.6322 49.9879 52.9702C50.0698 53.3081 50.0141 53.6648 49.8331 53.9617C49.6519 54.2585 49.3602 54.4712 49.0223 54.553C48.6843 54.6349 48.3277 54.5793 48.0308 54.3983L39.6356 49.2774L34.5148 57.6725C34.4254 57.8197 34.3077 57.9477 34.1686 58.0493C34.0295 58.1508 33.8717 58.2238 33.7043 58.2642ZM62.2198 44.8454C61.9965 44.8994 61.7629 44.8937 61.5425 44.8287L10.5961 29.8516C10.4299 29.8039 10.2747 29.7238 10.1396 29.6159C10.0044 29.5081 9.89194 29.3745 9.80862 29.223C9.72529 29.0715 9.67276 28.905 9.65405 28.733C9.63533 28.5611 9.65081 28.3872 9.69958 28.2213C9.74836 28.0554 9.82947 27.9008 9.93824 27.7664C10.047 27.6319 10.1813 27.5203 10.3334 27.438C10.4854 27.3557 10.6523 27.3043 10.8243 27.2867C10.9964 27.2691 11.1702 27.2858 11.3357 27.3356L62.2819 42.3124C62.6155 42.4106 62.8965 42.6372 63.0631 42.9425C63.2297 43.2477 63.2682 43.6067 63.1702 43.9404C63.1053 44.1614 62.9832 44.3615 62.8164 44.5203C62.6495 44.6792 62.4437 44.7913 62.2198 44.8454Z"  style="mix-blend-mode:normal" fill="#67B3DB" ></path><path d="M14.5592 39.0485C14.2499 39.1235 13.9239 39.0834 13.642 38.9358C13.3601 38.7882 13.1415 38.5431 13.0269 38.2462C12.9124 37.9493 12.9097 37.6209 13.0194 37.3222C13.1291 37.0234 13.3437 36.7748 13.6232 36.6226L22.2556 31.9125L17.5457 23.2804C17.3791 22.9751 17.3407 22.6162 17.4387 22.2826C17.5368 21.9489 17.7633 21.6679 18.0686 21.5014C18.2197 21.4188 18.3856 21.3669 18.5568 21.3485C18.728 21.3301 18.9012 21.3457 19.0664 21.3942C19.2316 21.4428 19.3856 21.5234 19.5197 21.6315C19.6537 21.7396 19.7651 21.8731 19.8476 22.0242L25.1856 31.8074C25.2681 31.9586 25.32 32.1245 25.3384 32.2957C25.3568 32.467 25.3412 32.6401 25.2927 32.8053C25.2441 32.9705 25.1635 33.1246 25.0554 33.2586C24.9473 33.3927 24.8139 33.5041 24.6628 33.5866L14.8792 38.9247C14.7784 38.9798 14.6708 39.0214 14.5592 39.0485ZM53.3316 50.4467C53.0511 50.5143 52.7562 50.4876 52.4924 50.3707C52.2287 50.2537 52.0108 50.0531 51.8726 49.7998L46.5347 40.0164C46.3682 39.7111 46.3297 39.3522 46.4278 39.0185C46.5259 38.6849 46.7525 38.4039 47.0578 38.2374L56.8414 32.8992C57.1465 32.7341 57.5047 32.6967 57.8374 32.7951C58.1701 32.8936 58.4502 33.1199 58.6164 33.4245C58.7826 33.7291 58.8213 34.0871 58.724 34.4202C58.6267 34.7532 58.4014 35.0341 58.0973 35.2013L49.4649 39.9115L54.1749 48.5438C54.2713 48.7204 54.3258 48.9169 54.3341 49.118C54.3424 49.319 54.3043 49.5193 54.2228 49.7033C54.1412 49.8873 54.0184 50.05 53.8639 50.1789C53.7094 50.3079 53.5272 50.3995 53.3316 50.4467ZM17.5272 55.6725C17.2466 55.7408 16.9513 55.7144 16.6872 55.5977C16.4231 55.4809 16.2049 55.2803 16.0665 55.0268C15.9281 54.7734 15.8772 54.4813 15.9217 54.196C15.9662 53.9107 16.1037 53.6481 16.3127 53.4488L54.7562 16.8167C55.0084 16.5795 55.3442 16.4517 55.6904 16.4612C56.0365 16.4707 56.3648 16.6167 56.6037 16.8674C56.8425 17.118 56.9726 17.453 56.9654 17.7992C56.9582 18.1454 56.8143 18.4746 56.5653 18.7152L18.1219 55.3475C17.9557 55.5063 17.7506 55.6184 17.5272 55.6725Z"  style="mix-blend-mode:normal" fill="#67B3DB" ></path><path d="M57.2506 28.7062C57.1414 28.7326 57.0271 28.7453 56.9096 28.7423L45.7679 28.4735C45.4202 28.4652 45.0901 28.319 44.8502 28.0673C44.6103 27.8155 44.4802 27.4788 44.4886 27.1311L44.7573 15.9896C44.7668 15.6428 44.9135 15.3139 45.1651 15.075C45.4167 14.836 45.7527 14.7066 46.0996 14.7149C46.4464 14.7233 46.7759 14.8688 47.0157 15.1195C47.2555 15.3703 47.3861 15.7059 47.3789 16.0528L47.1418 25.8836L56.9726 26.1209C57.2907 26.1283 57.5953 26.2511 57.8296 26.4665C58.0638 26.6819 58.2118 26.9751 58.2458 27.2915C58.2798 27.6079 58.1976 27.9259 58.0145 28.1862C57.8314 28.4465 57.5599 28.6313 57.2506 28.7062ZM27.9932 56.5851C27.7977 56.6326 27.5938 56.6345 27.3974 56.5906C27.2011 56.5467 27.0174 56.4582 26.8608 56.3319C26.7041 56.2056 26.5786 56.045 26.4939 55.8624C26.4093 55.6799 26.3678 55.4803 26.3727 55.2791L26.6099 45.4484L16.7791 45.211C16.4322 45.2015 16.1033 45.0548 15.8644 44.8032C15.6255 44.5516 15.496 44.2156 15.5043 43.8687C15.5127 43.5219 15.6582 43.1924 15.909 42.9526C16.1597 42.7128 16.4953 42.5822 16.8422 42.5894L27.9839 42.8581C28.3316 42.8665 28.6617 43.0127 28.9016 43.2644C29.1415 43.5162 29.2716 43.8529 29.2632 44.2006L28.9944 55.3423C28.9875 55.6307 28.8856 55.9088 28.7046 56.1335C28.5236 56.3582 28.2735 56.5169 27.9932 56.5851Z"  style="mix-blend-mode:normal" fill="#67B3DB" ></path></svg>