<svg xmlns="http://www.w3.org/2000/svg" xmlns:xlink="http://www.w3.org/1999/xlink" width="94.1162109375" height="94.1162109375" viewBox="0 0 94.1162109375 94.1162109375" fill="none"><path d="M28.439 43.852C27.452 48.7952 28.469 53.928 31.2665 58.1214C34.0639 62.3147 38.4125 65.225 43.3557 66.212C48.299 67.1991 53.4318 66.182 57.6251 63.3846C61.8185 60.5871 64.7288 56.2385 65.7158 51.2953C66.2045 48.8476 66.2064 46.3277 65.7213 43.8794C65.2361 41.431 64.2735 39.1022 62.8883 37.0259C61.5032 34.9496 59.7226 33.1664 57.6484 31.7782C55.5741 30.39 53.2467 29.4239 50.799 28.9352C48.3514 28.4465 45.8315 28.4446 43.3831 28.9298C40.9348 29.4149 38.606 30.3775 36.5297 31.7627C34.4533 33.1478 32.6702 34.9284 31.282 37.0027C29.8938 39.0769 28.9277 41.4043 28.439 43.852Z"  style="mix-blend-mode:normal" fill="#9EDAF1" ></path><path d="M40.126 83.445C39.6713 83.3542 39.2713 83.0865 39.014 82.7008C38.7566 82.315 38.6631 81.8429 38.7539 81.3882L52.6179 11.9559C52.7087 11.5012 52.9764 11.1012 53.3621 10.8439C53.7478 10.5866 54.22 10.493 54.6747 10.5838C55.1294 10.6746 55.5294 10.9423 55.7867 11.328C56.044 11.7137 56.1376 12.1859 56.0468 12.6406L42.1828 82.0729C42.092 82.5276 41.8243 82.9276 41.4386 83.1849C41.0528 83.4422 40.5807 83.5358 40.126 83.445Z"  style="mix-blend-mode:normal" fill="#67B3DB" ></path><path d="M50.4337 31.8233C50.2085 31.7783 49.9944 31.6895 49.8036 31.5618C49.6128 31.4341 49.449 31.2701 49.3216 31.0791L41.0752 18.7175C40.8234 18.3318 40.734 17.8622 40.8264 17.411C40.9189 16.9597 41.1857 16.5631 41.5689 16.3075C41.9521 16.0518 42.4207 15.9578 42.8729 16.0457C43.3251 16.1336 43.7243 16.3965 43.9838 16.7771L51.2601 27.6846L62.1673 20.408C62.3583 20.2805 62.5725 20.192 62.7978 20.1473C63.023 20.1027 63.2548 20.1029 63.4799 20.1478C63.7051 20.1928 63.9192 20.2816 64.11 20.4093C64.3008 20.537 64.4646 20.701 64.592 20.892C64.7194 21.083 64.808 21.2972 64.8526 21.5224C64.8972 21.7476 64.8971 21.9794 64.8521 22.2045C64.8072 22.4297 64.7183 22.6438 64.5907 22.8346C64.463 23.0254 64.299 23.1892 64.108 23.3166L51.7463 31.5633C51.3605 31.8204 50.8884 31.9139 50.4337 31.8233ZM31.6358 72.3031C31.2967 72.2354 30.9853 72.0688 30.7409 71.8241C30.4965 71.5794 30.3302 71.2678 30.2629 70.9286C30.1957 70.5894 30.2306 70.2379 30.3632 69.9185C30.4958 69.5991 30.7201 69.3262 31.0078 69.1344L43.3692 60.8877C43.5602 60.7602 43.7745 60.6716 43.9997 60.627C44.2249 60.5823 44.4567 60.5825 44.6819 60.6274C44.907 60.6723 45.1211 60.7612 45.312 60.8889C45.5028 61.0166 45.6666 61.1806 45.794 61.3716L54.0407 73.7333C54.2979 74.119 54.3914 74.5912 54.3006 75.0459C54.2098 75.5006 53.9422 75.9006 53.5565 76.158C53.1707 76.4151 52.6986 76.5085 52.244 76.4177C51.7893 76.3269 51.3893 76.0594 51.1318 75.6738L43.8555 64.7664L32.9483 72.0428C32.7575 72.1705 32.5433 72.2593 32.318 72.304C32.0928 72.3486 31.861 72.3483 31.6358 72.3031ZM73.6553 72.09C73.355 72.03 73.0757 71.8918 72.8457 71.6894L19.6477 24.9665C19.4734 24.8155 19.3308 24.6315 19.2279 24.4251C19.1251 24.2188 19.064 23.9941 19.0484 23.7641C19.0327 23.5341 19.0627 23.3032 19.1366 23.0848C19.2105 22.8664 19.3269 22.6648 19.4791 22.4916C19.6312 22.3183 19.8161 22.1769 20.0232 22.0754C20.2302 21.9739 20.4553 21.9144 20.6854 21.9003C20.9155 21.8861 21.1462 21.9176 21.3641 21.993C21.582 22.0684 21.7828 22.1861 21.955 22.3394L75.153 69.0618C75.5013 69.3678 75.7139 69.7997 75.7439 70.2624C75.7739 70.7251 75.6189 71.1808 75.313 71.5293C75.1103 71.7602 74.8504 71.9335 74.5594 72.032C74.2684 72.1304 73.9566 72.1504 73.6553 72.09Z"  style="mix-blend-mode:normal" fill="#67B3DB" ></path><path d="M19.2752 38.3139C18.8591 38.2309 18.4874 37.9994 18.2293 37.6625C17.9713 37.3257 17.8446 36.9065 17.8728 36.4832C17.901 36.0598 18.0822 35.6612 18.3827 35.3615C18.6831 35.0619 19.0822 34.8818 19.5057 34.8547L32.59 34.0066L31.7421 20.9228C31.7121 20.4601 31.8671 20.0045 32.1731 19.6561C32.479 19.3077 32.9108 19.0952 33.3735 19.0651C33.6026 19.0502 33.8324 19.0806 34.0497 19.1545C34.2671 19.2284 34.4678 19.3444 34.6403 19.4959C34.8128 19.6474 34.9538 19.8314 35.0552 20.0374C35.1565 20.2434 35.2163 20.4674 35.2312 20.6965L36.1922 35.5251C36.2071 35.7542 36.1767 35.984 36.1027 36.2014C36.0288 36.4188 35.9128 36.6194 35.7613 36.792C35.6098 36.9645 35.4258 37.1055 35.2198 37.2069C35.0138 37.3083 34.7899 37.3682 34.5607 37.383L19.7317 38.344C19.5788 38.3539 19.4254 38.3438 19.2752 38.3139ZM59.7613 73.8721C59.3841 73.7963 59.0424 73.5984 58.7891 73.3088C58.5358 73.0193 58.385 72.6543 58.3601 72.2704L57.3994 57.4417C57.3694 56.979 57.5245 56.5233 57.8305 56.1749C58.1365 55.8265 58.5683 55.614 59.031 55.584L73.8601 54.6231C74.3219 54.5948 74.776 54.7507 75.1231 55.0566C75.4702 55.3625 75.6818 55.7935 75.7117 56.2551C75.7416 56.7168 75.5873 57.1715 75.2826 57.5196C74.9779 57.8677 74.5477 58.0809 74.0861 58.1124L61.0018 58.9604L61.8497 72.0445C61.8671 72.3122 61.8226 72.5804 61.7197 72.8282C61.6169 73.076 61.4583 73.2968 61.2564 73.4735C61.0545 73.6503 60.8146 73.7781 60.5553 73.8472C60.296 73.9163 60.0243 73.9248 59.7613 73.8721ZM13.5284 60.0841C13.1508 60.009 12.8085 59.8113 12.5547 59.5218C12.3008 59.2323 12.1497 58.8671 12.1246 58.4829C12.0996 58.0986 12.202 57.7169 12.4161 57.3969C12.6302 57.0768 12.9439 56.8364 13.3086 56.7129L80.3704 34.0035C80.8087 33.8584 81.2865 33.8924 81.6998 34.0983C82.113 34.3041 82.428 34.6651 82.5761 35.1024C82.7242 35.5397 82.6933 36.0178 82.4902 36.4323C82.2871 36.8469 81.9282 37.1644 81.4919 37.3153L14.4301 60.025C14.14 60.1237 13.8289 60.144 13.5284 60.0841Z"  style="mix-blend-mode:normal" fill="#67B3DB" ></path><path d="M76.71 49.7823C76.5631 49.7529 76.4177 49.7041 76.2773 49.6345L62.9547 43.0523C62.5389 42.847 62.2218 42.4849 62.0731 42.0457C61.9244 41.6065 61.9562 41.1262 62.1615 40.7105L68.7434 27.3881C68.9498 26.974 69.3118 26.6586 69.7502 26.511C70.1887 26.3633 70.6678 26.3955 71.0826 26.6004C71.4973 26.8053 71.814 27.1662 71.9631 27.6042C72.1123 28.0421 72.0818 28.5213 71.8783 28.9368L66.0707 40.6919L77.8257 46.4998C78.2063 46.6874 78.5056 47.007 78.6679 47.399C78.8302 47.7911 78.8445 48.2287 78.7079 48.6305C78.5714 49.0322 78.2934 49.3706 77.9258 49.5825C77.5582 49.7944 77.1261 49.8654 76.71 49.7823ZM25.6725 67.0653C25.4094 67.0129 25.1618 66.9007 24.949 66.7373C24.7362 66.574 24.5639 66.3638 24.4453 66.1231C24.3268 65.8824 24.2652 65.6177 24.2654 65.3494C24.2656 65.0811 24.3275 64.8164 24.4464 64.5759L30.2541 52.8208L18.499 47.0129C18.085 46.8066 17.7696 46.4445 17.6219 46.0061C17.4743 45.5676 17.5064 45.0885 17.7113 44.6738C17.9162 44.259 18.2772 43.9423 18.7151 43.7932C19.153 43.644 19.6322 43.6745 20.0477 43.878L33.3704 50.4601C33.7861 50.6655 34.1032 51.0276 34.2519 51.4668C34.4007 51.906 34.3688 52.3862 34.1635 52.802L27.5813 66.1246C27.4109 66.4695 27.1315 66.7486 26.7865 66.9187C26.4414 67.0887 26.0499 67.1403 25.6725 67.0653Z"  style="mix-blend-mode:normal" fill="#67B3DB" ></path></svg>