<svg xmlns="http://www.w3.org/2000/svg" xmlns:xlink="http://www.w3.org/1999/xlink" width="390" height="844" viewBox="0 0 390 844" fill="none"><g  clip-path="url(#clip-path-33_41)"><path    style="mix-blend-mode:normal" fill="url(#linear_fill_33_41_0)"  d="M0 844L390 844L390 0L0 0L0 844Z"></path><path d="M124.99 193C123.445 193 121.5 192.997 119.93 191.56C114.098 189.45 108.633 182.447 103.2 171.94C95.0004 155.101 90.3455 134.041 85.66 113.7C83.716 105.258 81.7728 96.1819 79.43 87.74C78.6227 84.6703 77.5688 81.8288 76.31 79.3C72.8208 73.6871 66.5955 77.1886 61.91 83.52C60.3648 85.6305 53.3652 99.0144 51.82 101.08C46.7651 108.13 41.299 131.21 20.66 139.65C9.7687 146.655 0.4 139.65 0.4 139.65L0 114.37L0.4 46.5L0.4 40.01C0.4 39.2915 0 37.22 0 37.22L0 7.05C0 2.82907 1.54725 0 3.89 0L385.91 0C388.253 0 389.82 2.82907 389.82 7.05L389.82 14.05C389.82 15.442 390.219 86.348 389.82 87.74L389.82 110.19L381.24 131.21C373.838 150.159 355.196 160.95 341.92 145.5C338.805 150.439 346.979 145.5 341.92 145.5C332.57 132.88 322.433 111.587 318.57 101.08C317.198 96.4676 315.482 92.2012 313.48 88.41C308.794 80.0131 299.443 78.5802 292.44 85.63C286.209 91.9165 280.762 103.141 276.5 119.98C275.329 124.201 274.526 128.419 273.38 132.64C268.694 152.263 263.633 175.433 251.57 183.83C244.941 188.769 237.146 188.053 229.37 182.44C223.799 178.624 218.842 172.357 214.96 164.21C210.673 154.376 208.334 142.436 206.39 131.21C203.648 117.2 201.331 103.861 195.1 97.53C186.925 89.8515 176.011 98.9721 169.78 111.59C165.892 119.987 162.8 129.098 159.66 139.65C157.317 147.373 154.995 155.102 151.88 162.78C146.023 178.227 135.906 192.95 124.99 192.95L124.99 193Z"  style="mix-blend-mode:normal" fill="#9EDAF1" ></path><path d="M31.5422 681.921C32.4323 685.595 34.7456 688.765 37.9732 690.734C41.2007 692.703 45.0781 693.309 48.7524 692.419C52.4268 691.529 55.597 689.215 57.5657 685.988C59.5344 682.76 60.1403 678.883 59.2502 675.208C58.8095 673.389 58.0147 671.674 56.9112 670.162C55.8078 668.65 54.4174 667.37 52.8192 666.395C51.2211 665.42 49.4466 664.77 47.5971 664.481C45.7476 664.192 43.8593 664.27 42.0399 664.711C40.2206 665.151 38.5059 665.946 36.9937 667.05C35.4815 668.153 34.2015 669.544 33.2267 671.142C32.2519 672.74 31.6014 674.514 31.3124 676.364C31.0233 678.213 31.1014 680.102 31.5422 681.921Z"  style="mix-blend-mode:normal" fill="#C2ECD6" ></path><path d="M51.9995 705.161C51.6615 705.243 51.3048 705.188 51.008 705.006C50.7111 704.825 50.4983 704.534 50.4164 704.196L37.9136 652.586C37.8317 652.248 37.8875 651.892 38.0686 651.595C38.2496 651.298 38.5413 651.085 38.8792 651.003C39.2172 650.921 39.5739 650.977 39.8708 651.158C40.1677 651.339 40.3805 651.631 40.4623 651.969L52.9651 703.578C53.047 703.916 52.9913 704.273 52.8102 704.57C52.6291 704.867 52.3375 705.079 51.9995 705.161Z"  style="mix-blend-mode:normal" fill="#67B3DB" ></path><path d="M42.7038 666.791C42.5364 666.831 42.3627 666.839 42.1926 666.812C42.0225 666.785 41.8592 666.726 41.7122 666.636L32.1978 660.832C31.9047 660.649 31.6955 660.358 31.6159 660.022C31.5362 659.686 31.5924 659.332 31.7723 659.037C31.9523 658.742 32.2413 658.53 32.5767 658.447C32.912 658.364 33.2666 658.417 33.5633 658.594L41.9585 663.714L47.0793 655.319C47.1689 655.172 47.2867 655.044 47.4258 654.943C47.5649 654.841 47.7226 654.768 47.8899 654.728C48.0573 654.687 48.231 654.68 48.4011 654.706C48.5713 654.733 48.7345 654.793 48.8815 654.882C49.0285 654.972 49.1564 655.09 49.2579 655.229C49.3594 655.368 49.4325 655.526 49.4731 655.693C49.5136 655.86 49.5208 656.034 49.4943 656.204C49.4677 656.374 49.4078 656.538 49.3182 656.685L43.5145 666.199C43.3333 666.496 43.0417 666.709 42.7038 666.791ZM42.7044 700.264C42.4524 700.326 42.1879 700.311 41.9443 700.221C41.7008 700.132 41.4892 699.973 41.3364 699.763C41.1835 699.554 41.0962 699.304 41.0855 699.044C41.0748 698.785 41.1412 698.529 41.2763 698.307L47.0797 688.793C47.1694 688.646 47.2871 688.518 47.4262 688.416C47.5653 688.315 47.723 688.242 47.8904 688.201C48.0578 688.161 48.2315 688.153 48.4016 688.18C48.5717 688.206 48.735 688.266 48.882 688.356L58.3966 694.16C58.6935 694.341 58.9062 694.632 58.9881 694.97C59.07 695.308 59.0143 695.665 58.8333 695.962C58.652 696.259 58.3604 696.471 58.0224 696.553C57.6845 696.635 57.3279 696.58 57.0309 696.399L48.6357 691.278L43.5149 699.673C43.4255 699.82 43.3079 699.948 43.1688 700.049C43.0297 700.151 42.8719 700.224 42.7044 700.264ZM71.2199 686.846C70.9966 686.9 70.763 686.894 70.5427 686.829L19.5963 671.852C19.43 671.804 19.2749 671.724 19.1397 671.616C19.0046 671.508 18.8921 671.375 18.8088 671.223C18.7255 671.072 18.6729 670.905 18.6542 670.733C18.6355 670.561 18.651 670.387 18.6997 670.222C18.7485 670.056 18.8296 669.901 18.9384 669.767C19.0472 669.632 19.1815 669.521 19.3335 669.438C19.4856 669.356 19.6525 669.305 19.8245 669.287C19.9965 669.269 20.1703 669.286 20.3359 669.336L71.282 684.313C71.6157 684.411 71.8967 684.637 72.0633 684.943C72.2299 685.248 72.2684 685.607 72.1704 685.941C72.1055 686.162 71.9834 686.362 71.8166 686.521C71.6497 686.679 71.4439 686.792 71.2199 686.846Z"  style="mix-blend-mode:normal" fill="#67B3DB" ></path><path d="M23.5592 681.049C23.2499 681.124 22.9239 681.084 22.642 680.936C22.3601 680.788 22.1415 680.543 22.027 680.246C21.9124 679.949 21.9097 679.621 22.0194 679.322C22.1292 679.024 22.3437 678.775 22.6232 678.623L31.2556 673.913L26.5457 665.28C26.3792 664.975 26.3407 664.616 26.4388 664.283C26.5368 663.949 26.7634 663.668 27.0686 663.501C27.2197 663.419 27.3857 663.367 27.5569 663.349C27.7281 663.33 27.9012 663.346 28.0664 663.394C28.2316 663.443 28.3857 663.523 28.5197 663.632C28.6537 663.74 28.7652 663.873 28.8476 664.024L34.1856 673.808C34.2681 673.959 34.32 674.125 34.3384 674.296C34.3568 674.467 34.3413 674.64 34.2927 674.805C34.2442 674.971 34.1635 675.125 34.0555 675.259C33.9474 675.393 33.814 675.504 33.6628 675.587L23.8792 680.925C23.7784 680.98 23.6708 681.022 23.5592 681.049ZM62.3317 692.447C62.0512 692.514 61.7562 692.488 61.4925 692.371C61.2287 692.254 61.0108 692.053 60.8726 691.8L55.5347 682.017C55.3682 681.711 55.3297 681.352 55.4278 681.019C55.5259 680.685 55.7525 680.404 56.0578 680.237L65.8414 674.899C66.1465 674.734 66.5047 674.697 66.8374 674.795C67.1702 674.894 67.4503 675.12 67.6165 675.425C67.7826 675.729 67.8213 676.087 67.724 676.42C67.6267 676.753 67.4014 677.034 67.0974 677.201L58.465 681.912L63.1749 690.544C63.2713 690.721 63.3258 690.917 63.3341 691.118C63.3424 691.319 63.3043 691.519 63.2228 691.703C63.1413 691.887 63.0185 692.05 62.8639 692.179C62.7094 692.308 62.5273 692.4 62.3317 692.447ZM26.5272 697.673C26.2466 697.741 25.9513 697.715 25.6872 697.598C25.4231 697.481 25.2049 697.28 25.0665 697.027C24.9281 696.773 24.8772 696.481 24.9217 696.196C24.9663 695.911 25.1037 695.648 25.3128 695.449L63.7562 658.817C64.0085 658.58 64.3443 658.452 64.6904 658.461C65.0365 658.471 65.3649 658.617 65.6037 658.867C65.8426 659.118 65.9726 659.453 65.9654 659.799C65.9582 660.145 65.8144 660.475 65.5653 660.715L27.1219 697.348C26.9557 697.506 26.7506 697.619 26.5272 697.673Z"  style="mix-blend-mode:normal" fill="#67B3DB" ></path><path d="M66.2509 670.706C66.1416 670.733 66.0273 670.745 65.9098 670.742L54.7681 670.474C54.4205 670.465 54.0904 670.319 53.8505 670.067C53.6105 669.816 53.4805 669.479 53.4888 669.131L53.7575 657.99C53.7671 657.643 53.9137 657.314 54.1653 657.075C54.4169 656.836 54.7529 656.707 55.0998 656.715C55.4467 656.723 55.7761 656.869 56.0159 657.12C56.2557 657.37 56.3863 657.706 56.3792 658.053L56.142 667.884L65.9728 668.121C66.291 668.128 66.5956 668.251 66.8298 668.467C67.0641 668.682 67.212 668.975 67.246 669.292C67.2801 669.608 67.1979 669.926 67.0148 670.186C66.8317 670.447 66.5602 670.631 66.2509 670.706ZM36.9934 698.585C36.7979 698.633 36.594 698.635 36.3977 698.591C36.2013 698.547 36.0177 698.458 35.861 698.332C35.7043 698.206 35.5788 698.045 35.4942 697.862C35.4096 697.68 35.3681 697.48 35.373 697.279L35.6101 687.448L25.7793 687.211C25.4325 687.202 25.1036 687.055 24.8646 686.803C24.6257 686.552 24.4962 686.216 24.5046 685.869C24.5129 685.522 24.6584 685.193 24.9092 684.953C25.16 684.713 25.4956 684.582 25.8425 684.589L36.9842 684.858C37.3318 684.867 37.6619 685.013 37.9018 685.264C38.1417 685.516 38.2718 685.853 38.2634 686.201L37.9947 697.342C37.9877 697.631 37.8858 697.909 37.7048 698.134C37.5238 698.358 37.2738 698.517 36.9934 698.585Z"  style="mix-blend-mode:normal" fill="#67B3DB" ></path><path d="M324.439 166.852C323.452 171.795 324.469 176.928 327.267 181.121C330.064 185.315 334.413 188.225 339.356 189.212C344.299 190.199 349.432 189.182 353.625 186.385C357.819 183.587 360.729 179.239 361.716 174.295C362.205 171.848 362.206 169.328 361.721 166.879C361.236 164.431 360.274 162.102 358.888 160.026C357.503 157.95 355.723 156.166 353.648 154.778C351.574 153.39 349.247 152.424 346.799 151.935C344.352 151.447 341.832 151.445 339.383 151.93C336.935 152.415 334.606 153.378 332.53 154.763C330.453 156.148 328.67 157.928 327.282 160.003C325.894 162.077 324.928 164.404 324.439 166.852Z"  style="mix-blend-mode:normal" fill="#9EDAF1" ></path><path d="M336.126 206.445C335.671 206.354 335.271 206.087 335.014 205.701C334.757 205.315 334.663 204.843 334.754 204.388L348.618 134.956C348.709 134.501 348.976 134.101 349.362 133.844C349.748 133.587 350.22 133.493 350.675 133.584C351.129 133.675 351.529 133.942 351.787 134.328C352.044 134.714 352.138 135.186 352.047 135.641L338.183 205.073C338.092 205.528 337.824 205.928 337.439 206.185C337.053 206.442 336.581 206.536 336.126 206.445Z"  style="mix-blend-mode:normal" fill="#67B3DB" ></path><path d="M346.434 154.823C346.209 154.779 345.995 154.69 345.804 154.562C345.613 154.434 345.449 154.27 345.322 154.079L337.075 141.718C336.823 141.332 336.734 140.862 336.827 140.411C336.919 139.96 337.186 139.563 337.569 139.308C337.952 139.052 338.421 138.958 338.873 139.046C339.325 139.134 339.724 139.397 339.984 139.777L347.26 150.685L358.167 143.408C358.358 143.281 358.573 143.192 358.798 143.148C359.023 143.103 359.255 143.103 359.48 143.148C359.705 143.193 359.919 143.282 360.11 143.409C360.301 143.537 360.465 143.701 360.592 143.892C360.72 144.083 360.808 144.297 360.853 144.523C360.897 144.748 360.897 144.98 360.852 145.205C360.807 145.43 360.718 145.644 360.591 145.835C360.463 146.026 360.299 146.189 360.108 146.317L347.746 154.563C347.361 154.821 346.888 154.914 346.434 154.823ZM327.636 195.303C327.297 195.236 326.985 195.069 326.741 194.824C326.497 194.58 326.33 194.268 326.263 193.929C326.196 193.59 326.231 193.238 326.363 192.919C326.496 192.599 326.72 192.326 327.008 192.135L339.369 183.888C339.56 183.76 339.775 183.672 340 183.627C340.225 183.583 340.457 183.583 340.682 183.628C340.907 183.673 341.121 183.761 341.312 183.889C341.503 184.017 341.667 184.181 341.794 184.372L350.041 196.733C350.298 197.119 350.392 197.591 350.301 198.046C350.21 198.501 349.942 198.901 349.557 199.158C349.171 199.415 348.699 199.509 348.244 199.418C347.789 199.327 347.389 199.06 347.132 198.674L339.856 187.767L328.948 195.043C328.758 195.171 328.543 195.259 328.318 195.304C328.093 195.349 327.861 195.349 327.636 195.303ZM369.655 195.09C369.355 195.03 369.076 194.892 368.846 194.69L315.648 147.967C315.474 147.816 315.331 147.632 315.228 147.425C315.125 147.219 315.064 146.994 315.048 146.764C315.033 146.534 315.063 146.303 315.137 146.085C315.211 145.867 315.327 145.665 315.479 145.492C315.631 145.318 315.816 145.177 316.023 145.076C316.23 144.974 316.455 144.915 316.685 144.9C316.916 144.886 317.146 144.918 317.364 144.993C317.582 145.069 317.783 145.186 317.955 145.34L371.153 192.062C371.501 192.368 371.714 192.8 371.744 193.263C371.774 193.725 371.619 194.181 371.313 194.53C371.11 194.76 370.85 194.934 370.559 195.032C370.268 195.131 369.957 195.151 369.655 195.09Z"  style="mix-blend-mode:normal" fill="#67B3DB" ></path><path d="M315.275 161.314C314.859 161.231 314.487 160.999 314.229 160.663C313.971 160.326 313.845 159.907 313.873 159.483C313.901 159.06 314.082 158.661 314.383 158.362C314.683 158.062 315.082 157.882 315.506 157.855L328.59 157.007L327.742 143.923C327.712 143.46 327.867 143.005 328.173 142.656C328.479 142.308 328.911 142.095 329.374 142.065C329.603 142.05 329.832 142.081 330.05 142.154C330.267 142.228 330.468 142.344 330.64 142.496C330.813 142.647 330.954 142.831 331.055 143.037C331.157 143.243 331.216 143.467 331.231 143.697L332.192 158.525C332.207 158.754 332.177 158.984 332.103 159.201C332.029 159.419 331.913 159.619 331.761 159.792C331.61 159.964 331.426 160.105 331.22 160.207C331.014 160.308 330.79 160.368 330.561 160.383L315.732 161.344C315.579 161.354 315.425 161.344 315.275 161.314ZM355.761 196.872C355.384 196.796 355.043 196.598 354.789 196.309C354.536 196.019 354.385 195.654 354.36 195.27L353.4 180.442C353.37 179.979 353.525 179.523 353.831 179.175C354.137 178.827 354.568 178.614 355.031 178.584L369.86 177.623C370.322 177.595 370.776 177.751 371.123 178.057C371.47 178.362 371.682 178.793 371.712 179.255C371.742 179.717 371.587 180.171 371.283 180.52C370.978 180.868 370.548 181.081 370.086 181.112L357.002 181.96L357.85 195.044C357.867 195.312 357.823 195.58 357.72 195.828C357.617 196.076 357.458 196.297 357.256 196.474C357.055 196.65 356.815 196.778 356.555 196.847C356.296 196.916 356.024 196.925 355.761 196.872ZM309.529 183.084C309.151 183.009 308.809 182.811 308.555 182.522C308.301 182.232 308.15 181.867 308.125 181.483C308.1 181.099 308.202 180.717 308.416 180.397C308.63 180.077 308.944 179.836 309.309 179.713L376.37 157.004C376.809 156.858 377.287 156.892 377.7 157.098C378.113 157.304 378.428 157.665 378.576 158.102C378.724 158.54 378.693 159.018 378.49 159.432C378.287 159.847 377.928 160.164 377.492 160.315L310.43 183.025C310.14 183.124 309.829 183.144 309.529 183.084Z"  style="mix-blend-mode:normal" fill="#67B3DB" ></path><path d="M372.71 172.782C372.563 172.753 372.418 172.704 372.277 172.635L358.954 166.053C358.539 165.847 358.222 165.485 358.073 165.046C357.924 164.607 357.956 164.126 358.161 163.711L364.743 150.388C364.95 149.974 365.312 149.659 365.75 149.511C366.189 149.364 366.668 149.396 367.082 149.601C367.497 149.805 367.814 150.166 367.963 150.604C368.112 151.042 368.082 151.521 367.878 151.937L362.07 163.692L373.826 169.5C374.206 169.688 374.505 170.007 374.668 170.399C374.83 170.791 374.844 171.229 374.708 171.631C374.571 172.032 374.293 172.371 373.926 172.583C373.558 172.795 373.126 172.866 372.71 172.782ZM321.672 190.065C321.409 190.013 321.162 189.901 320.949 189.738C320.736 189.574 320.564 189.364 320.445 189.123C320.327 188.883 320.265 188.618 320.265 188.35C320.265 188.081 320.327 187.817 320.446 187.576L326.254 175.821L314.499 170.013C314.085 169.807 313.769 169.445 313.622 169.006C313.474 168.568 313.506 168.089 313.711 167.674C313.916 167.259 314.277 166.943 314.715 166.793C315.153 166.644 315.632 166.675 316.048 166.878L329.37 173.46C329.786 173.666 330.103 174.028 330.252 174.467C330.401 174.906 330.369 175.386 330.163 175.802L323.581 189.125C323.411 189.47 323.131 189.749 322.786 189.919C322.441 190.089 322.05 190.14 321.672 190.065Z"  style="mix-blend-mode:normal" fill="#67B3DB" ></path></g><defs><clipPath id="clip-path-33_41"><path d="M0 844L390 844L390 0L0 0L0 844Z" fill="white"/></clipPath><linearGradient id="linear_fill_33_41_0" x1="228.49998074418664" y1="-794.9999874496561" x2="228.49998074418656" y2="1235.9999793457196" gradientUnits="userSpaceOnUse"><stop offset="0" stop-color="#CDEEF8"  /><stop offset="1" stop-color="#FFFFFF"  /></linearGradient></defs></svg>