<svg xmlns="http://www.w3.org/2000/svg" xmlns:xlink="http://www.w3.org/1999/xlink" width="60" height="56.56999969482422" viewBox="0 0 60 56.56999969482422" fill="none"><path d="M7.5 4.71429L52.5 4.71429L52.5 9.42857L7.5 9.42857L7.5 4.71429ZM7.5 47.1429L52.5 47.1429L52.5 51.8571L7.5 51.8571L7.5 47.1429ZM23.75 37.7143L36.25 37.7143L36.25 42.4286L23.75 42.4286L23.75 37.7143Z"  style="mix-blend-mode:normal" fill="#000000" ></path><path d="M12.5 7.07143C12.5 6.44627 12.7634 5.84673 13.2322 5.40468C13.7011 4.96263 14.337 4.71429 15 4.71429L45 4.71429C45.663 4.71429 46.2989 4.96263 46.7678 5.40468C47.2366 5.84673 47.5 6.44627 47.5 7.07143L47.5 17.6786C47.5001 18.2027 47.315 18.712 46.9737 19.1259L39.4175 28.2857L46.9737 37.4456C47.315 37.8594 47.5001 38.3687 47.5 38.8929L47.5 49.5C47.5 50.1252 47.2366 50.7247 46.7678 51.1668C46.2989 51.6088 45.663 51.8571 45 51.8571L15 51.8571C14.337 51.8571 13.7011 51.6088 13.2322 51.1668C12.7634 50.7247 12.5 50.1252 12.5 49.5L12.5 38.8929C12.4999 38.3687 12.685 37.8594 13.0262 37.4456L20.5825 28.2857L13.0262 19.1259C12.685 18.712 12.4999 18.2027 12.5 17.6786L12.5 7.07143ZM17.5 9.42857L17.5 16.8701L25.7237 26.8384C26.0651 27.2522 26.2505 27.7615 26.2505 28.2857C26.2505 28.8099 26.0651 29.3192 25.7237 29.733L17.5 39.7014L17.5 47.1429L42.5 47.1429L42.5 39.7014L34.2762 29.733C33.9349 29.3192 33.7495 28.8099 33.7495 28.2857C33.7495 27.7615 33.9349 27.2522 34.2762 26.8384L42.5 16.8701L42.5 9.42857L17.5 9.42857Z"  style="mix-blend-mode:normal" fill="#000000" ></path><path d="M28.0263 24.4294L23.6513 19.1259L27.5988 16.2313L30 19.1424L32.4012 16.2313L36.3488 19.1259L31.9737 24.4294C31.74 24.7129 31.4407 24.9423 31.0987 25.1001C30.7566 25.2579 30.3808 25.3399 30 25.3399C29.6192 25.3399 29.2434 25.2579 28.9014 25.1001C28.5593 24.9423 28.26 24.7129 28.0263 24.4294Z"  style="mix-blend-mode:normal" fill="#000000" ></path></svg>