<svg xmlns="http://www.w3.org/2000/svg" xmlns:xlink="http://www.w3.org/1999/xlink" width="382.158447265625" height="570.8318481445312" viewBox="0 0 382.158447265625 570.8318481445312" fill="none"><g opacity="0.4"><g opacity="0.8"><path d="M230.792 119.788C225.312 129.616 223.951 141.223 227.01 152.055C230.068 162.887 237.294 172.056 247.099 177.545C256.904 183.034 268.485 184.395 279.293 181.326C290.101 178.258 299.252 171.012 304.732 161.183C307.445 156.317 309.176 150.962 309.825 145.426C310.474 139.889 310.028 134.279 308.514 128.916C305.456 118.084 298.229 108.915 288.424 103.426C278.619 97.9366 267.039 96.5765 256.231 99.6449C245.423 102.713 236.272 109.959 230.792 119.788Z"  style="mix-blend-mode:normal" fill="#C2ECD6" ></path></g><path d="M302.876 151.17C302.992 145.856 302.339 140.637 301.164 135.461C299.326 127.432 295.746 120.329 290.149 114.291C288.053 112.031 285.79 109.959 283.045 108.476C279.906 106.779 276.566 105.589 273.173 104.528C269.909 103.519 266.537 103.102 263.133 102.67C258.799 102.124 254.474 101.921 250.111 102.268C239.641 103.104 229.82 106.04 220.776 111.461C217.505 113.417 214.557 115.792 212.215 118.837C211.394 119.846 210.647 120.893 209.995 122.023C205.956 128.974 204.895 136.295 207.374 143.989C208.7 148.102 211.263 151.255 215.021 153.424C218.11 155.206 221.479 156.288 224.91 157.13C228.362 157.973 231.828 158.785 235.283 159.584C239.01 160.456 241.865 162.423 243.783 165.811C245.258 168.406 246.722 171.013 248.418 173.457C250.877 176.991 253.716 180.151 257.385 182.48C262.798 185.928 268.756 187.1 275.101 186.527C279.2 186.163 282.945 184.702 286.471 182.586C291.311 179.669 295.196 175.872 297.897 170.859C301.217 164.703 302.725 158.108 302.876 151.17ZM282.367 174.598C279.64 176.18 276.697 177.228 273.441 177.37C268.401 177.608 265.239 176.551 260.808 173.586C257.812 171.577 255.435 168.923 253.343 165.977C251.896 163.936 250.631 161.797 249.368 159.635C247.719 156.84 246.234 154.376 243.245 153.54C240.46 152.773 237.666 151.995 234.885 151.184C232.114 150.384 228.845 149.442 225.988 148.615C222.632 147.645 218.223 146.751 216.18 142.149C212.858 134.676 214.421 124.102 230.567 116.101C240.701 111.835 243.741 110.517 252.065 110.216C255.529 110.098 258.984 110.422 262.465 111.013C265.181 111.488 267.889 111.929 270.529 112.863C273.438 113.893 277.143 116.025 279.733 117.521C280.487 117.957 281.227 118.425 281.906 118.989C288.329 124.262 291.028 131.971 293.06 139.581C294.181 143.791 294.237 145.521 294.337 149.797C294.467 155.392 293.483 160.661 291.058 165.515C289.093 169.492 286.119 172.407 282.367 174.598ZM245.978 93.5813C248.055 93.0855 249.749 91.9121 251.212 90.4029C253.341 88.2068 254.728 85.5644 255.953 82.2365C256.357 81.2007 256.788 79.6025 257.099 77.9854C257.952 73.494 258.001 68.9836 257.21 64.4851C256.498 60.4342 255.184 56.6209 252.733 53.2869C251.321 51.3589 249.599 49.7648 247.308 48.897C244.038 47.645 241.065 48.326 238.369 50.419C235.288 52.8077 233.546 56.113 232.248 59.6906C231.413 62.0149 230.915 64.4163 230.633 66.8761C229.968 72.6298 230.506 78.2402 232.592 83.6524C233.741 86.6586 235.34 89.3731 237.857 91.4502C240.205 93.4058 242.891 94.3213 245.978 93.5813ZM245.657 86.768C243.715 87.2283 242.055 86.6559 240.562 85.4196C238.985 84.1115 237.591 80.8239 236.861 78.9402C235.562 75.5481 235.232 72.031 235.637 68.4287C235.811 66.8912 236.124 65.396 236.646 63.9253C237.453 61.6877 239.147 58.6115 241.073 57.1103C242.765 55.793 244.628 55.3607 246.682 56.1467C248.113 56.6931 249.59 59.267 250.488 60.4868C252.021 62.5775 251.851 64.3808 252.304 66.9214C252.792 69.7409 252.772 72.5716 252.234 75.3798C252.042 76.3962 251.764 77.3848 251.508 78.043C250.744 80.1396 250.266 83.372 248.944 84.7576C248.026 85.7269 246.96 86.4542 245.657 86.768ZM267.798 64.3313C265.378 69.595 264.123 75.1002 264.415 80.9049C264.567 84.1229 265.246 87.2092 266.965 89.9647C268.594 92.5706 270.849 94.2767 273.988 94.5468C276.118 94.7292 278.079 94.1484 279.948 93.1524C282.642 91.7231 284.784 89.6606 286.988 86.8609C287.688 85.9992 288.601 84.6203 289.397 83.1785C291.608 79.1734 293.064 74.8982 293.721 70.3719C294.314 66.2951 294.263 62.265 292.97 58.3092C292.224 56.0261 291.085 53.9831 289.204 52.445C286.488 50.2332 283.46 49.9483 280.255 51.1011C276.587 52.4118 273.911 55.0039 271.56 58.0153C270.056 59.9532 268.826 62.0859 267.798 64.3313ZM280.747 58.3237C282.763 57.5916 284.671 57.7818 286.363 59.1748C287.554 60.1371 288.147 63.0519 288.61 64.4869C289.421 66.9622 288.687 68.6182 288.322 71.1721C287.915 74.0109 286.999 76.6951 285.611 79.1937C285.117 80.102 284.539 80.9605 284.103 81.5075C282.723 83.2543 281.26 86.1906 279.575 87.088C278.406 87.698 277.177 88.0718 275.837 87.9628C273.862 87.7904 272.457 86.7257 271.422 85.0877C270.34 83.347 270.035 79.7872 269.933 77.7671C269.755 74.1381 270.536 70.6819 272.057 67.3844C272.696 65.9766 273.462 64.6435 274.43 63.423C275.897 61.538 278.459 59.1488 280.747 58.3237ZM349.959 127.132C350.775 123.811 350.177 120.819 347.698 118.357C345.964 116.629 343.819 115.716 341.481 115.199C337.435 114.317 333.414 114.676 329.424 115.689C324.985 116.806 320.901 118.687 317.142 121.297C315.785 122.238 314.52 123.284 313.736 124.074C311.19 126.553 309.338 128.9 308.202 131.736C307.415 133.687 307.043 135.709 307.426 137.814C308.015 140.939 309.936 142.999 312.691 144.351C315.617 145.779 318.75 146.138 321.963 145.97C327.748 145.659 333.096 143.849 338.082 140.909C340.2 139.653 342.2 138.212 343.974 136.512C346.72 133.859 349.023 130.91 349.959 127.132ZM334.624 136.968C331.503 138.812 328.157 139.944 324.521 140.151C322.503 140.264 318.922 140.319 317.097 139.415C315.367 138.573 314.166 137.267 313.794 135.318C313.543 134.007 313.785 132.74 314.268 131.51C314.977 129.73 317.748 127.985 319.348 126.419C319.846 125.92 320.643 125.264 321.478 124.676C323.823 123.036 326.4 121.854 329.176 121.16C331.671 120.525 333.257 119.632 335.791 120.184C337.258 120.512 340.22 120.792 341.304 121.869C342.864 123.42 343.231 125.291 342.722 127.371C342.137 129.745 340.033 132.54 338.305 134.198C337.203 135.288 335.948 136.18 334.624 136.968ZM296.687 89.8023C294.789 92.8099 293.551 95.5284 293.11 98.542C292.798 100.635 292.921 102.678 293.791 104.626C295.103 107.51 297.457 109.068 300.458 109.727C303.644 110.432 306.775 110.027 309.853 109.109C315.412 107.445 320.192 104.437 324.337 100.391C326.113 98.6699 327.711 96.8155 329.038 94.7222C331.093 91.5147 332.632 88.1188 332.65 84.2148C332.666 80.8085 331.39 78.0375 328.392 76.2168C326.306 74.942 324.003 74.5602 321.603 74.6147C317.456 74.7107 313.634 76.0115 309.978 77.9315C305.922 80.0579 302.382 82.8483 299.339 86.2795C298.258 87.5368 297.272 88.8557 296.687 89.8023ZM311.038 83.3325C313.329 82.1315 314.652 80.8899 317.251 80.8262C318.755 80.791 321.71 80.3743 323.012 81.1778C324.876 82.3165 325.683 84.0504 325.678 86.1852C325.664 88.618 324.281 91.836 322.982 93.8426C322.151 95.1494 321.142 96.3229 320.041 97.3909C317.436 99.9212 314.445 101.818 310.95 102.852C309.022 103.424 305.547 104.338 303.558 103.888C301.677 103.468 300.198 102.509 299.375 100.685C298.831 99.4663 298.754 98.1891 298.956 96.8747C299.231 94.9787 301.515 92.6267 302.706 90.7349C303.079 90.1396 303.688 89.3162 304.382 88.5426C306.285 86.4204 308.505 84.6616 311.038 83.3325Z"  style="mix-blend-mode:normal" fill="#7CCBED" ></path></g><g opacity="0.8"><path d="M131.019 476.514C126.691 486.208 126.382 497.228 130.161 507.151C133.94 517.074 141.497 525.086 151.169 529.425C160.842 533.764 171.837 534.074 181.737 530.287C191.637 526.501 199.63 518.928 203.958 509.234C206.101 504.434 207.28 499.258 207.427 494.001C207.575 488.744 206.687 483.51 204.816 478.596C201.037 468.674 193.48 460.662 183.808 456.323C174.135 451.984 163.14 451.673 153.24 455.46C143.34 459.246 135.347 466.82 131.019 476.514Z"  style="mix-blend-mode:normal" fill="#9EDAF1" ></path><path d="M173.247 450.455C168.108 448.292 162.803 446.95 157.368 446.163C148.933 444.941 140.832 445.821 133.088 449.146C130.191 450.384 127.423 451.873 125.073 454.071C122.391 456.584 120.114 459.492 117.976 462.513C115.919 465.419 114.404 468.666 112.855 471.909C110.895 476.069 109.265 480.351 108.171 484.876C105.531 495.748 105.166 506.768 107.479 517.963C108.309 522.018 109.662 525.885 111.847 529.425C112.558 530.64 113.339 531.794 114.223 532.89C119.686 539.626 126.471 543.509 134.777 543.958C139.226 544.193 143.141 542.824 146.498 539.862C149.261 537.434 151.416 534.457 153.363 531.309C155.323 528.156 157.259 524.979 159.175 521.793C161.247 518.362 164.116 516.245 168.05 515.608C171.071 515.127 174.086 514.632 177.039 513.859C181.304 512.739 185.312 511.082 188.796 508.288C193.943 504.153 197.044 498.605 198.581 491.993C199.572 487.726 199.386 483.385 198.483 479.022C197.229 473.035 194.813 467.656 190.794 463.006C185.887 457.328 179.963 453.275 173.247 450.455ZM189.332 480.113C189.982 483.467 190.026 486.84 189.11 490.171C187.681 495.331 185.612 498.124 181.249 501.447C178.291 503.699 174.932 505.085 171.381 506.059C168.912 506.743 166.398 507.192 163.898 507.636C160.618 508.218 157.733 508.763 155.947 511.478C154.274 513.998 152.595 516.504 150.897 519C149.198 521.496 147.193 524.415 145.458 526.976C143.399 529.999 141.084 534.097 135.931 534.391C127.558 534.857 117.751 529.239 115.267 509.921C114.439 498.06 114.162 494.493 116.599 485.999C117.622 482.459 119.065 479.106 120.788 475.828C122.131 473.27 123.475 470.712 125.247 468.405C127.2 465.876 130.508 462.949 132.821 460.9C133.498 460.299 134.192 459.741 134.967 459.269C142.221 454.81 150.626 455.07 158.727 455.919C163.206 456.394 164.912 457.017 169.115 458.556C174.608 460.58 179.412 463.579 183.36 467.887C186.565 471.38 188.44 475.495 189.332 480.113ZM98.3446 485.728C98.5543 483.447 97.965 481.294 96.9712 479.234C95.526 476.259 93.4138 473.832 90.563 471.325C89.6797 470.514 88.2669 469.474 86.8006 468.538C82.7065 465.949 78.3193 464.18 73.6779 463.248C69.4956 462.406 65.3532 462.269 61.276 463.466C58.9328 464.151 56.8126 465.285 55.2164 467.238C52.9193 470.053 52.6054 473.315 53.7621 476.839C55.0792 480.854 57.7233 483.879 60.7822 486.555C62.7805 488.289 64.9583 489.717 67.2429 490.935C72.6406 493.802 78.2732 495.418 84.2395 495.393C87.5409 495.39 90.7273 494.811 93.577 493.088C96.2801 491.473 98.0489 489.117 98.3446 485.728ZM91.5947 483.425C91.4021 485.549 90.2956 487.024 88.6014 488.041C86.8096 489.131 83.1401 489.278 81.0672 489.286C77.3272 489.294 73.7869 488.283 70.4112 486.486C68.9802 485.721 67.6106 484.832 66.3534 483.748C64.4244 482.071 61.9962 479.197 61.1659 476.669C60.4414 474.453 60.6352 472.413 62.0723 470.657C63.0698 469.426 66.0846 468.931 67.5482 468.491C70.1016 467.741 71.7917 468.605 74.4204 469.134C77.3378 469.718 80.0815 470.823 82.6514 472.45C83.5698 473.029 84.4564 473.688 85.0145 474.191C86.8105 475.769 89.8066 477.48 90.7129 479.357C91.3587 480.648 91.7284 481.997 91.5947 483.425ZM77.0195 452.52C81.3562 456.978 86.3222 460.35 92.0606 462.278C95.2452 463.344 98.4796 463.854 101.739 463.179C104.823 462.539 107.213 460.93 108.525 457.847C109.399 455.775 109.478 453.562 109.134 451.313C108.631 448.053 107.317 445.094 105.322 441.798C104.712 440.762 103.672 439.307 102.532 437.958C99.3592 434.185 95.6638 431.086 91.4708 428.687C87.687 426.529 83.7398 425.04 79.4701 424.819C77.0006 424.698 74.6392 425.054 72.5076 426.36C69.4545 428.247 68.1791 431.181 68.2494 434.863C68.3323 439.061 69.9687 442.766 72.1232 446.268C73.4932 448.567 75.1586 450.615 77.0195 452.52ZM75.4243 437.167C75.3896 434.864 76.1892 433.006 78.0924 431.839C79.4218 431.015 82.4699 431.531 84.012 431.614C86.6929 431.754 88.0718 433.109 90.4405 434.462C93.0717 435.964 95.3883 437.909 97.3789 440.266C98.0871 441.113 98.7442 442.03 99.1399 442.68C100.4 444.737 102.772 447.348 103.096 449.386C103.316 450.793 103.264 452.19 102.715 453.48C101.897 455.413 100.389 456.424 98.4698 456.825C96.422 457.259 92.8397 456.181 90.8507 455.518C87.2445 454.298 84.1415 452.193 81.4155 449.402C80.2583 448.211 79.2068 446.928 78.3313 445.493C76.9488 443.283 75.458 439.789 75.4243 437.167ZM165.298 393.802C162.327 391.712 159.221 391.169 155.985 392.708C153.735 393.792 152.128 395.597 150.87 397.77C148.684 401.515 147.711 405.707 147.369 410.105C147.001 414.999 147.48 419.847 148.8 424.633C149.27 426.362 149.878 428.037 150.384 429.131C151.966 432.656 153.638 435.407 156.035 437.639C157.694 439.187 159.531 440.346 161.716 440.747C164.952 441.34 167.604 440.199 169.818 437.936C172.187 435.546 173.549 432.511 174.443 429.205C176.05 423.254 176.05 417.177 174.808 411.018C174.289 408.402 173.54 405.842 172.459 403.396C170.8 399.633 168.687 396.198 165.298 393.802ZM169.853 413.03C170.623 416.891 170.632 420.697 169.622 424.434C169.062 426.5 167.947 430.127 166.459 431.634C165.064 433.054 163.41 433.771 161.375 433.394C160.004 433.144 158.856 432.419 157.817 431.451C156.328 430.055 155.526 426.593 154.535 424.38C154.216 423.683 153.839 422.639 153.544 421.562C152.719 418.563 152.413 415.527 152.642 412.45C152.85 409.682 152.492 407.758 153.869 405.405C154.661 404.053 155.927 401.173 157.332 400.504C159.362 399.54 161.299 399.87 163.166 401.186C165.292 402.684 167.314 405.886 168.361 408.244C169.057 409.784 169.51 411.385 169.853 413.03ZM111.361 433.184C113.663 436.258 115.905 438.534 118.702 440.139C120.628 441.246 122.67 441.922 124.85 441.788C128.099 441.57 130.381 439.802 132.018 437.028C133.751 434.098 134.388 430.776 134.515 427.319C134.719 421.079 133.358 415.1 130.792 409.376C129.697 406.936 128.409 404.605 126.816 402.46C124.363 399.16 121.548 396.303 117.768 394.799C114.448 393.467 111.336 393.714 108.574 396.024C106.642 397.638 105.515 399.826 104.784 402.262C103.524 406.483 103.524 410.83 104.191 415.235C104.939 420.128 106.487 424.774 108.823 429.144C109.676 430.723 110.626 432.23 111.361 433.184ZM109.785 416.228C109.368 413.471 108.597 411.659 109.388 409.015C109.847 407.492 110.412 404.35 111.621 403.338C113.35 401.887 115.306 401.741 117.39 402.568C119.773 403.513 122.442 406.158 123.973 408.226C124.968 409.564 125.775 411.027 126.465 412.552C128.075 416.15 128.939 419.89 128.801 423.804C128.738 425.977 128.46 429.813 127.389 431.66C126.365 433.388 124.93 434.505 122.895 434.649C121.528 434.733 120.247 434.312 119.031 433.615C117.27 432.61 115.734 429.403 114.292 427.484C113.826 426.895 113.232 425.937 112.705 424.952C111.225 422.209 110.241 419.289 109.785 416.228Z"  style="mix-blend-mode:normal" fill="#C2ECD6" ></path></g><path d="M288.542 383.921C289.432 387.595 291.745 390.765 294.973 392.734C298.201 394.703 302.078 395.309 305.752 394.419C309.427 393.529 312.597 391.215 314.566 387.988C316.534 384.76 317.14 380.883 316.25 377.208C315.809 375.389 315.015 373.674 313.911 372.162C312.808 370.65 311.417 369.37 309.819 368.395C308.221 367.42 306.447 366.77 304.597 366.481C302.747 366.192 300.859 366.27 299.04 366.711C297.22 367.151 295.506 367.946 293.994 369.05C292.481 370.153 291.201 371.543 290.227 373.142C289.252 374.74 288.601 376.514 288.312 378.364C288.023 380.213 288.101 382.102 288.542 383.921Z"  style="mix-blend-mode:normal" fill="#C2ECD6" ></path><path d="M308.999 407.161C308.661 407.243 308.305 407.187 308.008 407.006C307.711 406.825 307.498 406.534 307.416 406.196L294.913 354.586C294.831 354.248 294.887 353.892 295.068 353.595C295.249 353.298 295.541 353.085 295.879 353.003C296.217 352.921 296.574 352.977 296.871 353.158C297.167 353.339 297.38 353.631 297.462 353.969L309.965 405.578C310.047 405.916 309.991 406.273 309.81 406.57C309.629 406.867 309.337 407.079 308.999 407.161Z"  style="mix-blend-mode:normal" fill="#67B3DB" ></path><path d="M299.704 368.791C299.536 368.831 299.363 368.838 299.192 368.812C299.022 368.785 298.859 368.725 298.712 368.636L289.198 362.832C288.905 362.649 288.695 362.358 288.616 362.022C288.536 361.686 288.592 361.332 288.772 361.037C288.952 360.742 289.241 360.53 289.577 360.447C289.912 360.364 290.266 360.416 290.563 360.593L298.958 365.714L304.079 357.319C304.169 357.172 304.287 357.044 304.426 356.943C304.565 356.841 304.722 356.768 304.89 356.727C305.057 356.687 305.231 356.68 305.401 356.706C305.571 356.733 305.734 356.793 305.881 356.882C306.028 356.972 306.156 357.09 306.258 357.229C306.359 357.368 306.432 357.526 306.473 357.693C306.513 357.86 306.521 358.034 306.494 358.204C306.468 358.374 306.408 358.537 306.318 358.684L300.514 368.199C300.333 368.496 300.042 368.709 299.704 368.791ZM299.704 402.264C299.452 402.325 299.188 402.31 298.944 402.221C298.701 402.132 298.489 401.972 298.336 401.763C298.183 401.553 298.096 401.303 298.085 401.044C298.075 400.785 298.141 400.529 298.276 400.307L304.08 390.793C304.169 390.646 304.287 390.518 304.426 390.416C304.565 390.315 304.723 390.241 304.89 390.201C305.058 390.16 305.231 390.153 305.401 390.18C305.572 390.206 305.735 390.266 305.882 390.356L315.396 396.159C315.693 396.341 315.906 396.632 315.988 396.97C316.07 397.308 316.014 397.665 315.833 397.962C315.652 398.259 315.36 398.471 315.022 398.553C314.684 398.635 314.328 398.579 314.031 398.398L305.636 393.277L300.515 401.673C300.425 401.82 300.308 401.948 300.169 402.049C300.03 402.151 299.872 402.224 299.704 402.264ZM328.22 388.845C327.996 388.9 327.763 388.894 327.543 388.829L276.596 373.852C276.43 373.804 276.275 373.724 276.14 373.616C276.004 373.508 275.892 373.375 275.809 373.223C275.725 373.072 275.673 372.905 275.654 372.733C275.635 372.561 275.651 372.387 275.7 372.221C275.748 372.055 275.829 371.901 275.938 371.766C276.047 371.632 276.181 371.52 276.333 371.438C276.485 371.356 276.652 371.304 276.824 371.287C276.996 371.269 277.17 371.286 277.336 371.336L328.282 386.312C328.616 386.411 328.897 386.637 329.063 386.943C329.23 387.248 329.268 387.607 329.17 387.94C329.105 388.161 328.983 388.362 328.816 388.52C328.65 388.679 328.444 388.791 328.22 388.845Z"  style="mix-blend-mode:normal" fill="#67B3DB" ></path><path d="M280.559 383.049C280.25 383.124 279.924 383.083 279.642 382.936C279.36 382.788 279.141 382.543 279.027 382.246C278.912 381.949 278.91 381.621 279.019 381.322C279.129 381.023 279.344 380.775 279.623 380.623L288.256 375.913L283.546 367.28C283.379 366.975 283.341 366.616 283.439 366.283C283.537 365.949 283.763 365.668 284.069 365.501C284.22 365.419 284.386 365.367 284.557 365.349C284.728 365.33 284.901 365.346 285.066 365.394C285.232 365.443 285.386 365.523 285.52 365.632C285.654 365.74 285.765 365.873 285.848 366.024L291.186 375.807C291.268 375.959 291.32 376.125 291.338 376.296C291.357 376.467 291.341 376.64 291.293 376.805C291.244 376.971 291.164 377.125 291.055 377.259C290.947 377.393 290.814 377.504 290.663 377.587L280.879 382.925C280.778 382.98 280.671 383.021 280.559 383.049ZM319.332 394.447C319.051 394.514 318.756 394.488 318.492 394.371C318.229 394.254 318.011 394.053 317.873 393.8L312.535 384.016C312.368 383.711 312.33 383.352 312.428 383.019C312.526 382.685 312.753 382.404 313.058 382.237L322.841 376.899C323.147 376.734 323.505 376.697 323.837 376.795C324.17 376.894 324.45 377.12 324.616 377.425C324.783 377.729 324.821 378.087 324.724 378.42C324.627 378.753 324.401 379.034 324.097 379.201L315.465 383.912L320.175 392.544C320.271 392.72 320.326 392.917 320.334 393.118C320.342 393.319 320.304 393.519 320.223 393.703C320.141 393.887 320.018 394.05 319.864 394.179C319.709 394.308 319.527 394.4 319.332 394.447ZM283.527 399.673C283.247 399.741 282.951 399.714 282.687 399.598C282.423 399.481 282.205 399.28 282.066 399.027C281.928 398.773 281.877 398.481 281.922 398.196C281.966 397.911 282.104 397.648 282.313 397.449L320.756 360.817C321.008 360.58 321.344 360.452 321.69 360.461C322.036 360.471 322.365 360.617 322.604 360.867C322.843 361.118 322.973 361.453 322.965 361.799C322.958 362.145 322.814 362.475 322.565 362.715L284.122 399.348C283.956 399.506 283.751 399.618 283.527 399.673Z"  style="mix-blend-mode:normal" fill="#67B3DB" ></path><path d="M323.251 372.706C323.141 372.733 323.027 372.745 322.91 372.742L311.768 372.474C311.42 372.465 311.09 372.319 310.85 372.067C310.61 371.816 310.48 371.479 310.489 371.131L310.757 359.99C310.767 359.643 310.913 359.314 311.165 359.075C311.417 358.836 311.753 358.707 312.1 358.715C312.446 358.723 312.776 358.869 313.016 359.12C313.255 359.37 313.386 359.706 313.379 360.053L313.142 369.884L322.973 370.121C323.291 370.128 323.595 370.251 323.83 370.467C324.064 370.682 324.212 370.975 324.246 371.292C324.28 371.608 324.198 371.926 324.014 372.186C323.831 372.446 323.56 372.631 323.251 372.706ZM293.993 400.585C293.798 400.633 293.594 400.635 293.397 400.591C293.201 400.547 293.017 400.458 292.861 400.332C292.704 400.206 292.579 400.045 292.494 399.862C292.409 399.68 292.368 399.48 292.373 399.279L292.61 389.448L282.779 389.211C282.432 389.202 282.103 389.055 281.864 388.803C281.625 388.552 281.496 388.216 281.504 387.869C281.513 387.522 281.658 387.192 281.909 386.953C282.16 386.713 282.495 386.582 282.842 386.589L293.984 386.858C294.332 386.867 294.662 387.013 294.902 387.264C295.141 387.516 295.272 387.853 295.263 388.201L294.994 399.342C294.987 399.631 294.886 399.909 294.705 400.134C294.524 400.358 294.274 400.517 293.993 400.585Z"  style="mix-blend-mode:normal" fill="#67B3DB" ></path><path d="M28.439 175.852C27.4519 180.795 28.469 185.928 31.2665 190.121C34.0639 194.315 38.4125 197.225 43.3557 198.212C48.299 199.199 53.4318 198.182 57.6251 195.385C61.8185 192.587 64.7288 188.238 65.7158 183.295C66.2045 180.848 66.2064 178.328 65.7213 175.879C65.2361 173.431 64.2735 171.102 62.8883 169.026C61.5032 166.95 59.7226 165.166 57.6484 163.778C55.5741 162.39 53.2467 161.424 50.799 160.935C48.3514 160.446 45.8315 160.445 43.3831 160.93C40.9348 161.415 38.606 162.378 36.5297 163.763C34.4533 165.148 32.6702 166.928 31.282 169.003C29.8938 171.077 28.9277 173.404 28.439 175.852Z"  style="mix-blend-mode:normal" fill="#9EDAF1" ></path><path d="M40.1261 215.445C39.6714 215.354 39.2714 215.087 39.0141 214.701C38.7568 214.315 38.6632 213.843 38.754 213.388L52.618 143.956C52.7088 143.501 52.9765 143.101 53.3622 142.844C53.7479 142.587 54.2201 142.493 54.6748 142.584C55.1295 142.675 55.5295 142.942 55.7868 143.328C56.0441 143.714 56.1377 144.186 56.0469 144.641L42.1829 214.073C42.0921 214.528 41.8244 214.928 41.4387 215.185C41.053 215.442 40.5808 215.536 40.1261 215.445Z"  style="mix-blend-mode:normal" fill="#67B3DB" ></path><path d="M50.4338 163.823C50.2087 163.778 49.9946 163.689 49.8037 163.562C49.6129 163.434 49.4491 163.27 49.3217 163.079L41.0753 150.717C40.8235 150.332 40.7341 149.862 40.8266 149.411C40.919 148.96 41.1858 148.563 41.569 148.307C41.9522 148.052 42.4209 147.958 42.873 148.046C43.3252 148.134 43.7244 148.396 43.9839 148.777L51.2602 159.685L62.1675 152.408C62.3585 152.281 62.5727 152.192 62.7979 152.147C63.0231 152.103 63.2549 152.103 63.48 152.148C63.7052 152.193 63.9193 152.282 64.1101 152.409C64.3009 152.537 64.4647 152.701 64.5921 152.892C64.7195 153.083 64.8081 153.297 64.8527 153.522C64.8974 153.748 64.8972 153.979 64.8523 154.205C64.8073 154.43 64.7185 154.644 64.5908 154.835C64.4631 155.025 64.2991 155.189 64.1081 155.317L51.7464 163.563C51.3606 163.82 50.8885 163.914 50.4338 163.823ZM31.636 204.303C31.2968 204.235 30.9854 204.069 30.741 203.824C30.4966 203.579 30.3303 203.268 30.2631 202.929C30.1958 202.589 30.2307 202.238 30.3633 201.918C30.4959 201.599 30.7203 201.326 31.008 201.134L43.3694 192.888C43.5604 192.76 43.7746 192.672 43.9998 192.627C44.225 192.582 44.4568 192.582 44.682 192.627C44.9072 192.672 45.1213 192.761 45.3121 192.889C45.5029 193.017 45.6667 193.181 45.7942 193.372L54.0408 205.733C54.298 206.119 54.3915 206.591 54.3008 207.046C54.21 207.501 53.9423 207.901 53.5567 208.158C53.1708 208.415 52.6987 208.509 52.2441 208.418C51.7894 208.327 51.3894 208.059 51.1319 207.674L43.8556 196.766L32.9484 204.043C32.7576 204.171 32.5434 204.259 32.3182 204.304C32.0929 204.349 31.8611 204.348 31.636 204.303ZM73.6555 204.09C73.3551 204.03 73.0758 203.892 72.8458 203.689L19.6478 156.966C19.4735 156.815 19.3309 156.632 19.228 156.425C19.1252 156.219 19.0642 155.994 19.0485 155.764C19.0328 155.534 19.0628 155.303 19.1367 155.085C19.2106 154.866 19.327 154.665 19.4792 154.492C19.6313 154.318 19.8162 154.177 20.0233 154.075C20.2303 153.974 20.4554 153.914 20.6855 153.9C20.9156 153.886 21.1463 153.918 21.3642 153.993C21.5821 154.068 21.7829 154.186 21.9552 154.339L75.1531 201.062C75.5014 201.368 75.714 201.8 75.744 202.262C75.774 202.725 75.619 203.181 75.3131 203.529C75.1104 203.76 74.8505 203.934 74.5595 204.032C74.2685 204.13 73.9567 204.15 73.6555 204.09Z"  style="mix-blend-mode:normal" fill="#67B3DB" ></path><path d="M19.2753 170.314C18.8592 170.231 18.4875 169.999 18.2295 169.663C17.9714 169.326 17.8447 168.907 17.8729 168.483C17.9012 168.06 18.0824 167.661 18.3828 167.362C18.6832 167.062 19.0823 166.882 19.5058 166.855L32.5901 166.007L31.7422 152.923C31.7122 152.46 31.8672 152.005 32.1732 151.656C32.4791 151.308 32.9109 151.095 33.3736 151.065C33.6027 151.05 33.8325 151.081 34.0499 151.154C34.2672 151.228 34.4679 151.344 34.6404 151.496C34.8129 151.647 34.9539 151.831 35.0553 152.037C35.1567 152.243 35.2165 152.467 35.2313 152.697L36.1923 167.525C36.2072 167.754 36.1768 167.984 36.1029 168.201C36.0289 168.419 35.9129 168.619 35.7614 168.792C35.6099 168.964 35.4259 169.105 35.2199 169.207C35.0139 169.308 34.79 169.368 34.5609 169.383L19.7318 170.344C19.579 170.354 19.4255 170.344 19.2753 170.314ZM59.7614 205.872C59.3842 205.796 59.0425 205.598 58.7892 205.309C58.5359 205.019 58.3852 204.654 58.3603 204.27L57.3995 189.442C57.3696 188.979 57.5246 188.523 57.8306 188.175C58.1366 187.827 58.5685 187.614 59.0312 187.584L73.8602 186.623C74.322 186.595 74.7762 186.751 75.1232 187.057C75.4703 187.362 75.682 187.793 75.7119 188.255C75.7418 188.717 75.5875 189.171 75.2828 189.52C74.9781 189.868 74.5478 190.081 74.0862 190.112L61.0019 190.96L61.8498 204.044C61.8672 204.312 61.8227 204.58 61.7198 204.828C61.617 205.076 61.4584 205.297 61.2565 205.474C61.0546 205.65 60.8147 205.778 60.5554 205.847C60.2962 205.916 60.0245 205.925 59.7614 205.872ZM13.5285 192.084C13.1509 192.009 12.8086 191.811 12.5548 191.522C12.3009 191.232 12.1498 190.867 12.1247 190.483C12.0997 190.099 12.2021 189.717 12.4162 189.397C12.6303 189.077 12.944 188.836 13.3087 188.713L80.3705 166.004C80.8088 165.858 81.2867 165.892 81.6999 166.098C82.1131 166.304 82.4282 166.665 82.5762 167.102C82.7243 167.54 82.6934 168.018 82.4903 168.432C82.2872 168.847 81.9284 169.164 81.4921 169.315L14.4302 192.025C14.1401 192.124 13.829 192.144 13.5285 192.084Z"  style="mix-blend-mode:normal" fill="#67B3DB" ></path><path d="M76.71 181.782C76.5631 181.753 76.4177 181.704 76.2773 181.635L62.9546 175.052C62.5389 174.847 62.2218 174.485 62.0731 174.046C61.9244 173.607 61.9562 173.126 62.1615 172.711L68.7434 159.388C68.9498 158.974 69.3118 158.659 69.7502 158.511C70.1887 158.363 70.6678 158.396 71.0826 158.6C71.4973 158.805 71.814 159.166 71.9631 159.604C72.1123 160.042 72.0818 160.521 71.8783 160.937L66.0707 172.692L77.8257 178.5C78.2063 178.687 78.5056 179.007 78.6679 179.399C78.8302 179.791 78.8445 180.229 78.7079 180.631C78.5714 181.032 78.2934 181.371 77.9258 181.583C77.5582 181.794 77.1261 181.865 76.71 181.782ZM25.6725 199.065C25.4094 199.013 25.1618 198.901 24.949 198.737C24.7362 198.574 24.5639 198.364 24.4453 198.123C24.3268 197.882 24.2652 197.618 24.2654 197.349C24.2656 197.081 24.3275 196.816 24.4464 196.576L30.2541 184.821L18.499 179.013C18.0849 178.807 17.7695 178.445 17.6219 178.006C17.4743 177.568 17.5064 177.089 17.7113 176.674C17.9162 176.259 18.2772 175.942 18.7151 175.793C19.153 175.644 19.6322 175.675 20.0477 175.878L33.3704 182.46C33.7861 182.666 34.1032 183.028 34.2519 183.467C34.4007 183.906 34.3688 184.386 34.1635 184.802L27.5813 198.125C27.4109 198.47 27.1315 198.749 26.7865 198.919C26.4414 199.089 26.0499 199.14 25.6725 199.065Z"  style="mix-blend-mode:normal" fill="#67B3DB" ></path></svg>