<svg xmlns="http://www.w3.org/2000/svg" xmlns:xlink="http://www.w3.org/1999/xlink" width="56.04296875" height="52.79999542236328" viewBox="0 0 56.04296875 52.79999542236328" fill="none"><path d="M39.1675 38.643L26.2902 26.829L26.2902 9.636L29.78 9.636L29.78 25.443L41.5929 36.267L39.1675 38.643ZM28.1747 52.5195C24.5015 52.5266 20.8629 51.8481 17.4674 50.523C14.072 49.1979 10.9865 47.2523 8.38766 44.7975L10.8654 42.471C14.8469 46.2364 20.0819 48.5854 25.6844 49.1206C31.2868 49.6558 36.9128 48.3443 41.6103 45.408L43.5297 48.1635C38.9718 51.0038 33.6333 52.5182 28.1747 52.5195ZM51.4166 40.689L48.5201 38.874C51.623 34.4301 53.007 29.109 52.4378 23.8111C51.8687 18.5132 49.3813 13.564 45.3967 9.801L47.8745 7.4745C52.421 11.7775 55.2566 17.4331 55.902 23.4851C56.5475 29.5371 54.963 35.6143 51.4166 40.689Z"  style="mix-blend-mode:normal" fill="#000000" ></path><path d="M56.0407 26.1525L52.5509 26.1525C52.5151 20.8095 50.5356 15.641 46.945 11.5155C43.3544 7.39002 38.3715 4.55893 32.8337 3.498L33.5316 0.198001C39.8694 1.4134 45.5696 4.6592 49.6703 9.3876C53.771 14.116 56.0211 20.0374 56.0407 26.1525ZM27.948 52.536C21.0245 52.5426 14.3455 50.1163 9.2074 45.7281C4.06934 41.3399 0.838839 35.303 0.143041 28.7892C-0.552756 22.2754 1.33579 15.7495 5.44205 10.4783C9.54832 5.20714 15.5793 1.56681 22.3643 0.264001L23.0623 3.564C17.1974 4.76852 12.0066 7.9725 8.4802 12.5647C4.95379 17.157 3.33853 22.8161 3.94255 28.4626C4.54657 34.109 7.32759 39.3476 11.7551 43.179C16.1826 47.0105 21.9468 49.1665 27.948 49.236L27.948 52.536Z"  style="mix-blend-mode:normal" fill="#000000" ></path></svg>