<svg xmlns="http://www.w3.org/2000/svg" xmlns:xlink="http://www.w3.org/1999/xlink" width="40" height="40" viewBox="0 0 40 40" fill="none"><path d="M20 4.62179C28.4826 4.62179 35.3784 11.5174 35.3784 20C35.3784 28.4826 28.4826 35.3784 20 35.3784C11.5174 35.3784 4.62179 28.4826 4.62179 20C4.62179 11.5174 11.5174 4.62179 20 4.62179ZM20 1.23999C9.64699 1.23999 1.23999 9.64699 1.23999 20C1.23999 30.353 9.64699 38.76 20 38.76C30.353 38.76 38.76 30.353 38.76 20C38.76 9.64699 30.353 1.23999 20 1.23999Z"  style="mix-blend-mode:normal" fill="#000000" ></path><path d="M30.4286 21.6814L9.57142 21.6814C8.83462 21.6814 8.24902 20.9258 8.24902 20C8.24902 19.0744 8.83462 18.3186 9.57142 18.3186L30.4094 18.3186C31.1464 18.3186 31.7318 19.0742 31.7318 20C31.751 20.9446 31.1464 21.6814 30.4286 21.6814Z"  style="mix-blend-mode:normal" fill="#000000" ></path><path d="M18.3186 30.4286L18.3186 9.57142C18.3186 8.83462 19.0742 8.24902 20 8.24902C20.9258 8.24902 21.6814 8.83462 21.6814 9.57142L21.6814 30.4094C21.6814 31.1464 20.9258 31.7318 20 31.7318C19.0554 31.751 18.3186 31.1464 18.3186 30.4286Z"  style="mix-blend-mode:normal" fill="#000000" ></path></svg>