<svg xmlns="http://www.w3.org/2000/svg" xmlns:xlink="http://www.w3.org/1999/xlink" width="389.22662353515625" height="663.5001220703125" viewBox="0 0 389.22662353515625 663.5001220703125" fill="none"><path d="M276.321 419.153C275.56 423.498 276.557 427.967 279.092 431.576C281.626 435.186 285.491 437.641 289.836 438.401C294.18 439.162 298.649 438.165 302.259 435.63C305.868 433.096 308.324 429.231 309.084 424.886C309.46 422.735 309.409 420.531 308.934 418.399C308.458 416.268 307.568 414.251 306.313 412.463C305.058 410.676 303.463 409.153 301.62 407.982C299.776 406.811 297.72 406.015 295.569 405.638C293.418 405.262 291.213 405.313 289.082 405.788C286.95 406.264 284.933 407.154 283.146 408.409C281.358 409.664 279.836 411.259 278.665 413.102C277.494 414.946 276.697 417.002 276.321 419.153Z"  style="mix-blend-mode:normal" fill="#9EDAF1" ></path><path d="M287.37 453.543C286.97 453.473 286.615 453.248 286.382 452.916C286.148 452.583 286.057 452.172 286.127 451.773L296.806 390.748C296.876 390.348 297.102 389.992 297.434 389.759C297.766 389.526 298.177 389.434 298.576 389.504C298.976 389.574 299.332 389.8 299.565 390.132C299.798 390.464 299.89 390.875 299.82 391.275L289.141 452.3C289.071 452.7 288.845 453.055 288.513 453.288C288.181 453.522 287.77 453.613 287.37 453.543Z"  style="mix-blend-mode:normal" fill="#67B3DB" ></path><path d="M295.31 408.172C295.112 408.138 294.923 408.064 294.753 407.957C294.583 407.849 294.437 407.709 294.321 407.544L286.85 396.903C286.622 396.571 286.534 396.162 286.605 395.765C286.676 395.369 286.902 395.016 287.232 394.785C287.561 394.553 287.969 394.461 288.367 394.528C288.764 394.596 289.119 394.818 289.354 395.145L295.946 404.535L305.336 397.942C305.5 397.826 305.685 397.744 305.882 397.701C306.078 397.657 306.28 397.652 306.478 397.687C306.676 397.721 306.865 397.795 307.035 397.902C307.204 398.01 307.351 398.15 307.467 398.315C307.582 398.479 307.664 398.665 307.708 398.861C307.751 399.057 307.756 399.259 307.722 399.457C307.687 399.655 307.614 399.844 307.506 400.014C307.398 400.184 307.258 400.33 307.094 400.446L296.452 407.917C296.12 408.15 295.709 408.242 295.31 408.172ZM279.711 443.974C279.413 443.922 279.137 443.783 278.918 443.574C278.699 443.365 278.547 443.096 278.481 442.8C278.415 442.505 278.438 442.197 278.548 441.915C278.657 441.633 278.848 441.389 279.095 441.215L289.736 433.744C289.901 433.628 290.086 433.546 290.282 433.502C290.478 433.459 290.681 433.454 290.879 433.489C291.077 433.523 291.266 433.596 291.436 433.704C291.605 433.812 291.752 433.952 291.868 434.116L299.339 444.758C299.572 445.09 299.664 445.501 299.594 445.9C299.524 446.3 299.298 446.656 298.966 446.889C298.634 447.122 298.223 447.213 297.823 447.143C297.424 447.073 297.068 446.848 296.835 446.516L290.243 437.126L280.853 443.719C280.689 443.835 280.504 443.917 280.307 443.961C280.111 444.004 279.909 444.009 279.711 443.974ZM316.463 442.911C316.199 442.865 315.952 442.75 315.746 442.578L268.236 402.816C268.081 402.688 267.952 402.53 267.858 402.352C267.764 402.173 267.706 401.978 267.687 401.777C267.669 401.576 267.69 401.374 267.75 401.181C267.81 400.988 267.908 400.81 268.037 400.655C268.167 400.5 268.326 400.373 268.505 400.28C268.684 400.186 268.879 400.13 269.08 400.113C269.281 400.095 269.484 400.118 269.676 400.18C269.868 400.241 270.046 400.34 270.2 400.47L317.71 440.231C318.021 440.491 318.216 440.865 318.252 441.269C318.288 441.673 318.162 442.075 317.901 442.386C317.729 442.592 317.505 442.749 317.252 442.841C317 442.934 316.728 442.958 316.463 442.911Z"  style="mix-blend-mode:normal" fill="#67B3DB" ></path><path d="M268.189 414.5C267.823 414.436 267.493 414.241 267.261 413.952C267.028 413.663 266.908 413.299 266.924 412.928C266.94 412.557 267.09 412.204 267.347 411.936C267.603 411.668 267.949 411.502 268.319 411.469L279.746 410.454L278.732 399.027C278.696 398.623 278.822 398.221 279.082 397.91C279.343 397.599 279.716 397.404 280.12 397.368C280.32 397.35 280.522 397.372 280.714 397.432C280.905 397.492 281.083 397.589 281.237 397.718C281.391 397.847 281.518 398.005 281.611 398.183C281.704 398.361 281.761 398.556 281.779 398.756L282.929 411.707C282.947 411.908 282.925 412.109 282.865 412.301C282.805 412.493 282.708 412.671 282.579 412.825C282.45 412.979 282.292 413.106 282.114 413.199C281.936 413.292 281.741 413.349 281.541 413.367L268.589 414.517C268.456 414.529 268.321 414.523 268.189 414.5ZM304.346 444.76C304.015 444.701 303.712 444.535 303.484 444.287C303.256 444.039 303.117 443.723 303.087 443.388L301.937 430.437C301.902 430.032 302.028 429.631 302.288 429.319C302.548 429.008 302.922 428.813 303.326 428.778L316.278 427.628C316.681 427.593 317.081 427.72 317.391 427.98C317.701 428.241 317.896 428.613 317.931 429.017C317.967 429.42 317.842 429.821 317.582 430.132C317.323 430.443 316.951 430.638 316.548 430.675L305.12 431.69L306.135 443.118C306.156 443.351 306.122 443.587 306.038 443.806C305.953 444.025 305.819 444.221 305.646 444.38C305.473 444.539 305.266 444.656 305.04 444.721C304.815 444.787 304.577 444.8 304.346 444.76ZM263.616 433.663C263.284 433.605 262.981 433.44 262.753 433.192C262.525 432.944 262.385 432.627 262.355 432.292C262.325 431.956 262.407 431.62 262.587 431.336C262.768 431.051 263.037 430.835 263.354 430.719L321.542 409.455C321.923 409.319 322.341 409.339 322.707 409.51C323.073 409.681 323.356 409.991 323.495 410.37C323.633 410.749 323.616 411.168 323.447 411.535C323.278 411.902 322.971 412.187 322.592 412.328L264.404 433.593C264.152 433.685 263.88 433.709 263.616 433.663Z"  style="mix-blend-mode:normal" fill="#67B3DB" ></path><path d="M318.669 423.334C318.54 423.311 318.412 423.271 318.288 423.213L306.497 417.734C306.129 417.563 305.844 417.252 305.704 416.871C305.565 416.49 305.583 416.07 305.754 415.702L311.233 403.91C311.405 403.544 311.715 403.261 312.096 403.122C312.476 402.984 312.896 403.002 313.263 403.173C313.63 403.343 313.915 403.652 314.054 404.032C314.194 404.412 314.177 404.832 314.008 405.2L309.173 415.604L319.577 420.439C319.914 420.595 320.182 420.869 320.332 421.208C320.483 421.548 320.504 421.93 320.393 422.284C320.282 422.639 320.046 422.94 319.729 423.134C319.412 423.327 319.035 423.398 318.669 423.334ZM274.385 439.517C274.154 439.476 273.935 439.383 273.745 439.245C273.556 439.106 273.4 438.926 273.292 438.718C273.183 438.51 273.124 438.28 273.118 438.045C273.113 437.81 273.161 437.578 273.26 437.365L278.095 426.961L267.692 422.125C267.325 421.954 267.042 421.643 266.903 421.263C266.765 420.883 266.783 420.463 266.954 420.096C267.124 419.729 267.433 419.444 267.813 419.305C268.193 419.165 268.613 419.182 268.981 419.351L280.772 424.831C281.14 425.002 281.425 425.312 281.564 425.693C281.704 426.074 281.686 426.495 281.515 426.863L276.035 438.654C275.893 438.959 275.655 439.209 275.356 439.365C275.058 439.521 274.717 439.574 274.385 439.517Z"  style="mix-blend-mode:normal" fill="#67B3DB" ></path><path d="M96.7073 630.981C97.5974 634.655 99.9107 637.825 103.138 639.794C106.366 641.763 110.243 642.369 113.918 641.479C117.592 640.589 120.762 638.275 122.731 635.048C124.699 631.82 125.305 627.943 124.415 624.268C123.975 622.449 123.18 620.734 122.076 619.222C120.973 617.71 119.582 616.43 117.984 615.455C116.386 614.48 114.612 613.83 112.762 613.541C110.913 613.252 109.024 613.33 107.205 613.771C105.386 614.211 103.671 615.006 102.159 616.11C100.647 617.213 99.3666 618.604 98.3918 620.202C97.417 621.8 96.7665 623.574 96.4775 625.424C96.1884 627.273 96.2665 629.162 96.7073 630.981Z"  style="mix-blend-mode:normal" fill="#C2ECD6" ></path><path d="M117.165 654.221C116.827 654.303 116.47 654.247 116.173 654.066C115.876 653.885 115.663 653.594 115.581 653.256L103.079 601.646C102.997 601.308 103.052 600.952 103.234 600.655C103.415 600.358 103.706 600.145 104.044 600.063C104.382 599.981 104.739 600.037 105.036 600.218C105.333 600.399 105.545 600.691 105.627 601.029L118.13 652.638C118.212 652.976 118.156 653.333 117.975 653.63C117.794 653.927 117.502 654.139 117.165 654.221Z"  style="mix-blend-mode:normal" fill="#67B3DB" ></path><path d="M107.869 615.851C107.702 615.891 107.528 615.898 107.358 615.872C107.188 615.845 107.024 615.785 106.877 615.696L97.3629 609.892C97.0698 609.709 96.8606 609.418 96.781 609.082C96.7013 608.746 96.7575 608.392 96.9374 608.097C97.1174 607.802 97.4064 607.59 97.7418 607.507C98.0771 607.424 98.4317 607.476 98.7284 607.653L107.124 612.774L112.244 604.379C112.334 604.232 112.452 604.104 112.591 604.003C112.73 603.901 112.888 603.828 113.055 603.787C113.222 603.747 113.396 603.74 113.566 603.766C113.736 603.793 113.9 603.853 114.047 603.942C114.194 604.032 114.322 604.15 114.423 604.289C114.525 604.428 114.598 604.586 114.638 604.753C114.679 604.92 114.686 605.094 114.659 605.264C114.633 605.434 114.573 605.597 114.483 605.744L108.68 615.259C108.498 615.556 108.207 615.769 107.869 615.851ZM107.87 649.324C107.617 649.385 107.353 649.37 107.109 649.281C106.866 649.192 106.654 649.032 106.501 648.823C106.349 648.613 106.261 648.363 106.251 648.104C106.24 647.845 106.306 647.589 106.441 647.367L112.245 637.853C112.334 637.706 112.452 637.578 112.591 637.476C112.73 637.375 112.888 637.302 113.055 637.261C113.223 637.22 113.397 637.213 113.567 637.24C113.737 637.266 113.9 637.326 114.047 637.416L123.562 643.219C123.859 643.401 124.071 643.692 124.153 644.03C124.235 644.368 124.179 644.725 123.998 645.022C123.817 645.319 123.525 645.531 123.188 645.613C122.85 645.695 122.493 645.639 122.196 645.458L113.801 640.337L108.68 648.733C108.591 648.88 108.473 649.008 108.334 649.109C108.195 649.211 108.037 649.284 107.87 649.324ZM136.385 635.905C136.162 635.959 135.928 635.954 135.708 635.889L84.7614 620.912C84.5951 620.864 84.44 620.784 84.3048 620.676C84.1697 620.568 84.0572 620.435 83.9739 620.283C83.8906 620.132 83.838 619.965 83.8193 619.793C83.8006 619.621 83.8161 619.447 83.8648 619.281C83.9136 619.115 83.9947 618.961 84.1035 618.826C84.2123 618.692 84.3466 618.58 84.4986 618.498C84.6507 618.416 84.8176 618.364 84.9896 618.347C85.1616 618.329 85.3354 618.346 85.501 618.396L136.447 633.372C136.781 633.471 137.062 633.697 137.228 634.003C137.395 634.308 137.434 634.667 137.336 635C137.271 635.221 137.149 635.422 136.982 635.58C136.815 635.739 136.609 635.851 136.385 635.905Z"  style="mix-blend-mode:normal" fill="#67B3DB" ></path><path d="M88.7244 630.109C88.4152 630.184 88.0892 630.143 87.8073 629.996C87.5253 629.848 87.3067 629.603 87.1922 629.306C87.0776 629.009 87.075 628.681 87.1847 628.382C87.2944 628.083 87.509 627.835 87.7885 627.683L96.4209 622.972L91.711 614.34C91.5444 614.035 91.5059 613.676 91.604 613.343C91.702 613.009 91.9286 612.728 92.2338 612.561C92.385 612.479 92.5509 612.427 92.7221 612.409C92.8933 612.39 93.0665 612.406 93.2317 612.454C93.3969 612.503 93.5509 612.583 93.6849 612.692C93.819 612.8 93.9304 612.933 94.0128 613.084L99.3509 622.867C99.4334 623.019 99.4853 623.185 99.5036 623.356C99.522 623.527 99.5065 623.7 99.4579 623.865C99.4094 624.031 99.3288 624.185 99.2207 624.319C99.1126 624.453 98.9792 624.564 98.828 624.647L89.0444 629.985C88.9436 630.04 88.836 630.081 88.7244 630.109ZM127.497 641.507C127.216 641.574 126.921 641.548 126.658 641.431C126.394 641.314 126.176 641.113 126.038 640.86L120.7 631.076C120.533 630.771 120.495 630.412 120.593 630.079C120.691 629.745 120.918 629.464 121.223 629.297L131.007 623.959C131.312 623.794 131.67 623.757 132.003 623.855C132.335 623.954 132.616 624.18 132.782 624.484C132.948 624.789 132.987 625.147 132.889 625.48C132.792 625.813 132.567 626.094 132.263 626.261L123.63 630.972L128.34 639.604C128.437 639.781 128.491 639.977 128.499 640.178C128.508 640.379 128.47 640.579 128.388 640.763C128.306 640.947 128.184 641.11 128.029 641.239C127.875 641.368 127.693 641.46 127.497 641.507ZM91.6924 646.733C91.4118 646.801 91.1166 646.774 90.8525 646.658C90.5883 646.541 90.3701 646.34 90.2317 646.087C90.0933 645.833 90.0424 645.541 90.087 645.256C90.1315 644.971 90.2689 644.708 90.478 644.509L128.921 607.877C129.174 607.64 129.51 607.512 129.856 607.521C130.202 607.531 130.53 607.677 130.769 607.927C131.008 608.178 131.138 608.513 131.131 608.859C131.123 609.205 130.98 609.535 130.731 609.775L92.2871 646.408C92.121 646.566 91.9158 646.678 91.6924 646.733Z"  style="mix-blend-mode:normal" fill="#67B3DB" ></path><path d="M131.416 619.766C131.307 619.793 131.192 619.805 131.075 619.802L119.933 619.534C119.585 619.525 119.255 619.379 119.015 619.127C118.776 618.876 118.646 618.539 118.654 618.191L118.923 607.05C118.932 606.703 119.079 606.374 119.33 606.135C119.582 605.896 119.918 605.767 120.265 605.775C120.612 605.783 120.941 605.929 121.181 606.18C121.421 606.43 121.551 606.766 121.544 607.113L121.307 616.944L131.138 617.181C131.456 617.188 131.761 617.311 131.995 617.527C132.229 617.742 132.377 618.035 132.411 618.352C132.445 618.668 132.363 618.986 132.18 619.246C131.997 619.506 131.725 619.691 131.416 619.766ZM102.158 647.645C101.963 647.693 101.759 647.695 101.563 647.651C101.366 647.607 101.183 647.518 101.026 647.392C100.869 647.266 100.744 647.105 100.659 646.922C100.575 646.74 100.533 646.54 100.538 646.339L100.775 636.508L90.9443 636.271C90.5975 636.261 90.2686 636.115 90.0296 635.863C89.7907 635.612 89.6612 635.276 89.6696 634.929C89.678 634.582 89.8235 634.252 90.0742 634.013C90.325 633.773 90.6606 633.642 91.0075 633.649L102.149 633.918C102.497 633.927 102.827 634.073 103.067 634.324C103.307 634.576 103.437 634.913 103.428 635.261L103.16 646.402C103.153 646.691 103.051 646.969 102.87 647.194C102.689 647.418 102.439 647.577 102.158 647.645Z"  style="mix-blend-mode:normal" fill="#67B3DB" ></path><path d="M30.0685 193.473C29.2291 199.082 30.652 204.794 34.0242 209.353C37.3964 213.912 42.4417 216.945 48.0501 217.785C53.6585 218.624 59.3707 217.201 63.93 213.829C68.4893 210.457 71.5223 205.412 72.3617 199.803C72.7773 197.026 72.6419 194.195 71.9632 191.47C71.2845 188.745 70.0758 186.181 68.406 183.923C66.7363 181.666 64.6382 179.759 62.2317 178.313C59.8251 176.866 57.1572 175.907 54.3801 175.492C51.6031 175.076 48.7715 175.211 46.0468 175.89C43.3221 176.569 40.7578 177.778 38.5002 179.447C36.2427 181.117 34.3361 183.215 32.8894 185.622C31.4427 188.028 30.4842 190.696 30.0685 193.473Z"  style="mix-blend-mode:normal" fill="#C2ECD6" fill-opacity="0.6"></path><path d="M45.3613 237.325C44.8454 237.248 44.3813 236.969 44.0711 236.55C43.7609 236.13 43.63 235.605 43.7072 235.089L55.4977 156.313C55.5749 155.797 55.8539 155.333 56.2733 155.023C56.6927 154.713 57.2181 154.582 57.734 154.659C58.2499 154.736 58.714 155.015 59.0242 155.435C59.3344 155.854 59.4653 156.38 59.388 156.895L47.5976 235.671C47.5204 236.187 47.2414 236.651 46.822 236.961C46.4026 237.272 45.8772 237.403 45.3613 237.325Z"  style="mix-blend-mode:normal" fill="#67B3DB" ></path><path d="M54.1273 178.757C53.8718 178.719 53.6264 178.63 53.405 178.497C53.1836 178.364 52.9906 178.189 52.837 177.981L42.8963 164.541C42.5923 164.121 42.4662 163.598 42.5455 163.086C42.6248 162.574 42.903 162.114 43.3196 161.806C43.7363 161.498 44.2577 161.366 44.7706 161.44C45.2835 161.515 45.7464 161.788 46.0587 162.202L54.8301 174.061L66.6893 165.29C66.8969 165.136 67.1328 165.025 67.3834 164.962C67.6341 164.9 67.8945 164.887 68.15 164.926C68.4054 164.964 68.6508 165.052 68.8722 165.185C69.0936 165.318 69.2866 165.493 69.4402 165.701C69.5938 165.909 69.705 166.145 69.7674 166.395C69.8299 166.646 69.8424 166.906 69.8041 167.162C69.7659 167.417 69.6778 167.663 69.5447 167.884C69.4116 168.105 69.2363 168.298 69.0286 168.452L55.588 178.393C55.1685 178.703 54.6432 178.834 54.1273 178.757ZM35.2131 225.269C34.8284 225.211 34.4693 225.041 34.1813 224.779C33.8934 224.518 33.6895 224.177 33.5954 223.799C33.5014 223.422 33.5214 223.025 33.653 222.659C33.7845 222.292 34.0217 221.974 34.3346 221.742L47.7749 211.801C47.9825 211.648 48.2184 211.536 48.469 211.474C48.7197 211.411 48.9802 211.399 49.2356 211.437C49.4911 211.475 49.7365 211.564 49.9579 211.697C50.1793 211.83 50.3723 212.005 50.5259 212.213L60.467 225.653C60.777 226.073 60.9079 226.598 60.8307 227.114C60.7534 227.63 60.4745 228.094 60.0552 228.404C59.6357 228.714 59.1103 228.845 58.5945 228.768C58.0786 228.691 57.6145 228.412 57.3042 227.993L48.5328 216.133L36.6737 224.904C36.4662 225.058 36.2304 225.17 35.9797 225.232C35.7291 225.295 35.4685 225.307 35.2131 225.269ZM82.4178 222.737C82.077 222.686 81.7557 222.546 81.4862 222.331L19.1596 172.732C18.9556 172.571 18.7853 172.373 18.6584 172.146C18.5316 171.92 18.4508 171.671 18.4206 171.413C18.3905 171.156 18.4116 170.895 18.4827 170.645C18.5538 170.396 18.6736 170.163 18.8351 169.96C18.9967 169.757 19.1967 169.588 19.4238 169.463C19.6509 169.337 19.9006 169.258 20.1584 169.23C20.4162 169.201 20.6771 169.224 20.9261 169.297C21.1751 169.37 21.4072 169.491 21.6091 169.654L83.9354 219.252C84.3436 219.577 84.606 220.051 84.665 220.569C84.7239 221.087 84.5746 221.608 84.2499 222.016C84.0347 222.287 83.7521 222.496 83.4305 222.622C83.1089 222.749 82.7596 222.788 82.4178 222.737Z"  style="mix-blend-mode:normal" fill="#67B3DB" ></path><path d="M19.4693 187.75C18.9972 187.68 18.5669 187.44 18.2586 187.075C17.9503 186.711 17.7851 186.247 17.7937 185.77C17.8023 185.292 17.9841 184.834 18.3054 184.481C18.6266 184.128 19.0653 183.904 19.5396 183.851L34.1959 182.184L32.5293 167.528C32.4703 167.01 32.6197 166.489 32.9444 166.081C33.2692 165.673 33.7428 165.411 34.2611 165.352C34.5177 165.322 34.7776 165.344 35.0258 165.415C35.2741 165.486 35.506 165.606 35.7081 165.767C35.9102 165.927 36.0786 166.126 36.2038 166.352C36.329 166.578 36.4084 166.827 36.4375 167.083L38.3264 183.693C38.3557 183.95 38.334 184.21 38.2628 184.458C38.1916 184.707 38.0722 184.938 37.9113 185.141C37.7505 185.343 37.5515 185.511 37.3255 185.636C37.0996 185.762 36.8512 185.841 36.5946 185.87L19.9839 187.759C19.8128 187.779 19.6397 187.776 19.4693 187.75ZM66.9026 225.497C66.4747 225.433 66.0799 225.229 65.7795 224.917C65.4791 224.606 65.2898 224.204 65.2408 223.774L63.3522 207.164C63.2933 206.645 63.4427 206.125 63.7675 205.717C64.0924 205.308 64.566 205.046 65.0843 204.987L81.695 203.098C82.2123 203.041 82.7311 203.192 83.1378 203.516C83.5445 203.841 83.8058 204.314 83.8646 204.831C83.9234 205.348 83.7748 205.868 83.4515 206.275C83.1281 206.683 82.6562 206.946 82.1393 207.007L67.483 208.674L69.1496 223.33C69.1838 223.63 69.1485 223.933 69.0464 224.217C68.9443 224.501 68.7782 224.758 68.5609 224.968C68.3437 225.177 68.0811 225.334 67.7935 225.426C67.506 225.518 67.2011 225.542 66.9026 225.497ZM14.1996 212.526C13.7712 212.463 13.3758 212.259 13.0747 211.948C12.7737 211.636 12.5839 211.234 12.5348 210.804C12.4857 210.373 12.58 209.939 12.8031 209.567C13.0262 209.196 13.3656 208.909 13.7687 208.75L87.8854 179.573C88.37 179.386 88.9088 179.399 89.3844 179.607C89.8599 179.816 90.2336 180.205 90.4239 180.688C90.6142 181.171 90.6055 181.71 90.3999 182.187C90.1943 182.664 89.8084 183.04 89.3264 183.234L15.2096 212.411C14.889 212.537 14.5406 212.577 14.1996 212.526Z"  style="mix-blend-mode:normal" fill="#67B3DB" ></path><path d="M84.6331 197.503C84.4663 197.478 84.3003 197.431 84.1387 197.361L68.8093 190.692C68.3309 190.483 67.9549 190.094 67.7638 189.608C67.5727 189.123 67.5822 188.582 67.7903 188.103L74.4593 172.774C74.6686 172.298 75.0582 171.923 75.5428 171.734C76.0275 171.544 76.5676 171.554 77.0448 171.761C77.5221 171.969 77.8976 172.357 78.0891 172.841C78.2806 173.325 78.2724 173.865 78.0665 174.343L72.1819 187.869L85.7076 193.754C86.1455 193.944 86.4993 194.287 86.7031 194.719C86.9068 195.15 86.9467 195.641 86.8152 196.1C86.6837 196.559 86.3898 196.954 85.9883 197.212C85.5868 197.471 85.1051 197.574 84.6331 197.503ZM28.2264 219.708C27.9278 219.664 27.6435 219.551 27.3955 219.379C27.1474 219.207 26.9423 218.981 26.796 218.717C26.6496 218.453 26.566 218.159 26.5516 217.857C26.5372 217.556 26.5923 217.255 26.7128 216.978L32.5974 203.452L19.0716 197.567C18.5951 197.358 18.2209 196.968 18.0311 196.484C17.8413 195.999 17.8513 195.459 18.0589 194.982C18.2665 194.505 18.6548 194.129 19.1388 193.938C19.6227 193.746 20.1629 193.754 20.6408 193.96L35.9703 200.63C36.4486 200.838 36.8247 201.227 37.0158 201.713C37.2069 202.198 37.1973 202.739 36.9892 203.218L30.3199 218.547C30.1473 218.944 29.8486 219.273 29.4701 219.483C29.0916 219.693 28.6545 219.772 28.2264 219.708Z"  style="mix-blend-mode:normal" fill="#67B3DB" ></path><path d="M323.549 43.852C322.562 48.7952 323.579 53.928 326.377 58.1214C329.174 62.3147 333.523 65.225 338.466 66.212C343.409 67.1991 348.542 66.182 352.736 63.3846C356.929 60.5872 359.839 56.2385 360.826 51.2953C361.315 48.8477 361.317 46.3277 360.832 43.8794C360.347 41.431 359.384 39.1022 357.999 37.0259C356.614 34.9496 354.833 33.1664 352.759 31.7782C350.684 30.39 348.357 29.424 345.909 28.9352C343.462 28.4465 340.942 28.4446 338.494 28.9298C336.045 29.4149 333.716 30.3775 331.64 31.7627C329.564 33.1478 327.781 34.9284 326.392 37.0027C325.004 39.077 324.038 41.4044 323.549 43.852Z"  style="mix-blend-mode:normal" fill="#9EDAF1" ></path><path d="M335.237 83.445C334.782 83.3542 334.382 83.0865 334.124 82.7008C333.867 82.3151 333.774 81.8429 333.864 81.3882L347.728 11.9559C347.819 11.5012 348.087 11.1012 348.473 10.8439C348.858 10.5866 349.331 10.493 349.785 10.5838C350.24 10.6746 350.64 10.9423 350.897 11.328C351.155 11.7138 351.248 12.1859 351.157 12.6406L337.293 82.0729C337.203 82.5276 336.935 82.9276 336.549 83.1849C336.163 83.4423 335.691 83.5358 335.237 83.445Z"  style="mix-blend-mode:normal" fill="#67B3DB" ></path><path d="M345.544 31.8233C345.319 31.7783 345.105 31.6895 344.914 31.5618C344.723 31.4341 344.559 31.2701 344.432 31.0791L336.186 18.7175C335.934 18.3318 335.844 17.8622 335.937 17.411C336.029 16.9597 336.296 16.5631 336.679 16.3075C337.063 16.0518 337.531 15.9578 337.983 16.0457C338.436 16.1336 338.835 16.3965 339.094 16.7771L346.371 27.6846L357.278 20.408C357.469 20.2805 357.683 20.192 357.908 20.1473C358.133 20.1027 358.365 20.1029 358.59 20.1478C358.816 20.1928 359.03 20.2816 359.22 20.4093C359.411 20.537 359.575 20.701 359.702 20.892C359.83 21.083 359.918 21.2972 359.963 21.5224C360.008 21.7476 360.008 21.9794 359.963 22.2045C359.918 22.4297 359.829 22.6438 359.701 22.8346C359.573 23.0254 359.409 23.1892 359.218 23.3166L346.857 31.5633C346.471 31.8204 345.999 31.9139 345.544 31.8233ZM326.746 72.3031C326.407 72.2354 326.096 72.0688 325.851 71.8241C325.607 71.5794 325.441 71.2678 325.373 70.9286C325.306 70.5894 325.341 70.2379 325.474 69.9185C325.606 69.5991 325.831 69.3262 326.118 69.1344L338.48 60.8877C338.671 60.7602 338.885 60.6716 339.11 60.627C339.335 60.5823 339.567 60.5825 339.792 60.6274C340.018 60.6723 340.232 60.7612 340.422 60.8889C340.613 61.0166 340.777 61.1806 340.905 61.3716L349.151 73.7333C349.408 74.119 349.502 74.5912 349.411 75.0459C349.32 75.5006 349.053 75.9006 348.667 76.158C348.281 76.4151 347.809 76.5085 347.354 76.4177C346.9 76.327 346.5 76.0594 346.242 75.6738L338.966 64.7664L328.059 72.0428C327.868 72.1705 327.654 72.2593 327.428 72.304C327.203 72.3486 326.971 72.3483 326.746 72.3031ZM368.766 72.09C368.465 72.03 368.186 71.8918 367.956 71.6894L314.758 24.9665C314.584 24.8155 314.441 24.6315 314.338 24.4251C314.236 24.2188 314.175 23.9941 314.159 23.7641C314.143 23.5341 314.173 23.3032 314.247 23.0848C314.321 22.8664 314.437 22.6648 314.59 22.4916C314.742 22.3183 314.927 22.1769 315.134 22.0754C315.341 21.9739 315.566 21.9144 315.796 21.9003C316.026 21.8861 316.257 21.9176 316.475 21.993C316.692 22.0684 316.893 22.1861 317.066 22.3394L370.263 69.0618C370.612 69.3678 370.824 69.7997 370.854 70.2624C370.884 70.7251 370.729 71.1808 370.423 71.5293C370.221 71.7602 369.961 71.9335 369.67 72.032C369.379 72.1304 369.067 72.1504 368.766 72.09Z"  style="mix-blend-mode:normal" fill="#67B3DB" ></path><path d="M314.386 38.3139C313.97 38.2309 313.598 37.9994 313.34 37.6626C313.082 37.3257 312.955 36.9066 312.983 36.4832C313.012 36.0598 313.193 35.6612 313.493 35.3615C313.794 35.0619 314.193 34.8818 314.616 34.8547L327.701 34.0066L326.853 20.9228C326.823 20.4602 326.978 20.0045 327.284 19.6561C327.59 19.3078 328.021 19.0952 328.484 19.0651C328.713 19.0502 328.943 19.0806 329.16 19.1545C329.378 19.2284 329.578 19.3445 329.751 19.496C329.923 19.6475 330.064 19.8315 330.166 20.0375C330.267 20.2435 330.327 20.4674 330.342 20.6965L331.303 35.5251C331.318 35.7542 331.287 35.984 331.213 36.2014C331.139 36.4188 331.023 36.6194 330.872 36.792C330.72 36.9645 330.536 37.1055 330.33 37.2069C330.124 37.3083 329.9 37.3682 329.671 37.383L314.842 38.344C314.689 38.3539 314.536 38.3438 314.386 38.3139ZM354.872 73.8721C354.495 73.7963 354.153 73.5984 353.9 73.3089C353.646 73.0193 353.496 72.6544 353.471 72.2705L352.51 57.4417C352.48 56.979 352.635 56.5233 352.941 56.1749C353.247 55.8266 353.679 55.614 354.142 55.584L368.971 54.6231C369.432 54.5948 369.887 54.7507 370.234 55.0566C370.581 55.3625 370.792 55.7935 370.822 56.2551C370.852 56.7168 370.698 57.1715 370.393 57.5196C370.088 57.8677 369.658 58.0809 369.197 58.1124L356.112 58.9605L356.96 72.0445C356.978 72.3123 356.933 72.5804 356.83 72.8282C356.727 73.076 356.569 73.2969 356.367 73.4736C356.165 73.6503 355.925 73.7781 355.666 73.8472C355.407 73.9163 355.135 73.9248 354.872 73.8721ZM308.639 60.0841C308.261 60.009 307.919 59.8113 307.665 59.5218C307.411 59.2323 307.26 58.8671 307.235 58.4829C307.21 58.0987 307.313 57.7169 307.527 57.3969C307.741 57.0769 308.054 56.8364 308.419 56.7129L375.481 34.0036C375.919 33.8584 376.397 33.8924 376.81 34.0983C377.224 34.3042 377.539 34.6651 377.687 35.1024C377.835 35.5397 377.804 36.0178 377.601 36.4324C377.398 36.847 377.039 37.1644 376.602 37.3153L309.541 60.025C309.25 60.1237 308.939 60.1441 308.639 60.0841Z"  style="mix-blend-mode:normal" fill="#67B3DB" ></path><path d="M371.82 49.7823C371.673 49.753 371.528 49.7041 371.388 49.6345L358.065 43.0523C357.649 42.847 357.332 42.4849 357.183 42.0457C357.035 41.6065 357.067 41.1263 357.272 40.7105L363.854 27.3881C364.06 26.974 364.422 26.6586 364.861 26.511C365.299 26.3633 365.778 26.3955 366.193 26.6004C366.608 26.8053 366.924 27.1663 367.073 27.6042C367.223 28.0421 367.192 28.5213 366.989 28.9368L361.181 40.6919L372.936 46.4998C373.317 46.6874 373.616 47.007 373.778 47.3991C373.941 47.7911 373.955 48.2288 373.818 48.6305C373.682 49.0322 373.404 49.3706 373.036 49.5825C372.669 49.7944 372.236 49.8654 371.82 49.7823ZM320.783 67.0653C320.52 67.013 320.272 66.9007 320.059 66.7374C319.847 66.574 319.674 66.3638 319.556 66.1231C319.437 65.8824 319.376 65.6177 319.376 65.3494C319.376 65.0811 319.438 64.8164 319.557 64.5759L325.364 52.8208L313.609 47.0129C313.195 46.8066 312.88 46.4445 312.732 46.0061C312.585 45.5676 312.617 45.0886 312.822 44.6738C313.027 44.259 313.388 43.9423 313.825 43.7932C314.263 43.644 314.743 43.6745 315.158 43.878L328.481 50.4602C328.896 50.6655 329.214 51.0276 329.362 51.4668C329.511 51.906 329.479 52.3863 329.274 52.802L322.692 66.1246C322.521 66.4695 322.242 66.7486 321.897 66.9187C321.552 67.0888 321.16 67.1403 320.783 67.0653Z"  style="mix-blend-mode:normal" fill="#67B3DB" ></path></svg>