<svg xmlns="http://www.w3.org/2000/svg" xmlns:xlink="http://www.w3.org/1999/xlink" width="60" height="60" viewBox="0 0 60 60" fill="none"><g  clip-path="url(#clip-path-36_4)"><path d="M22.5781 25.6019L22.5781 47.6529C22.5781 52.507 18.6431 56.442 13.7891 56.442C8.93498 56.442 5 52.507 5 47.6529C5 42.7989 8.93498 38.8639 13.7891 38.8639C15.2704 38.8639 16.6662 39.2304 17.8906 39.8775L17.8906 23.6692C17.8901 23.6409 17.8901 23.6127 17.8906 23.5844L17.8906 11.9107C17.8906 10.7708 18.7108 9.79618 19.8341 9.60147L51.9434 4.03507C53.3765 3.78663 54.6875 4.88989 54.6875 6.34437L54.6875 18.0235C54.688 18.0518 54.688 18.08 54.6875 18.1082L54.6875 42.0279C54.6875 46.882 50.7525 50.817 45.8984 50.817C41.0444 50.817 37.1094 46.882 37.1094 42.0279C37.1094 37.1739 41.0444 33.2389 45.8984 33.2389C47.3798 33.2389 48.7756 33.6054 50 34.2525L50 20.848L22.5781 25.6019ZM22.5781 20.8445L50 16.0907L50 9.12933L22.5781 13.8831L22.5781 20.8445L22.5781 20.8445ZM13.7891 51.7545C16.0543 51.7545 17.8906 49.9182 17.8906 47.6529C17.8906 45.3877 16.0543 43.5514 13.7891 43.5514C11.5238 43.5514 9.6875 45.3877 9.6875 47.6529C9.6875 49.9182 11.5238 51.7545 13.7891 51.7545ZM45.8984 46.1295C48.1637 46.1295 50 44.2932 50 42.0279C50 39.7627 48.1637 37.9264 45.8984 37.9264C43.6332 37.9264 41.7969 39.7627 41.7969 42.0279C41.7969 44.2932 43.6332 46.1295 45.8984 46.1295Z"   fill="#C2ECD6" ></path><path    stroke="rgba(194, 236, 214, 1)" stroke-width="3"    d="M3 1.07001L60.5958 56.5923"></path></g><defs><clipPath id="clip-path-36_4"><path d="M0 60L60 60L60 0L0 0L0 60Z" fill="white"/></clipPath></defs></svg>