<svg xmlns="http://www.w3.org/2000/svg" xmlns:xlink="http://www.w3.org/1999/xlink" width="49.68798828125" height="52.442020416259766" viewBox="0 0 49.68798828125 52.442020416259766" fill="none"><path d="M17.5781 21.6019L17.5781 43.653C17.5781 48.507 13.6431 52.442 8.78906 52.442C3.93498 52.442 0 48.507 0 43.653C0 38.7989 3.93498 34.8639 8.78906 34.8639C10.2704 34.8639 11.6662 35.2304 12.8906 35.8776L12.8906 19.6692C12.8901 19.6409 12.8901 19.6127 12.8906 19.5845L12.8906 7.91077C12.8906 6.77083 13.7108 5.79618 14.8341 5.60147L46.9434 0.0350655C48.3765 -0.213372 49.6875 0.88989 49.6875 2.34436L49.6875 14.0235C49.688 14.0519 49.688 14.08 49.6875 14.1082L49.6875 38.028C49.6875 42.882 45.7525 46.817 40.8984 46.817C36.0444 46.817 32.1094 42.882 32.1094 38.028C32.1094 33.1739 36.0444 29.2389 40.8984 29.2389C42.3798 29.2389 43.7756 29.6054 45 30.2526L45 16.8481L17.5781 21.6019ZM17.5781 16.8445L45 12.0907L45 5.12932L17.5781 9.88309L17.5781 16.8446L17.5781 16.8445ZM8.78906 47.7545C11.0543 47.7545 12.8906 45.9182 12.8906 43.653C12.8906 41.3877 11.0543 39.5514 8.78906 39.5514C6.52383 39.5514 4.6875 41.3877 4.6875 43.653C4.6875 45.9182 6.52383 47.7545 8.78906 47.7545ZM40.8984 42.1295C43.1637 42.1295 45 40.2932 45 38.028C45 35.7627 43.1637 33.9264 40.8984 33.9264C38.6332 33.9264 36.7969 35.7627 36.7969 38.028C36.7969 40.2932 38.6332 42.1295 40.8984 42.1295Z"  style="mix-blend-mode:normal" fill="#C2ECD6" ></path></svg>