<svg xmlns="http://www.w3.org/2000/svg" xmlns:xlink="http://www.w3.org/1999/xlink" width="170" height="170" viewBox="0 0 170 170" fill="none"><path d="M10.625 42.0325L85 10.1575L159.375 42.0325L159.375 132.908L85 164.571L78.5772 161.835L77.2172 161.835L77.2172 161.256L10.625 132.913L10.625 42.0325ZM85 69.1634L103.849 61.1416L50.899 36.7041C50.7769 36.6456 50.6972 36.5394 50.5803 36.4703L29.4578 45.5228L85 69.1634ZM63.6331 30.8762L117.04 55.5262L140.542 45.5175L85 21.7175L63.6331 30.8762ZM148.75 53.5712L127.5 62.6184L127.5 95.625C127.5 97.034 126.94 98.3852 125.944 99.3815C124.948 100.378 123.596 100.937 122.188 100.937C120.779 100.937 119.427 100.378 118.431 99.3815C117.435 98.3852 116.875 97.034 116.875 95.625L116.875 67.15L116.864 67.1447L87.8422 79.5016L87.8422 151.815L148.75 125.885L148.75 53.5712ZM77.2172 149.712L77.2172 77.3978L21.25 53.5712L21.25 125.89L77.2172 149.712Z"  style="mix-blend-mode:normal" fill="#7CCBED" ></path></svg>