<svg xmlns="http://www.w3.org/2000/svg" xmlns:xlink="http://www.w3.org/1999/xlink" width="220" height="139.99996948242188" viewBox="0 0 220 139.99996948242188" fill="none"><path d="M192.422 139.94C194.592 140.145 196.793 139.82 198.689 139.014C206.838 134.843 204.957 126.039 203.704 117.698C202.137 114.111 201.708 110.306 202.45 106.577C213.659 95.8072 219.82 82.6318 220 69.0434C220 31.0464 170.484 0 110.313 0C50.1425 0 0 31.0464 0 69.0434C0 107.04 49.5157 138.087 110.313 138.087C126.214 138.312 142.005 136.103 156.695 131.6C162.155 132.446 167.428 133.85 172.365 135.77C178.652 138.049 185.449 139.462 192.422 139.94ZM110.313 9.26757C163.59 9.26757 207.464 36.1435 207.464 69.0434C207.474 80.6507 202.172 91.919 192.422 101.017C188.034 105.187 189.288 112.138 191.168 119.088C192.277 122.894 192.489 126.813 191.795 130.673C186.581 129.933 181.523 128.687 176.752 126.966C165.47 123.722 157.949 121.405 152.308 123.259C138.88 126.976 124.651 128.86 110.313 128.819C56.4103 128.819 12.5356 102.407 12.5356 69.0434C12.5356 35.6801 56.4103 9.26757 110.313 9.26757Z"  style="mix-blend-mode:normal" fill="#9EDAF1" ></path></svg>