<svg xmlns="http://www.w3.org/2000/svg" xmlns:xlink="http://www.w3.org/1999/xlink" width="210" height="130" viewBox="0 0 210 130" fill="none"><path    style="mix-blend-mode:normal" fill="#C2ECD6"  d="M183.675 129.945C185.747 130.135 187.848 129.833 189.658 129.084C197.436 125.212 195.641 117.036 194.444 109.291C192.949 105.961 192.54 102.427 193.248 98.9644C203.947 88.9638 209.828 76.7295 210 64.1117C210 28.8288 162.735 0 105.299 0C47.8633 0 0 28.8288 0 64.1117C0 99.3947 47.265 128.223 105.299 128.223C120.477 128.432 135.55 126.381 149.573 122.2C154.784 122.986 159.818 124.289 164.53 126.072C170.532 128.188 177.019 129.501 183.675 129.945ZM105.299 8.6056C156.154 8.6056 198.034 33.5618 198.034 64.1117C198.043 74.8899 192.982 85.3533 183.675 93.8011C179.487 97.6736 180.684 104.128 182.479 110.582C183.537 114.116 183.74 117.755 183.077 121.339C178.1 120.652 173.272 119.495 168.718 117.897C157.949 114.885 150.769 112.733 145.385 114.454C132.567 117.906 118.985 119.656 105.299 119.618C53.8462 119.618 11.9658 95.0919 11.9658 64.1117C11.9658 33.1316 53.8462 8.6056 105.299 8.6056Z"></path><path    style="mix-blend-mode:normal" fill="#FFFFFF" fill-opacity="0.65" d="M105.299 8.6056C156.154 8.6056 198.034 33.5618 198.034 64.1117C198.043 74.8899 192.982 85.3533 183.675 93.8011C179.487 97.6736 180.684 104.128 182.479 110.582C183.537 114.116 183.74 117.755 183.077 121.339C178.1 120.652 173.272 119.495 168.718 117.897C157.949 114.885 150.769 112.733 145.385 114.454C132.567 117.906 118.985 119.656 105.299 119.618C53.8462 119.618 11.9658 95.0919 11.9658 64.1117C11.9658 33.1316 53.8462 8.6056 105.299 8.6056Z"></path></svg>