<svg xmlns="http://www.w3.org/2000/svg" xmlns:xlink="http://www.w3.org/1999/xlink" width="197.8564453125" height="203.83184814453125" viewBox="0 0 197.8564453125 203.83184814453125" fill="none"><g opacity="0.8"><path d="M105.019 109.514C100.691 119.208 100.382 130.228 104.161 140.151C107.94 150.074 115.497 158.086 125.169 162.425C134.842 166.764 145.837 167.074 155.737 163.287C165.637 159.501 173.63 151.928 177.958 142.234C180.101 137.434 181.28 132.258 181.427 127.001C181.575 121.744 180.687 116.51 178.816 111.596C175.037 101.674 167.48 93.6615 157.808 89.3226C148.135 84.9837 137.14 84.6733 127.24 88.4599C117.34 92.2464 109.347 99.8197 105.019 109.514Z"  style="mix-blend-mode:normal" fill="#9EDAF1" ></path><path d="M147.247 83.4553C142.108 81.2925 136.803 79.9505 131.368 79.1629C122.934 77.9414 114.832 78.8215 107.088 82.1462C104.191 83.3841 101.423 84.8733 99.0731 87.0712C96.3906 89.5843 94.114 92.4921 91.976 95.5133C89.9187 98.4189 88.4036 101.666 86.8555 104.909C84.8951 109.069 83.2655 113.351 82.1712 117.876C79.5308 128.748 79.1656 139.769 81.479 150.963C82.3086 155.018 83.6619 158.885 85.8471 162.425C86.5577 163.64 87.3388 164.794 88.2232 165.89C93.6856 172.626 100.471 176.509 108.778 176.958C113.226 177.193 117.141 175.824 120.498 172.862C123.261 170.434 125.416 167.457 127.363 164.309C129.323 161.156 131.259 157.979 133.175 154.793C135.247 151.362 138.116 149.245 142.05 148.608C145.071 148.127 148.086 147.632 151.039 146.859C155.304 145.739 159.312 144.082 162.796 141.288C167.943 137.153 171.044 131.605 172.581 124.993C173.572 120.726 173.386 116.385 172.483 112.022C171.229 106.035 168.813 100.656 164.794 96.0056C159.887 90.3279 153.963 86.2747 147.247 83.4553ZM163.332 113.113C163.982 116.467 164.026 119.84 163.11 123.171C161.681 128.331 159.612 131.124 155.249 134.447C152.291 136.699 148.932 138.085 145.381 139.059C142.912 139.743 140.398 140.192 137.898 140.636C134.618 141.218 131.733 141.763 129.947 144.478C128.274 146.998 126.595 149.504 124.897 152C123.199 154.496 121.194 157.415 119.458 159.976C117.399 162.999 115.084 167.097 109.931 167.391C101.558 167.857 91.7509 162.24 89.2671 142.921C88.4388 131.06 88.1617 127.493 90.5993 118.999C91.6223 115.459 93.0647 112.106 94.7878 108.828C96.1315 106.27 97.4752 103.712 99.2474 101.405C101.2 98.8757 104.508 95.9494 106.821 93.9001C107.498 93.2986 108.192 92.7408 108.967 92.2688C116.221 87.8104 124.626 88.07 132.727 88.9191C137.206 89.3937 138.912 90.0166 143.115 91.5563C148.608 93.5799 153.412 96.5788 157.36 100.887C160.565 104.38 162.44 108.495 163.332 113.113ZM72.3447 118.728C72.5543 116.447 71.965 114.295 70.9712 112.234C69.526 109.259 67.4139 106.832 64.563 104.325C63.6798 103.514 62.2669 102.474 60.8007 101.538C56.7065 98.949 52.3194 97.1796 47.6779 96.2485C43.4956 95.4057 39.3533 95.269 35.276 96.4664C32.9329 97.1511 30.8126 98.2854 29.2164 100.238C26.9193 103.053 26.6054 106.315 27.7621 109.839C29.0792 113.854 31.7234 116.879 34.7823 119.555C36.7806 121.289 38.9584 122.717 41.243 123.935C46.6407 126.802 52.2733 128.418 58.2396 128.393C61.5409 128.39 64.7273 127.811 67.577 126.088C70.2802 124.473 72.049 122.117 72.3447 118.728ZM65.5948 116.425C65.4021 118.549 64.2956 120.024 62.6015 121.041C60.8096 122.131 57.1401 122.278 55.0673 122.286C51.3272 122.294 47.787 121.283 44.4113 119.486C42.9803 118.721 41.6106 117.832 40.3534 116.748C38.4245 115.071 35.9963 112.197 35.166 109.669C34.4415 107.453 34.6352 105.413 36.0724 103.657C37.0698 102.426 40.0846 101.931 41.5483 101.491C44.1016 100.741 45.7917 101.605 48.4205 102.134C51.3379 102.718 54.0815 103.823 56.6514 105.45C57.5698 106.029 58.4564 106.688 59.0146 107.191C60.8106 108.769 63.8067 110.48 64.7129 112.357C65.3588 113.648 65.7285 114.997 65.5948 116.425ZM51.0196 85.5203C55.3563 89.9785 60.3223 93.3504 66.0607 95.2777C69.2452 96.3442 72.4797 96.854 75.7388 96.1791C78.8229 95.5394 81.2135 93.9297 82.5253 90.8467C83.3987 88.775 83.4776 86.5619 83.1338 84.3133C82.6306 81.053 81.3172 78.094 79.3219 74.7982C78.7125 73.7617 77.6722 72.3068 76.532 70.9583C73.3592 67.1848 69.6638 64.0863 65.4709 61.6867C61.6871 59.5294 57.7398 58.0404 53.4702 57.8195C51.0007 57.6977 48.6392 58.0538 46.5076 59.3604C43.4545 61.2469 42.1791 64.1813 42.2494 67.8633C42.3324 72.0606 43.9687 75.7658 46.1232 79.2676C47.4933 81.5666 49.1587 83.6154 51.0196 85.5203ZM49.4244 70.1668C49.3897 67.864 50.1892 66.006 52.0924 64.8393C53.4218 64.0154 56.4699 64.5312 58.0121 64.6142C60.693 64.7537 62.0718 66.1093 64.4405 67.4624C67.0718 68.9643 69.3884 70.9086 71.3789 73.2662C72.0872 74.1128 72.7443 75.0299 73.1399 75.6803C74.3996 77.7373 76.7721 80.3478 77.0965 82.3858C77.3162 83.7935 77.2643 85.1902 76.7147 86.4802C75.8969 88.4126 74.3892 89.424 72.4698 89.8248C70.4221 90.2592 66.8397 89.181 64.8508 88.5181C61.2446 87.2982 58.1415 85.1926 55.4156 82.4018C54.2584 81.211 53.2068 79.9284 52.3314 78.4928C50.9489 76.2826 49.4581 72.7889 49.4244 70.1668ZM139.298 26.8025C136.327 24.7122 133.221 24.1688 129.985 25.7076C127.735 26.792 126.128 28.5975 124.87 30.77C122.684 34.5148 121.711 38.7069 121.369 43.1046C121.001 47.9993 121.48 52.8471 122.8 57.6333C123.271 59.362 123.878 61.0372 124.384 62.1311C125.966 65.6562 127.638 68.4073 130.035 70.6388C131.694 72.1867 133.531 73.3458 135.716 73.7469C138.952 74.3402 141.604 73.1985 143.818 70.9363C146.187 68.5462 147.549 65.5108 148.443 62.2054C150.05 56.254 150.05 50.1774 148.808 44.0181C148.289 41.4019 147.54 38.8421 146.459 36.3963C144.8 32.6329 142.688 29.1985 139.298 26.8025ZM143.854 46.0298C144.623 49.8906 144.632 53.6973 143.622 57.4338C143.062 59.5003 141.947 63.1271 140.459 64.634C139.064 66.0544 137.41 66.7709 135.376 66.3943C134.004 66.1438 132.856 65.4194 131.817 64.4508C130.328 63.0546 129.526 59.5927 128.535 57.3797C128.216 56.6826 127.839 55.6386 127.545 54.5625C126.719 51.5631 126.413 48.5273 126.642 45.4498C126.85 42.6823 126.492 40.7584 127.869 38.4053C128.661 37.0534 129.927 34.1733 131.332 33.5042C133.362 32.5398 135.299 32.8703 137.166 34.1856C139.292 35.6841 141.314 38.8856 142.361 41.2442C143.057 42.7838 143.51 44.3854 143.854 46.0298ZM85.3609 66.1839C87.663 69.2585 89.9046 71.5343 92.7019 73.1389C94.6284 74.246 96.6696 74.9219 98.8504 74.7878C102.099 74.5701 104.381 72.8018 106.018 70.0276C107.751 67.098 108.388 63.7765 108.515 60.319C108.719 54.0787 107.359 48.1001 104.792 42.3765C103.697 39.936 102.409 37.6048 100.816 35.4604C98.3627 32.1598 95.5481 29.3031 91.7679 27.799C88.448 26.4667 85.3365 26.7143 82.5745 29.0237C80.6418 30.6383 79.5151 32.8262 78.7839 35.2617C77.5236 39.4827 77.5236 43.8301 78.1908 48.2346C78.9387 53.1277 80.4867 57.774 82.8232 62.1443C83.676 63.7231 84.6265 65.23 85.3609 66.1839ZM83.7846 49.2283C83.3679 46.4712 82.5969 44.6589 83.3883 42.0151C83.847 40.4922 84.4121 37.3498 85.621 36.3382C87.3503 34.8874 89.306 34.7408 91.3905 35.5677C93.7727 36.5126 96.4418 39.1579 97.9731 41.2257C98.9678 42.5642 99.7751 44.0266 100.465 45.5517C102.076 49.1497 102.939 52.8896 102.801 56.8042C102.738 58.9775 102.46 62.8131 101.389 64.6603C100.365 66.388 98.9303 67.5052 96.895 67.6494C95.5279 67.7327 94.247 67.3122 93.0308 66.6146C91.2702 65.6103 89.734 62.4029 88.2925 60.4845C87.8264 59.8953 87.2317 58.9369 86.7053 57.9518C85.2249 55.2093 84.2411 52.2887 83.7846 49.2283Z"  style="mix-blend-mode:normal" fill="#C2ECD6" ></path></g></svg>