<svg xmlns="http://www.w3.org/2000/svg" xmlns:xlink="http://www.w3.org/1999/xlink" width="225.5081787109375" height="226.02114868164062" viewBox="0 0 225.5081787109375 226.02114868164062" fill="none"><g opacity="0.4"><g opacity="0.8"><path d="M74.1417 119.788C68.6617 129.616 67.3011 141.223 70.3593 152.055C73.4176 162.887 80.6441 172.056 90.4491 177.545C100.254 183.034 111.834 184.395 122.643 181.326C133.451 178.258 142.601 171.012 148.081 161.183C150.795 156.317 152.526 150.962 153.174 145.426C153.823 139.889 153.378 134.279 151.864 128.916C148.806 118.084 141.579 108.915 131.774 103.426C121.969 97.9366 110.389 96.5765 99.5806 99.6449C88.7724 102.713 79.6218 109.959 74.1417 119.788Z"  style="mix-blend-mode:normal" fill="#C2ECD6" ></path></g><path d="M146.226 151.17C146.341 145.856 145.688 140.637 144.514 135.461C142.676 127.432 139.096 120.329 133.498 114.291C131.403 112.031 129.14 109.959 126.395 108.476C123.256 106.779 119.916 105.589 116.523 104.528C113.258 103.519 109.887 103.102 106.483 102.67C102.149 102.124 97.8239 101.921 93.4606 102.268C82.9908 103.104 73.17 106.04 64.126 111.461C60.8543 113.417 57.9068 115.792 55.5642 118.837C54.7433 119.846 53.997 120.893 53.3443 122.023C49.3058 128.974 48.2447 136.295 50.7238 143.989C52.0499 148.102 54.6129 151.255 58.3706 153.424C61.4596 155.206 64.8292 156.288 68.2596 157.13C71.712 157.973 75.1776 158.785 78.6331 159.584C82.3595 160.456 85.2148 162.423 87.1323 165.811C88.6079 168.406 90.0718 171.013 91.7678 173.457C94.2271 176.991 97.0657 180.151 100.735 182.48C106.148 185.928 112.106 187.1 118.45 186.527C122.55 186.163 126.295 184.702 129.821 182.586C134.661 179.669 138.546 175.872 141.246 170.859C144.567 164.703 146.075 158.108 146.226 151.17ZM125.717 174.598C122.99 176.18 120.046 177.228 116.791 177.37C111.75 177.608 108.589 176.551 104.158 173.586C101.162 171.577 98.7849 168.923 96.6932 165.977C95.2452 163.936 93.9807 161.797 92.7178 159.635C91.0683 156.84 89.5835 154.376 86.5943 153.54C83.8101 152.773 81.0157 151.995 78.2345 151.184C75.4636 150.384 72.1947 149.442 69.3374 148.615C65.9822 147.645 61.5728 146.751 59.53 142.149C56.2073 134.676 57.7707 124.102 73.9169 116.101C84.0509 111.835 87.0906 110.517 95.4143 110.216C98.8783 110.098 102.334 110.422 105.815 111.013C108.531 111.488 111.238 111.929 113.878 112.863C116.788 113.893 120.493 116.025 123.083 117.521C123.837 117.957 124.577 118.425 125.255 118.989C131.679 124.262 134.378 131.971 136.41 139.581C137.531 143.791 137.587 145.521 137.687 149.797C137.817 155.392 136.832 160.661 134.408 165.515C132.442 169.492 129.468 172.407 125.717 174.598ZM89.3281 93.5813C91.4051 93.0855 93.0987 91.9121 94.5617 90.4029C96.6907 88.2068 98.0779 85.5644 99.303 82.2365C99.7062 81.2007 100.138 79.6025 100.449 77.9854C101.302 73.494 101.351 68.9836 100.559 64.4851C99.8474 60.4342 98.5336 56.6209 96.0825 53.2869C94.6708 51.3589 92.9489 49.7648 90.6575 48.897C87.3881 47.645 84.4149 48.326 81.7189 50.419C78.638 52.8077 76.8955 56.113 75.5979 59.6906C74.7628 62.0149 74.2646 64.4163 73.9831 66.8761C73.3181 72.6298 73.8554 78.2402 75.9412 83.6524C77.0902 86.6586 78.6901 89.3731 81.2066 91.4502C83.5548 93.4058 86.2404 94.3213 89.3281 93.5813ZM89.0069 86.768C87.0648 87.2283 85.4043 86.6559 83.9114 85.4196C82.3351 84.1115 80.9407 80.8239 80.2105 78.9401C78.9117 75.5481 78.5821 72.031 78.9871 68.4287C79.1603 66.8912 79.474 65.396 79.9958 63.9253C80.8028 61.6877 82.4962 58.6115 84.4224 57.1103C86.1149 55.793 87.9778 55.3607 90.0319 56.1467C91.4624 56.6931 92.9396 59.267 93.8374 60.4868C95.3703 62.5775 95.2007 64.3808 95.6534 66.9214C96.1419 69.7409 96.1217 72.5716 95.5842 75.3798C95.3921 76.3962 95.1135 77.3848 94.858 78.043C94.0939 80.1396 93.6152 83.372 92.2933 84.7576C91.3758 85.7269 90.3094 86.4542 89.0069 86.768ZM111.147 64.3313C108.728 69.595 107.473 75.1002 107.765 80.9049C107.916 84.1229 108.596 87.2092 110.314 89.9647C111.944 92.5706 114.199 94.2767 117.338 94.5468C119.467 94.7292 121.429 94.1484 123.298 93.1524C125.992 91.7231 128.134 89.6606 130.338 86.8609C131.038 85.9992 131.951 84.6203 132.747 83.1785C134.957 79.1734 136.414 74.8982 137.071 70.3719C137.664 66.2951 137.613 62.265 136.32 58.3092C135.573 56.0261 134.435 53.9831 132.554 52.445C129.837 50.2332 126.81 49.9483 123.605 51.1011C119.937 52.4118 117.261 55.0039 114.91 58.0153C113.406 59.9532 112.176 62.0859 111.147 64.3313ZM124.097 58.3237C126.113 57.5916 128.021 57.7818 129.712 59.1748C130.904 60.1371 131.496 63.0519 131.96 64.4869C132.77 66.9622 132.037 68.6182 131.672 71.1721C131.264 74.0109 130.349 76.6951 128.961 79.1937C128.467 80.102 127.888 80.9605 127.453 81.5075C126.073 83.2543 124.61 86.1906 122.925 87.088C121.756 87.698 120.527 88.0718 119.187 87.9628C117.212 87.7904 115.806 86.7257 114.772 85.0877C113.689 83.347 113.385 79.7872 113.282 77.7671C113.104 74.1381 113.886 70.6819 115.407 67.3844C116.046 65.9766 116.812 64.6435 117.78 63.423C119.247 61.538 121.809 59.1488 124.097 58.3237ZM193.309 127.132C194.125 123.811 193.527 120.819 191.048 118.357C189.313 116.629 187.169 115.716 184.831 115.199C180.785 114.317 176.763 114.676 172.773 115.689C168.334 116.806 164.251 118.687 160.492 121.297C159.135 122.238 157.87 123.284 157.086 124.074C154.54 126.553 152.688 128.9 151.552 131.736C150.765 133.687 150.392 135.709 150.776 137.814C151.365 140.939 153.286 142.999 156.041 144.351C158.966 145.779 162.099 146.138 165.313 145.97C171.098 145.659 176.446 143.849 181.431 140.909C183.55 139.653 185.549 138.212 187.324 136.512C190.07 133.859 192.372 130.91 193.309 127.132ZM177.973 136.968C174.853 138.812 171.506 139.944 167.87 140.151C165.853 140.264 162.272 140.319 160.447 139.415C158.717 138.573 157.516 137.267 157.143 135.318C156.892 134.007 157.135 132.74 157.618 131.51C158.327 129.73 161.098 127.985 162.698 126.419C163.196 125.92 163.992 125.264 164.828 124.676C167.172 123.036 169.75 121.854 172.525 121.16C175.021 120.525 176.606 119.632 179.14 120.184C180.608 120.512 183.57 120.792 184.654 121.869C186.214 123.42 186.58 125.291 186.071 127.371C185.487 129.745 183.382 132.54 181.655 134.198C180.552 135.288 179.298 136.18 177.973 136.968ZM140.037 89.8023C138.139 92.8099 136.901 95.5284 136.459 98.542C136.148 100.635 136.271 102.678 137.14 104.626C138.452 107.51 140.806 109.068 143.808 109.727C146.994 110.432 150.124 110.027 153.202 109.109C158.761 107.445 163.541 104.437 167.687 100.391C169.463 98.6699 171.06 96.8155 172.387 94.7222C174.443 91.5147 175.982 88.1188 176 84.2148C176.016 80.8085 174.74 78.0375 171.742 76.2168C169.655 74.942 167.352 74.5602 164.953 74.6147C160.806 74.7107 156.983 76.0115 153.328 77.9315C149.271 80.0579 145.732 82.8483 142.689 86.2795C141.608 87.5368 140.622 88.8557 140.037 89.8023ZM154.387 83.3325C156.679 82.1315 158.002 80.8899 160.601 80.8262C162.105 80.791 165.06 80.3743 166.362 81.1778C168.226 82.3165 169.033 84.0504 169.028 86.1852C169.014 88.618 167.631 91.836 166.332 93.8426C165.501 95.1494 164.492 96.3229 163.391 97.3909C160.786 99.9212 157.795 101.818 154.3 102.852C152.372 103.424 148.897 104.338 146.908 103.888C145.027 103.468 143.548 102.509 142.725 100.685C142.181 99.4663 142.104 98.1891 142.305 96.8747C142.581 94.9787 144.864 92.6267 146.056 90.7349C146.428 90.1396 147.038 89.3162 147.732 88.5426C149.635 86.4204 151.855 84.6616 154.387 83.3325Z"  style="mix-blend-mode:normal" fill="#7CCBED" ></path></g></svg>