<svg xmlns="http://www.w3.org/2000/svg" xmlns:xlink="http://www.w3.org/1999/xlink" width="369.111328125" height="678.4401245117188" viewBox="0 0 369.111328125 678.4401245117188" fill="none"><path d="M22.542 645.921C23.4322 649.595 25.7454 652.765 28.973 654.734C32.2005 656.703 36.078 657.309 39.7523 656.419C43.4266 655.529 46.5968 653.215 48.5655 649.988C50.5342 646.76 51.1402 642.883 50.25 639.208C49.8093 637.389 49.0145 635.674 47.9111 634.162C46.8077 632.65 45.4172 631.37 43.8191 630.395C42.2209 629.42 40.4465 628.77 38.597 628.481C36.7474 628.192 34.8591 628.27 33.0398 628.711C31.2204 629.151 29.5057 629.946 27.9936 631.05C26.4814 632.153 25.2013 633.544 24.2265 635.142C23.2517 636.74 22.6012 638.514 22.3122 640.364C22.0232 642.213 22.1013 644.102 22.542 645.921Z"  style="mix-blend-mode:normal" fill="#C2ECD6" ></path><path d="M42.9992 669.161C42.6613 669.243 42.3046 669.187 42.0077 669.006C41.7108 668.825 41.498 668.534 41.4162 668.196L28.9134 616.586C28.8315 616.248 28.8872 615.892 29.0683 615.595C29.2494 615.298 29.541 615.085 29.879 615.003C30.217 614.921 30.5737 614.977 30.8705 615.158C31.1674 615.339 31.3802 615.631 31.4621 615.969L43.9649 667.578C44.0468 667.916 43.991 668.273 43.8099 668.57C43.6288 668.867 43.3372 669.079 42.9992 669.161Z"  style="mix-blend-mode:normal" fill="#67B3DB" ></path><path d="M33.7036 630.791C33.5363 630.831 33.3626 630.838 33.1924 630.812C33.0223 630.785 32.8591 630.725 32.7121 630.636L23.1976 624.832C22.9045 624.649 22.6954 624.358 22.6157 624.022C22.536 623.686 22.5923 623.332 22.7722 623.037C22.9521 622.742 23.2411 622.53 23.5765 622.447C23.9119 622.364 24.2664 622.416 24.5632 622.593L32.9584 627.714L38.0791 619.319C38.1688 619.172 38.2865 619.044 38.4256 618.943C38.5647 618.841 38.7224 618.768 38.8898 618.727C39.0571 618.687 39.2308 618.68 39.401 618.706C39.5711 618.733 39.7343 618.793 39.8813 618.882C40.0283 618.972 40.1562 619.09 40.2578 619.229C40.3593 619.368 40.4324 619.526 40.4729 619.693C40.5135 619.86 40.5207 620.034 40.4941 620.204C40.4675 620.374 40.4077 620.537 40.318 620.684L34.5144 630.199C34.3332 630.496 34.0416 630.709 33.7036 630.791ZM33.7043 664.264C33.4522 664.325 33.1877 664.31 32.9442 664.221C32.7007 664.132 32.4891 663.972 32.3362 663.763C32.1833 663.553 32.096 663.303 32.0853 663.044C32.0746 662.785 32.141 662.529 32.2761 662.307L38.0796 652.793C38.1692 652.646 38.287 652.518 38.426 652.416C38.5651 652.315 38.7229 652.242 38.8902 652.201C39.0576 652.16 39.2313 652.153 39.4014 652.18C39.5716 652.206 39.7348 652.266 39.8818 652.356L49.3965 658.159C49.6933 658.341 49.906 658.632 49.9879 658.97C50.0698 659.308 50.0141 659.665 49.8331 659.962C49.6519 660.259 49.3602 660.471 49.0223 660.553C48.6843 660.635 48.3277 660.579 48.0308 660.398L39.6356 655.277L34.5148 663.673C34.4254 663.82 34.3077 663.948 34.1686 664.049C34.0295 664.151 33.8717 664.224 33.7043 664.264ZM62.2198 650.845C61.9965 650.899 61.7629 650.894 61.5425 650.829L10.5961 635.852C10.4299 635.804 10.2747 635.724 10.1396 635.616C10.0044 635.508 9.89194 635.375 9.80862 635.223C9.72529 635.072 9.67276 634.905 9.65405 634.733C9.63533 634.561 9.65081 634.387 9.69958 634.221C9.74836 634.055 9.82947 633.901 9.93824 633.766C10.047 633.632 10.1813 633.52 10.3334 633.438C10.4854 633.356 10.6523 633.304 10.8243 633.287C10.9964 633.269 11.1702 633.286 11.3357 633.336L62.2819 648.312C62.6155 648.411 62.8965 648.637 63.0631 648.943C63.2297 649.248 63.2682 649.607 63.1702 649.94C63.1053 650.161 62.9832 650.362 62.8164 650.52C62.6495 650.679 62.4437 650.791 62.2198 650.845Z"  style="mix-blend-mode:normal" fill="#67B3DB" ></path><path d="M14.5592 645.049C14.2499 645.124 13.9239 645.083 13.642 644.936C13.3601 644.788 13.1415 644.543 13.0269 644.246C12.9124 643.949 12.9097 643.621 13.0194 643.322C13.1291 643.023 13.3437 642.775 13.6232 642.623L22.2556 637.912L17.5457 629.28C17.3791 628.975 17.3407 628.616 17.4387 628.283C17.5368 627.949 17.7633 627.668 18.0686 627.501C18.2197 627.419 18.3856 627.367 18.5568 627.349C18.728 627.33 18.9012 627.346 19.0664 627.394C19.2316 627.443 19.3856 627.523 19.5197 627.632C19.6537 627.74 19.7651 627.873 19.8476 628.024L25.1856 637.807C25.2681 637.959 25.32 638.125 25.3384 638.296C25.3568 638.467 25.3412 638.64 25.2927 638.805C25.2441 638.971 25.1635 639.125 25.0554 639.259C24.9473 639.393 24.8139 639.504 24.6628 639.587L14.8792 644.925C14.7784 644.98 14.6708 645.021 14.5592 645.049ZM53.3316 656.447C53.0511 656.514 52.7562 656.488 52.4924 656.371C52.2287 656.254 52.0108 656.053 51.8726 655.8L46.5347 646.016C46.3682 645.711 46.3297 645.352 46.4278 645.019C46.5259 644.685 46.7525 644.404 47.0578 644.237L56.8414 638.899C57.1465 638.734 57.5047 638.697 57.8374 638.795C58.1701 638.894 58.4502 639.12 58.6164 639.424C58.7826 639.729 58.8213 640.087 58.724 640.42C58.6267 640.753 58.4014 641.034 58.0973 641.201L49.4649 645.912L54.1749 654.544C54.2713 654.721 54.3258 654.917 54.3341 655.118C54.3424 655.319 54.3043 655.519 54.2228 655.703C54.1412 655.887 54.0184 656.05 53.8639 656.179C53.7094 656.308 53.5272 656.4 53.3316 656.447ZM17.5272 661.673C17.2466 661.741 16.9513 661.714 16.6872 661.598C16.4231 661.481 16.2049 661.28 16.0665 661.027C15.9281 660.773 15.8772 660.481 15.9217 660.196C15.9662 659.911 16.1037 659.648 16.3127 659.449L54.7562 622.817C55.0084 622.58 55.3442 622.452 55.6904 622.461C56.0365 622.471 56.3648 622.617 56.6037 622.867C56.8425 623.118 56.9726 623.453 56.9654 623.799C56.9582 624.145 56.8143 624.475 56.5653 624.715L18.1219 661.348C17.9557 661.506 17.7506 661.618 17.5272 661.673Z"  style="mix-blend-mode:normal" fill="#67B3DB" ></path><path d="M57.2506 634.706C57.1414 634.733 57.0271 634.745 56.9096 634.742L45.7679 634.474C45.4202 634.465 45.0901 634.319 44.8502 634.067C44.6103 633.816 44.4802 633.479 44.4886 633.131L44.7573 621.99C44.7668 621.643 44.9135 621.314 45.1651 621.075C45.4167 620.836 45.7527 620.707 46.0996 620.715C46.4464 620.723 46.7759 620.869 47.0157 621.12C47.2555 621.37 47.3861 621.706 47.3789 622.053L47.1418 631.884L56.9726 632.121C57.2907 632.128 57.5953 632.251 57.8296 632.467C58.0638 632.682 58.2118 632.975 58.2458 633.292C58.2798 633.608 58.1976 633.926 58.0145 634.186C57.8314 634.446 57.5599 634.631 57.2506 634.706ZM27.9932 662.585C27.7977 662.633 27.5938 662.635 27.3974 662.591C27.2011 662.547 27.0174 662.458 26.8608 662.332C26.7041 662.206 26.5786 662.045 26.4939 661.862C26.4093 661.68 26.3678 661.48 26.3727 661.279L26.6099 651.448L16.7791 651.211C16.4322 651.201 16.1033 651.055 15.8644 650.803C15.6255 650.552 15.496 650.216 15.5043 649.869C15.5127 649.522 15.6582 649.192 15.909 648.953C16.1597 648.713 16.4953 648.582 16.8422 648.589L27.9839 648.858C28.3316 648.867 28.6617 649.013 28.9016 649.264C29.1415 649.516 29.2716 649.853 29.2632 650.201L28.9944 661.342C28.9875 661.631 28.8856 661.909 28.7046 662.134C28.5236 662.358 28.2735 662.517 27.9932 662.585Z"  style="mix-blend-mode:normal" fill="#67B3DB" ></path><path d="M303.434 43.852C302.447 48.7952 303.464 53.928 306.262 58.1214C309.059 62.3147 313.408 65.225 318.351 66.212C323.294 67.1991 328.427 66.182 332.62 63.3846C336.814 60.5872 339.724 56.2385 340.711 51.2953C341.2 48.8477 341.202 46.3277 340.716 43.8794C340.231 41.431 339.269 39.1022 337.883 37.0259C336.498 34.9496 334.718 33.1664 332.643 31.7782C330.569 30.39 328.242 29.424 325.794 28.9352C323.347 28.4465 320.827 28.4446 318.378 28.9298C315.93 29.4149 313.601 30.3775 311.525 31.7627C309.448 33.1478 307.665 34.9284 306.277 37.0027C304.889 39.077 303.923 41.4044 303.434 43.852Z"  style="mix-blend-mode:normal" fill="#9EDAF1" ></path><path d="M315.121 83.445C314.667 83.3542 314.267 83.0865 314.009 82.7008C313.752 82.3151 313.658 81.8429 313.749 81.3882L327.613 11.9559C327.704 11.5012 327.972 11.1012 328.357 10.8439C328.743 10.5866 329.215 10.493 329.67 10.5838C330.125 10.6746 330.525 10.9423 330.782 11.328C331.039 11.7138 331.133 12.1859 331.042 12.6406L317.178 82.0729C317.087 82.5276 316.82 82.9276 316.434 83.1849C316.048 83.4423 315.576 83.5358 315.121 83.445Z"  style="mix-blend-mode:normal" fill="#67B3DB" ></path><path d="M325.429 31.8233C325.204 31.7783 324.99 31.6895 324.799 31.5618C324.608 31.4341 324.444 31.2701 324.317 31.0791L316.07 18.7175C315.819 18.3318 315.729 17.8622 315.822 17.411C315.914 16.9597 316.181 16.5631 316.564 16.3075C316.947 16.0518 317.416 15.9578 317.868 16.0457C318.32 16.1336 318.72 16.3965 318.979 16.7771L326.255 27.6846L337.163 20.408C337.354 20.2805 337.568 20.192 337.793 20.1473C338.018 20.1027 338.25 20.1029 338.475 20.1478C338.7 20.1928 338.914 20.2816 339.105 20.4093C339.296 20.537 339.46 20.701 339.587 20.892C339.715 21.083 339.803 21.2972 339.848 21.5224C339.892 21.7476 339.892 21.9794 339.847 22.2045C339.802 22.4297 339.714 22.6438 339.586 22.8346C339.458 23.0254 339.294 23.1892 339.103 23.3166L326.742 31.5633C326.356 31.8204 325.884 31.9139 325.429 31.8233ZM306.631 72.3031C306.292 72.2354 305.98 72.0688 305.736 71.8241C305.492 71.5794 305.325 71.2678 305.258 70.9286C305.191 70.5894 305.226 70.2379 305.358 69.9185C305.491 69.5991 305.715 69.3262 306.003 69.1344L318.365 60.8877C318.555 60.7602 318.77 60.6716 318.995 60.627C319.22 60.5823 319.452 60.5825 319.677 60.6274C319.902 60.6723 320.116 60.7612 320.307 60.8889C320.498 61.0166 320.662 61.1806 320.789 61.3716L329.036 73.7333C329.293 74.119 329.387 74.5912 329.296 75.0459C329.205 75.5006 328.937 75.9006 328.552 76.158C328.166 76.4151 327.694 76.5085 327.239 76.4177C326.785 76.327 326.385 76.0594 326.127 75.6738L318.851 64.7664L307.944 72.0428C307.753 72.1705 307.539 72.2593 307.313 72.304C307.088 72.3486 306.856 72.3483 306.631 72.3031ZM348.651 72.09C348.35 72.03 348.071 71.8918 347.841 71.6894L294.643 24.9665C294.469 24.8155 294.326 24.6315 294.223 24.4251C294.12 24.2188 294.059 23.9941 294.044 23.7641C294.028 23.5341 294.058 23.3032 294.132 23.0848C294.206 22.8664 294.322 22.6648 294.474 22.4916C294.626 22.3183 294.811 22.1769 295.018 22.0754C295.225 21.9739 295.451 21.9144 295.681 21.9003C295.911 21.8861 296.141 21.9176 296.359 21.993C296.577 22.0684 296.778 22.1861 296.95 22.3394L350.148 69.0618C350.497 69.3678 350.709 69.7997 350.739 70.2624C350.769 70.7251 350.614 71.1808 350.308 71.5293C350.106 71.7602 349.846 71.9335 349.555 72.032C349.264 72.1304 348.952 72.1504 348.651 72.09Z"  style="mix-blend-mode:normal" fill="#67B3DB" ></path><path d="M294.27 38.3139C293.854 38.2309 293.483 37.9994 293.225 37.6626C292.967 37.3257 292.84 36.9066 292.868 36.4832C292.896 36.0598 293.077 35.6612 293.378 35.3615C293.678 35.0619 294.077 34.8818 294.501 34.8547L307.585 34.0066L306.737 20.9228C306.707 20.4602 306.862 20.0045 307.168 19.6561C307.474 19.3078 307.906 19.0952 308.369 19.0651C308.598 19.0502 308.828 19.0806 309.045 19.1545C309.262 19.2284 309.463 19.3445 309.636 19.496C309.808 19.6475 309.949 19.8315 310.05 20.0375C310.152 20.2435 310.212 20.4674 310.226 20.6965L311.187 35.5251C311.202 35.7542 311.172 35.984 311.098 36.2014C311.024 36.4188 310.908 36.6194 310.757 36.792C310.605 36.9645 310.421 37.1055 310.215 37.2069C310.009 37.3083 309.785 37.3682 309.556 37.383L294.727 38.344C294.574 38.3539 294.421 38.3438 294.27 38.3139ZM334.757 73.8721C334.379 73.7963 334.038 73.5984 333.784 73.3089C333.531 73.0193 333.38 72.6544 333.355 72.2705L332.395 57.4417C332.365 56.979 332.52 56.5233 332.826 56.1749C333.132 55.8266 333.564 55.614 334.026 55.584L348.855 54.6231C349.317 54.5948 349.771 54.7507 350.118 55.0566C350.465 55.3625 350.677 55.7935 350.707 56.2551C350.737 56.7168 350.583 57.1715 350.278 57.5196C349.973 57.8677 349.543 58.0809 349.081 58.1124L335.997 58.9605L336.845 72.0445C336.862 72.3123 336.818 72.5804 336.715 72.8282C336.612 73.076 336.454 73.2969 336.252 73.4736C336.05 73.6503 335.81 73.7781 335.551 73.8472C335.291 73.9163 335.02 73.9248 334.757 73.8721ZM288.524 60.0841C288.146 60.009 287.804 59.8113 287.55 59.5218C287.296 59.2323 287.145 58.8671 287.12 58.4829C287.095 58.0987 287.197 57.7169 287.411 57.3969C287.625 57.0769 287.939 56.8364 288.304 56.7129L355.366 34.0036C355.804 33.8584 356.282 33.8924 356.695 34.0983C357.108 34.3042 357.423 34.6651 357.571 35.1024C357.719 35.5397 357.689 36.0178 357.485 36.4324C357.282 36.847 356.923 37.1644 356.487 37.3153L289.425 60.025C289.135 60.1237 288.824 60.1441 288.524 60.0841Z"  style="mix-blend-mode:normal" fill="#67B3DB" ></path><path d="M351.705 49.7823C351.558 49.753 351.413 49.7041 351.272 49.6345L337.95 43.0523C337.534 42.847 337.217 42.4849 337.068 42.0457C336.919 41.6065 336.951 41.1263 337.157 40.7105L343.739 27.3881C343.945 26.974 344.307 26.6586 344.745 26.511C345.184 26.3633 345.663 26.3955 346.078 26.6004C346.492 26.8053 346.809 27.1663 346.958 27.6042C347.107 28.0421 347.077 28.5213 346.873 28.9368L341.066 40.6919L352.821 46.4998C353.201 46.6874 353.501 47.007 353.663 47.3991C353.825 47.7911 353.84 48.2288 353.703 48.6305C353.566 49.0322 353.289 49.3706 352.921 49.5825C352.553 49.7944 352.121 49.8654 351.705 49.7823ZM300.668 67.0653C300.405 67.013 300.157 66.9007 299.944 66.7374C299.731 66.574 299.559 66.3638 299.44 66.1231C299.322 65.8824 299.26 65.6177 299.26 65.3494C299.261 65.0811 299.323 64.8164 299.441 64.5759L305.249 52.8208L293.494 47.0129C293.08 46.8066 292.765 46.4445 292.617 46.0061C292.469 45.5676 292.502 45.0886 292.706 44.6738C292.911 44.259 293.272 43.9423 293.71 43.7932C294.148 43.644 294.627 43.6745 295.043 43.878L308.365 50.4602C308.781 50.6655 309.098 51.0276 309.247 51.4668C309.396 51.906 309.364 52.3863 309.159 52.802L302.576 66.1246C302.406 66.4695 302.127 66.7486 301.782 66.9187C301.436 67.0888 301.045 67.1403 300.668 67.0653Z"  style="mix-blend-mode:normal" fill="#67B3DB" ></path></svg>