<svg xmlns="http://www.w3.org/2000/svg" xmlns:xlink="http://www.w3.org/1999/xlink" width="84.513427734375" height="84.51342391967773" viewBox="0 0 84.513427734375 84.51342391967773" fill="none"><path d="M26.299 46.5743C27.3375 50.861 30.0363 54.5596 33.8018 56.8565C37.5673 59.1533 42.091 59.8602 46.3777 58.8217C50.6644 57.7832 54.3629 55.0844 56.6598 51.3189C58.9566 47.5535 59.6635 43.0298 58.625 38.7431C58.1108 36.6205 57.1836 34.62 55.8963 32.8558C54.6089 31.0916 52.9867 29.5983 51.1222 28.461C49.2578 27.3237 47.1875 26.5648 45.0298 26.2276C42.872 25.8904 40.669 25.9815 38.5464 26.4957C36.4238 27.0099 34.4234 27.9372 32.6591 29.2245C30.8949 30.5118 29.4016 32.134 28.2643 33.9985C27.127 35.863 26.3681 37.9332 26.0309 40.091C25.6937 42.2487 25.7848 44.4518 26.299 46.5743Z"  style="mix-blend-mode:normal" fill="#C2ECD6" ></path><path d="M50.1658 73.688C49.7715 73.7836 49.3554 73.7186 49.009 73.5073C48.6626 73.296 48.4144 72.9558 48.3188 72.5615L33.7323 12.3506C33.6367 11.9563 33.7018 11.5402 33.913 11.1938C34.1243 10.8474 34.4645 10.5992 34.8588 10.5037C35.2531 10.4081 35.6693 10.4732 36.0156 10.6844C36.362 10.8957 36.6103 11.2359 36.7058 11.6302L51.2924 71.8411C51.3879 72.2354 51.3229 72.6515 51.1116 72.9979C50.9003 73.3443 50.5601 73.5925 50.1658 73.688Z"  style="mix-blend-mode:normal" fill="#67B3DB" ></path><path d="M39.3209 28.9223C39.1257 28.9696 38.923 28.978 38.7245 28.947C38.526 28.916 38.3356 28.8462 38.1641 28.7416L27.0639 21.9706C26.7219 21.7573 26.4779 21.4176 26.385 21.0254C26.292 20.6332 26.3576 20.2202 26.5675 19.8761C26.7774 19.5319 27.1147 19.2846 27.5059 19.1877C27.8972 19.0909 28.3109 19.1523 28.657 19.3588L38.4514 25.3333L44.4256 15.5387C44.5302 15.3672 44.6676 15.218 44.8299 15.0996C44.9922 14.9811 45.1762 14.8958 45.3714 14.8485C45.5666 14.8012 45.7693 14.7928 45.9678 14.8238C46.1663 14.8548 46.3567 14.9246 46.5282 15.0292C46.6997 15.1338 46.8489 15.2712 46.9674 15.4335C47.0858 15.5958 47.1711 15.7798 47.2184 15.975C47.2657 16.1702 47.2741 16.3729 47.2431 16.5714C47.2121 16.7699 47.1423 16.9603 47.0377 17.1318L40.2668 28.2322C40.0554 28.5784 39.7152 28.8266 39.3209 28.9223ZM39.3216 67.9749C39.0276 68.0462 38.719 68.0287 38.4349 67.9246C38.1508 67.8205 37.9039 67.6345 37.7256 67.3901C37.5472 67.1456 37.4453 66.8538 37.4329 66.5515C37.4204 66.2492 37.4978 65.9499 37.6555 65.6917L44.4262 54.5913C44.5308 54.4198 44.6681 54.2705 44.8304 54.1521C44.9927 54.0337 45.1767 53.9483 45.3719 53.901C45.5672 53.8537 45.7698 53.8453 45.9683 53.8763C46.1668 53.9073 46.3573 53.9771 46.5288 54.0817L57.6292 60.8526C57.9755 61.064 58.2237 61.4042 58.3192 61.7985C58.4148 62.1928 58.3498 62.6089 58.1386 62.9553C57.9272 63.3016 57.5869 63.5497 57.1927 63.6452C56.7984 63.7407 56.3823 63.6758 56.0359 63.4647L46.2415 57.4903L40.2672 67.2846C40.1629 67.4563 40.0257 67.6057 39.8634 67.7242C39.7011 67.8426 39.517 67.9278 39.3216 67.9749ZM72.5897 52.3196C72.3292 52.3827 72.0567 52.376 71.7996 52.3001L12.3621 34.8268C12.1682 34.7712 11.9872 34.6778 11.8295 34.5519C11.6718 34.4261 11.5406 34.2703 11.4434 34.0935C11.3462 33.9167 11.2849 33.7225 11.2631 33.5219C11.2412 33.3213 11.2593 33.1184 11.3162 32.9249C11.3731 32.7313 11.4677 32.5509 11.5946 32.3941C11.7215 32.2373 11.8782 32.1071 12.0556 32.011C12.233 31.915 12.4277 31.855 12.6284 31.8345C12.8291 31.814 13.0319 31.8334 13.225 31.8916L72.6622 49.3645C73.0515 49.479 73.3793 49.7434 73.5737 50.0995C73.768 50.4557 73.813 50.8745 73.6986 51.2638C73.6228 51.5217 73.4805 51.7551 73.2858 51.9404C73.0911 52.1258 72.851 52.2566 72.5897 52.3196Z"  style="mix-blend-mode:normal" fill="#67B3DB" ></path><path d="M16.9857 45.5566C16.6249 45.6441 16.2446 45.5973 15.9157 45.4251C15.5868 45.2529 15.3317 44.9669 15.1981 44.6206C15.0644 44.2742 15.0613 43.891 15.1893 43.5425C15.3173 43.194 15.5677 42.904 15.8937 42.7264L25.9649 37.2312L20.47 27.1604C20.2757 26.8043 20.2308 26.3856 20.3452 25.9963C20.4596 25.6071 20.7239 25.2793 21.08 25.0849C21.2563 24.9886 21.4499 24.9281 21.6496 24.9066C21.8494 24.8852 22.0514 24.9033 22.2441 24.9599C22.4369 25.0166 22.6166 25.1107 22.7729 25.2368C22.9293 25.3629 23.0593 25.5186 23.1555 25.6949L29.3832 37.1087C29.4794 37.285 29.54 37.4786 29.5614 37.6784C29.5829 37.8781 29.5648 38.0801 29.5081 38.2729C29.4515 38.4656 29.3574 38.6453 29.2313 38.8017C29.1052 38.9581 28.9496 39.0882 28.7732 39.1844L17.359 45.4122C17.2414 45.4764 17.1159 45.525 16.9857 45.5566ZM62.2202 58.8545C61.893 58.9334 61.5489 58.9022 61.2412 58.7658C60.9334 58.6294 60.6793 58.3953 60.518 58.0998L54.2905 46.6858C54.0962 46.3296 54.0513 45.9109 54.1657 45.5216C54.2802 45.1324 54.5446 44.8046 54.9007 44.6102L66.3149 38.3824C66.6709 38.1898 67.0888 38.1461 67.477 38.261C67.8651 38.3758 68.1919 38.6399 68.3858 38.9952C68.5797 39.3506 68.6248 39.7683 68.5113 40.1568C68.3978 40.5454 68.1349 40.8731 67.7802 41.0682L57.7091 46.5635L63.204 56.6344C63.3165 56.8405 63.3801 57.0697 63.3897 57.3043C63.3994 57.5389 63.355 57.7726 63.2599 57.9872C63.1647 58.2018 63.0215 58.3917 62.8412 58.5421C62.6609 58.6925 62.4484 58.7994 62.2202 58.8545ZM20.4484 64.9513C20.121 65.0309 19.7765 65.0002 19.4684 64.864C19.1602 64.7278 18.9057 64.4936 18.7442 64.198C18.5827 63.9023 18.5233 63.5616 18.5753 63.2287C18.6272 62.8958 18.7876 62.5894 19.0315 62.357L63.8822 19.6195C64.1765 19.3427 64.5683 19.1936 64.9721 19.2047C65.3759 19.2158 65.7589 19.3861 66.0376 19.6786C66.3163 19.971 66.468 20.3618 66.4596 20.7657C66.4512 21.1696 66.2834 21.5537 65.9928 21.8344L21.1422 64.5721C20.9483 64.7573 20.709 64.8882 20.4484 64.9513Z"  style="mix-blend-mode:normal" fill="#67B3DB" ></path><path d="M66.7924 33.4905C66.665 33.5214 66.5316 33.5362 66.3945 33.5327L53.3958 33.2191C52.9902 33.2094 52.6051 33.0389 52.3252 32.7452C52.0454 32.4515 51.8936 32.0586 51.9034 31.653L52.2168 18.6546C52.2279 18.2499 52.399 17.8662 52.6926 17.5875C52.9861 17.3087 53.3781 17.1576 53.7828 17.1674C54.1875 17.1772 54.5718 17.3469 54.8516 17.6395C55.1314 17.932 55.2838 18.3236 55.2754 18.7283L54.9988 30.1975L66.468 30.4744C66.8392 30.483 67.1945 30.6263 67.4678 30.8776C67.7411 31.1289 67.9137 31.471 67.9534 31.8401C67.9931 32.2093 67.8972 32.5802 67.6836 32.8839C67.47 33.1875 67.1532 33.4032 66.7924 33.4905ZM32.6587 66.016C32.4306 66.0714 32.1928 66.0736 31.9637 66.0224C31.7346 65.9711 31.5203 65.8679 31.3375 65.7206C31.1548 65.5732 31.0083 65.3858 30.9096 65.1728C30.8109 64.9598 30.7625 64.727 30.7682 64.4923L31.0448 53.0231L19.5756 52.7462C19.1709 52.7351 18.7872 52.564 18.5084 52.2705C18.2297 51.9769 18.0786 51.5849 18.0884 51.1802C18.0981 50.7755 18.2679 50.3912 18.5605 50.1114C18.853 49.8316 19.2446 49.6792 19.6493 49.6876L32.6479 50.0012C33.0535 50.0109 33.4386 50.1814 33.7185 50.4751C33.9984 50.7689 34.1502 51.1617 34.1404 51.5673L33.8268 64.566C33.8187 64.9025 33.6999 65.227 33.4887 65.4891C33.2775 65.7512 32.9858 65.9364 32.6587 66.016Z"  style="mix-blend-mode:normal" fill="#67B3DB" ></path></svg>