<svg xmlns="http://www.w3.org/2000/svg" xmlns:xlink="http://www.w3.org/1999/xlink" width="127.7529296875" height="101.4156494140625" viewBox="0 0 127.7529296875 101.4156494140625" fill="none"><path    style="mix-blend-mode:normal" fill="#9EDAF1"  d="M17.4204 35.5844C17.4204 35.5844 18.1152 35.8335 18.5293 35.7803C20.0341 35.7146 21.2284 34.3204 21.1844 32.7912C21.1024 30.542 23.5306 9.72177 34.3115 5.81943C38.5107 4.29863 44.6351 12.5563 47.0767 16.7618C47.4369 17.4071 48.0369 17.8746 48.7424 18.071C49.448 18.2675 50.21 18.1743 50.855 17.8089C51.4947 17.4337 51.9655 16.8222 52.1684 16.1021C52.3712 15.3819 52.2892 14.6095 51.9385 13.9586C50.9876 12.205 42.2011 -2.95537 32.4642 0.514224C18.0498 5.73667 15.3351 30.0884 15.5106 33.1783C15.5953 34.3186 16.3334 35.2901 17.2959 35.6353L17.4204 35.5844ZM61.1076 23.9086C62.595 24.4421 64.1509 23.6877 64.696 22.1679L65.8507 18.9487C66.3958 17.4289 65.6741 15.8576 64.1867 15.3241C62.6994 14.7906 61.1435 15.545 60.5983 17.0648L59.4437 20.284C58.8986 21.8037 59.6202 23.3751 61.1076 23.9086ZM1.26682 36.5471L15.0991 45.3437L15.7109 45.5632C16.9358 46.0025 18.3108 45.486 19.0222 44.3286C19.8852 43.0238 19.4341 41.2466 18.1625 40.3869L4.33022 31.5903C3.69412 31.2169 2.94269 31.1081 2.22114 31.28C1.49959 31.452 0.865685 31.8993 0.446945 32.5241C-0.416077 33.8289 0.0255795 35.6027 1.29721 36.4624L1.26682 36.5471ZM101.85 36.408C106.352 34.5924 116.384 32.2307 118.66 36.0738C124.503 45.9388 113.144 63.5558 111.651 65.2401C110.645 66.3927 110.593 68.1968 111.801 69.2353C112.087 69.5396 112.432 69.6634 112.782 69.7889C113.832 70.1655 115.025 69.887 115.816 69.0605C117.915 66.7865 131.297 46.261 123.488 33.0675C118.264 24.2315 101.845 30.351 99.9084 31.069C98.4183 31.6444 97.7201 33.3122 98.2977 34.7302C98.8433 36.2376 100.481 36.9207 101.884 36.3139L101.85 36.408ZM86.4752 33.0075C87.9625 33.541 89.5184 32.7866 90.0636 31.2668L91.2182 28.0476C91.7634 26.5279 91.0417 24.9565 89.5543 24.423C88.0669 23.8895 86.511 24.6439 85.9659 26.1637L84.8112 29.3829C84.2661 30.9026 84.9878 32.474 86.4752 33.0075ZM73.8265 28.375C75.3139 28.9085 76.8604 28.1507 77.4055 26.6309L79.0429 22.0657C79.5881 20.546 78.8758 18.978 77.3884 18.4445C75.901 17.911 74.3451 18.6654 73.8 20.1852L72.1625 24.7504C71.6174 26.2702 72.3391 27.8415 73.8265 28.375ZM105.923 75.7004C105.737 77.0461 106.47 78.3187 107.695 78.7581L108.307 78.9776L124.576 80.9781C126.105 81.1226 127.485 80.0026 127.736 78.4781C127.899 76.9222 126.856 75.4429 125.328 75.2984L109.058 73.2979C107.53 73.1533 106.14 74.27 105.889 75.7945L105.923 75.7004ZM105.725 87.5385C105.085 87.1724 104.327 87.0736 103.611 87.2692C102.896 87.4649 102.281 87.9411 101.896 88.5874C101.12 89.9236 101.57 91.695 102.874 92.4653L117.561 101.069L118.088 101.258C119.313 101.698 120.768 101.205 121.424 99.9264C121.793 99.2705 121.899 98.5041 121.716 97.7789C121.534 97.0537 121.076 96.4312 120.446 96.0484L105.758 87.4444L105.725 87.5385ZM49.2136 56.7726C50.876 57.3689 52.9912 55.609 53.8016 53.0745C54.6119 50.5399 53.8645 47.9498 52.0826 47.4116C50.4202 46.8153 48.3049 48.5752 47.4946 51.1097C46.6522 53.7336 47.4317 56.2344 49.2136 56.7726ZM78.7236 55.4481C77.0612 54.8518 74.9426 56.6211 74.1322 59.1556C73.3219 61.6901 74.0787 64.2836 75.8606 64.8219C77.523 65.4182 79.6322 63.6455 80.4426 61.111C81.2529 58.5764 80.5055 55.9863 78.7236 55.4481ZM61.8704 58.3909L64.4119 59.3024C65.8759 59.6258 67.46 58.7805 67.8856 57.3188C68.3986 55.8884 67.5922 54.2867 66.0728 53.8426L63.5313 52.931C62.0673 52.6077 60.4832 53.4529 60.0576 54.9147C59.5446 56.3451 60.351 57.9468 61.8704 58.3909Z"></path><path    style="mix-blend-mode:normal" fill="#9EDAF1"  d="M13.3895 54.9081C12.9613 54.3021 12.3138 53.8971 11.587 53.7729L-4.37998 51.1054L-4.36324 57.0714L10.6227 59.4826C12.1187 59.7165 13.5954 58.6255 13.846 57.101L13.8764 57.0163C13.9898 56.2725 13.8178 55.5141 13.3895 54.9081Z"></path><path    style="mix-blend-mode:normal" fill="#9EDAF1"  d="M4.79781 63.0452C4.50975 62.8186 4.18873 62.6529 3.83453 62.5615C3.48034 62.4701 3.1104 62.453 2.74756 62.5116C2.38472 62.5703 2.02977 62.6972 1.71717 62.8963C1.40458 63.0955 1.12994 63.3648 0.918321 63.6722C0.634116 64.0529 -1.48035 66.9444 -4.37987 71.2164L-4.3636 80.9749C0.666185 73.1457 5.28051 67.0841 5.36354 66.977C5.59036 66.681 5.76255 66.3469 5.85729 65.9855C5.95204 65.6241 5.96667 65.2479 5.91396 64.8797C5.86125 64.5116 5.73365 64.1584 5.54204 63.8433C5.35043 63.5282 5.09722 63.2561 4.79781 63.0452Z"></path><path    style="mix-blend-mode:normal" fill="#9EDAF1"  d="M106.38 99.3643C106.053 99.2066 105.69 99.1209 105.327 99.1032C104.963 99.0856 104.604 99.1374 104.26 99.2626C103.916 99.3877 103.596 99.5808 103.324 99.8297C103.051 100.079 102.837 100.379 102.678 100.713C102.518 101.048 102.423 101.413 102.4 101.783C102.37 102.067 101.281 121.487 98.008 136.509L103.661 136.475C106.85 121.215 107.92 103.158 107.923 102.053C107.946 101.683 107.902 101.31 107.783 100.962C107.665 100.614 107.48 100.297 107.239 100.023C106.997 99.7489 106.707 99.5221 106.38 99.3643Z"></path><path    style="mix-blend-mode:normal" fill="#9EDAF1"  d="M138.149 116.623C137.139 112.831 134.256 110.686 130.252 110.561C123.302 110.389 119.938 116.754 116.859 122.309C115.115 125.518 113.342 128.809 111.1 130.931C109.117 132.747 105.862 135.056 103.851 136.48L113.522 136.411C114.011 136.006 114.476 135.608 114.893 135.224C117.862 132.455 119.884 128.742 121.875 125.118C124.834 119.621 126.815 116.292 130.142 116.376C131.702 116.431 132.481 117.013 132.796 118.337C134.106 122.944 129.707 131.876 122.945 136.412L131.681 136.55C136.809 130.445 139.693 122.268 138.149 116.623Z"></path></svg>