<svg xmlns="http://www.w3.org/2000/svg" xmlns:xlink="http://www.w3.org/1999/xlink" width="30" height="30" viewBox="0 0 30 30" fill="none"><path d="M0.426082 0.419613C0.985574 -0.139871 1.89114 -0.139871 2.45064 0.419613L15.0034 12.9717L27.5563 0.419613C27.8253 0.154097 28.1885 0.00578665 28.5666 0.00704723C28.9446 0.0083078 29.3068 0.159036 29.5741 0.426341C29.8414 0.693647 29.9921 1.05583 29.9934 1.43385C29.9946 1.81188 29.8463 2.17506 29.5808 2.44414L17.0286 14.9968L29.5808 27.5494C30.1155 28.0841 30.1386 28.9366 29.6506 29.4989L29.5808 29.5739C29.0213 30.1334 28.1158 30.1334 27.5563 29.5739L15.0034 17.0219L2.45064 29.5739C2.31802 29.7083 2.16014 29.8151 1.98607 29.8883C1.812 29.9614 1.62519 29.9994 1.43638 30C1.24758 30.0006 1.06051 29.9639 0.885961 29.8919C0.711408 29.82 0.552813 29.7142 0.419308 29.5807C0.285803 29.4472 0.180025 29.2886 0.108063 29.114C0.0361016 28.9395 -0.000621631 28.7524 7.96021e-06 28.5636C0.000637552 28.3748 0.0386075 28.188 0.111732 28.014C0.184856 27.8399 0.29169 27.682 0.426082 27.5494L12.9783 14.9968L0.426082 2.44414C0.170149 2.1882 0.0206645 1.84481 0.00771534 1.48309C-0.00523386 1.12138 0.119313 0.768183 0.35629 0.494595L0.426082 0.419613Z"  style="mix-blend-mode:normal" fill="#000000" ></path></svg>