<svg xmlns="http://www.w3.org/2000/svg" xmlns:xlink="http://www.w3.org/1999/xlink" width="389.997314453125" height="262" viewBox="0 0 389.997314453125 262" fill="none"><path d="M124.99 262C123.445 262 121.5 261.996 119.93 260.045C114.098 257.18 108.633 247.675 103.2 233.411C95.0004 210.552 90.3455 181.963 85.66 154.349C83.716 142.889 81.7728 130.568 79.43 119.108C78.6227 114.941 77.5688 111.084 76.31 107.651C72.8208 100.031 66.5955 104.785 61.91 113.379C60.3648 116.244 53.3652 134.413 51.82 137.217C46.7651 146.788 41.299 178.119 20.66 189.577C9.7687 199.086 0.4 189.577 0.4 189.577L0 155.259L0.4 63.1244L0.4 54.3141C0.4 53.3388 0 50.5266 0 50.5266L0 9.57047C0 3.84051 1.54725 0 3.89 0L385.91 0C388.253 0 389.82 3.84051 389.82 9.57047L389.82 19.0731C389.82 20.9627 390.219 117.219 389.82 119.108L389.82 149.584L381.24 178.119C373.838 203.843 355.196 218.492 341.92 197.518C338.805 204.223 346.979 197.518 341.92 197.518C332.57 180.386 322.433 151.481 318.57 137.217C317.198 130.956 315.482 125.164 313.48 120.018C308.794 108.619 299.443 106.674 292.44 116.244C286.209 124.778 280.762 140.016 276.5 162.874C275.329 168.604 274.526 174.331 273.38 180.061C268.694 206.699 263.633 238.153 251.57 249.552C244.941 256.257 237.146 255.284 229.37 247.665C223.799 242.484 218.842 233.977 214.96 222.917C210.673 209.568 208.334 193.359 206.39 178.119C203.648 159.101 201.331 140.993 195.1 132.398C186.925 121.975 176.011 134.356 169.78 151.485C165.892 162.884 162.8 175.252 159.66 189.577C157.317 200.061 154.995 210.552 151.88 220.976C146.023 241.945 135.906 261.932 124.99 261.932L124.99 262Z"  style="mix-blend-mode:normal" fill="#9EDAF1" ></path></svg>