<svg xmlns="http://www.w3.org/2000/svg" xmlns:xlink="http://www.w3.org/1999/xlink" width="386.00000190734863" height="144.22296142578125" viewBox="0 0 386.00000190734863 144.22296142578125" fill="none"><g opacity="0.5"><g  clip-path="url(#clip-path-_ezDhhNo111KshcdCIvAp)"><path d="M157.849 91.7355C156.776 91.7356 155.739 91.5676 154.93 91.2628C154.121 90.958 153.595 90.5369 153.45 90.0776L142.562 55.6006L130.95 69.4006C130.634 69.7685 130.065 70.0858 129.319 70.3096C128.573 70.5334 127.685 70.653 126.777 70.6522L113.46 70.6522C112.283 70.6522 111.154 70.4502 110.321 70.0908C109.489 69.7314 109.021 69.2438 109.021 68.7355C109.021 68.2272 109.489 67.7397 110.321 67.3802C111.154 67.0208 112.283 66.8188 113.46 66.8188L123.67 66.8188L140.36 46.9967C140.699 46.5937 141.34 46.2514 142.183 46.0245C143.025 45.7975 144.019 45.699 145.006 45.7447C145.993 45.7904 146.916 45.9776 147.628 46.2765C148.339 46.5754 148.798 46.9686 148.932 47.3934L159.914 82.1637L175.894 64.2141C176.184 63.8858 176.678 63.5982 177.321 63.3829C177.964 63.1676 178.732 63.0327 179.541 62.9932C180.35 62.9536 181.168 63.0108 181.907 63.1585C182.645 63.3062 183.275 63.5388 183.728 63.8308L198.004 73.0768L207.565 67.5855C207.979 67.3475 208.515 67.1543 209.131 67.0212C209.748 66.8881 210.427 66.8188 211.117 66.8188L224.433 66.8188C225.611 66.8188 226.74 67.0208 227.572 67.3802C228.405 67.7397 228.872 68.2272 228.872 68.7355C228.872 69.2438 228.405 69.7314 227.572 70.0908C226.74 70.4502 225.611 70.6522 224.433 70.6522L213.336 70.6522L201.351 77.5522C200.925 77.7974 200.369 77.995 199.73 78.1283C199.091 78.2616 198.387 78.3268 197.677 78.3183C196.967 78.3099 196.273 78.2281 195.652 78.0797C195.03 77.9314 194.501 77.7209 194.107 77.4659L181.109 69.046L161.995 90.5127C161.671 90.8734 161.101 91.1833 160.361 91.4015C159.621 91.6198 158.746 91.7362 157.849 91.7355Z"  style="mix-blend-mode:normal" fill="#7CCBED" ></path></g></g><path    style="mix-blend-mode:normal" fill="#9EDAF1"  d="M252.789 68.9832C252.789 68.9832 253.503 68.7962 253.814 68.5182C255.017 67.6138 255.214 65.7887 254.315 64.5518C252.978 62.7424 243.229 44.1925 249.91 34.8811C252.513 31.2536 262.219 34.6061 266.605 36.6963C267.266 37.0251 268.024 37.0718 268.716 36.8352C269.409 36.5986 269.984 36.0912 270.309 35.4253C270.625 34.7543 270.667 33.9837 270.428 33.2749C270.189 32.5661 269.685 31.9752 269.029 31.6363C267.256 30.7268 251.46 23.1834 245.394 31.5479C236.464 44.0015 247.969 65.627 249.858 68.0772C250.571 68.9701 251.728 69.3546 252.716 69.0956L252.789 68.9832ZM282.2 34.6646C283.727 34.2644 284.583 32.7628 284.175 31.2008L283.309 27.8924C282.901 26.3305 281.419 25.4418 279.893 25.8421C278.366 26.2423 277.51 27.7439 277.918 29.3059L278.783 32.6143C279.192 34.1762 280.673 35.0649 282.2 34.6646ZM240.031 78.9025L256.384 78.3469L257.012 78.1822C258.27 77.8526 259.111 76.6496 259.044 75.2926C259.019 73.7284 257.644 72.517 256.111 72.5263L239.749 73.0845C239.014 73.1358 238.333 73.4706 237.836 74.0202C237.338 74.5698 237.068 75.297 237.076 76.0491C237.101 77.6133 238.475 78.8247 240.008 78.8155L240.031 78.9025ZM261.964 88.6683C261.638 87.9906 261.068 87.462 260.373 87.204C259.678 86.9461 258.916 86.9777 258.247 87.2859L242.875 94.5517C241.51 95.2041 240.909 96.9386 241.563 98.338C242.168 99.5537 243.504 100.279 244.761 99.9493L245.302 99.8075L260.675 92.5417C262.04 91.8893 262.641 90.1548 261.987 88.7554L261.964 88.6683ZM322.827 21.9561C325.512 17.914 332.446 10.2968 336.49 12.1819C346.872 17.0196 347.454 37.9729 347.175 40.2061C346.996 41.7255 347.972 43.2431 349.553 43.4176C349.96 43.5072 350.314 43.4144 350.673 43.3203C351.751 43.0377 352.578 42.1333 352.763 41.0049C353.209 37.9425 352.653 13.4463 338.772 6.97319C329.481 2.63503 319.404 16.9616 318.214 18.6481C317.311 19.9649 317.686 21.7328 318.963 22.5764C320.263 23.5118 321.988 23.1525 322.802 21.8593L322.827 21.9561ZM308.239 27.8379C309.765 27.4376 310.622 25.936 310.213 24.3741L309.348 21.0656C308.939 19.5037 307.458 18.6151 305.931 19.0153C304.405 19.4156 303.548 20.9172 303.957 22.4791L304.822 25.7876C305.23 27.3495 306.712 28.2382 308.239 27.8379ZM295.201 31.1629C296.728 30.7626 297.575 29.2636 297.166 27.7017L295.939 23.0099C295.531 21.4479 294.059 20.5567 292.532 20.957C291.005 21.3573 290.149 22.8589 290.558 24.4208L291.785 29.1126C292.193 30.6745 293.675 31.5632 295.201 31.1629ZM348.358 52.073C348.964 53.2887 350.286 53.9243 351.543 53.5947L352.171 53.4301L366.707 45.8873C368.048 45.1431 368.554 43.4387 367.9 42.0393C367.156 40.6635 365.462 40.0323 364.122 40.7765L349.586 48.3192C348.245 49.0634 347.729 50.7704 348.383 52.1698L348.358 52.073ZM290.946 68.5C292.652 68.0527 293.402 65.4055 292.639 62.8564C291.877 60.3074 289.799 58.5928 288.027 59.1556C286.32 59.6029 285.571 62.2501 286.333 64.7992C287.12 67.4401 289.173 69.0628 290.946 68.5ZM314.515 50.7327C312.809 51.18 312.062 53.8369 312.824 56.386C313.587 58.935 315.674 60.6471 317.446 60.0843C319.153 59.6369 319.89 56.9826 319.128 54.4336C318.365 51.8845 316.287 50.1699 314.515 50.7327ZM302.288 62.6835L304.897 61.9995C306.286 61.4391 307.114 59.8466 306.64 58.4001C306.256 56.93 304.687 56.0642 303.185 56.5564L300.576 57.2403C299.187 57.8008 298.359 59.3933 298.833 60.8398C299.217 62.3098 300.786 63.1756 302.288 62.6835Z"></path><path    style="mix-blend-mode:normal" fill="#9EDAF1"  d="M354.85 61.8555L354.875 61.9523C354.141 62.0119 353.461 62.3583 352.982 62.9242C352.502 63.49 352.265 64.2303 352.312 64.9812C352.427 66.5219 353.797 67.7291 355.306 67.628L372.265 66.4277L373.089 66.2633L372.995 59.7446L354.85 61.8555Z"></path><path    style="mix-blend-mode:normal" fill="#9EDAF1"  d="M362.089 71.3387C361.731 71.3933 361.393 71.5255 361.083 71.7161C360.774 71.9068 360.498 72.155 360.285 72.4527C360.072 72.7504 359.918 73.0903 359.833 73.4497C359.749 73.8091 359.742 74.1776 359.799 74.544C359.857 74.9104 359.984 75.2652 360.174 75.5828C360.29 75.7974 367.634 87.9589 373.379 100.372L373.405 87.8783C369.118 79.6328 365.27 73.2614 364.878 72.6853C364.688 72.3677 364.441 72.0844 364.147 71.8639C363.853 71.6435 363.521 71.4867 363.168 71.397C362.815 71.3073 362.448 71.284 362.089 71.3387Z"></path><path    style="mix-blend-mode:normal" fill="#9EDAF1"  d="M257.885 98.7723C257.52 98.7481 257.162 98.7929 256.819 98.9176C256.475 99.0423 256.161 99.2372 255.895 99.4906C255.629 99.744 255.408 100.049 255.263 100.39C255.118 100.731 255.053 101.106 255.052 101.479C255.002 102.721 253.738 125.609 256.516 141.896L262.758 141.8C259.862 126.17 260.556 101.941 260.57 101.697C260.59 101.324 260.544 100.951 260.418 100.6C260.292 100.248 260.092 99.9292 259.84 99.6553C259.589 99.3813 259.285 99.162 258.949 99.0103C258.613 98.8586 258.251 98.7772 257.885 98.7723Z"></path><path     fill="#C2ECD6"  d="M57.0514 82.3615C57.954 82.734 58.2941 83.8259 57.8488 84.7356C57.455 85.6706 56.4123 86.1398 55.5333 85.8495L54.0341 85.1138C53.1315 84.7414 52.7691 83.6496 53.2143 82.7399C53.6082 81.8049 54.6732 81.3355 55.5522 81.6259L57.0514 82.3615ZM91.7956 122.97C94.2671 123.267 95.8571 124.827 96.1458 127.367C96.2324 128.085 96.2087 128.857 96.0932 129.658L92.6452 129.514L92.6747 128.203C92.597 127.319 92.1769 126.893 91.2144 126.773C89.6089 126.591 88.3215 127.813 86.7302 129.998L82.438 129.941C84.8409 126.466 87.502 122.485 91.7956 122.97ZM40.95 45.6322C47.2957 43.8808 51.3848 54.2769 51.8185 55.4769C51.978 55.9222 51.9619 56.4301 51.772 56.8911C51.5822 57.352 51.2316 57.7294 50.8016 57.9409C50.3692 58.1458 49.8899 58.1669 49.4699 58.0003C49.0499 57.8338 48.7295 57.4964 48.5635 57.0543C47.4236 54.168 44.3666 48.4349 41.6277 49.2062C34.5962 51.1852 31.2365 64.6892 31.0873 66.1673C30.9786 67.1716 30.1143 68.0181 29.1754 67.9805C28.9139 67.9932 28.4988 67.7933 28.4988 67.7933L28.4186 67.8207C27.8526 67.543 27.4884 66.8701 27.5373 66.1184C27.7033 64.0845 31.5483 48.2813 40.95 45.6322ZM59.2971 57.0304C60.1719 57.4596 60.47 58.5237 59.9969 59.4902L58.9945 61.538C58.5213 62.5046 57.4988 62.9205 56.624 62.4912C55.7492 62.0619 55.4421 60.9935 55.9152 60.027L56.9176 57.9792C57.3908 57.0126 58.4223 56.6011 59.2971 57.0304ZM19.4563 64.1579C19.919 64.0839 20.3853 64.2004 20.7465 64.4791L28.5386 70.9874C29.2506 71.6189 29.3767 72.7991 28.7256 73.6078C28.1816 74.328 27.2785 74.5908 26.5581 74.2373L26.199 74.0611L18.4025 67.5618L18.4333 67.4989C17.7213 66.8675 17.5951 65.6872 18.2463 64.8786C18.5614 64.4916 18.9936 64.2319 19.4563 64.1579ZM23.2655 79.3942C23.7051 79.5145 24.0756 79.8209 24.2873 80.2409C24.499 80.6609 24.5382 81.1636 24.4017 81.6449L24.3709 81.7077C24.08 82.6932 23.0672 83.3182 22.1604 83.0847L11.9859 80.42L11.6717 80.2658C10.9513 79.9123 10.6408 78.9871 10.8761 78.1154C11.167 77.1299 12.1842 76.4959 13.091 76.7294L23.2655 79.3942ZM80.0471 69.2513C81.3115 68.8846 92.0412 65.7603 94.4948 71.8297C98.1634 80.8927 88.0308 93.6216 86.5269 94.9989C85.9635 95.4981 85.2068 95.621 84.5893 95.318C84.3835 95.217 84.1772 95.112 84.027 94.8973C83.3707 94.1521 83.5698 92.9792 84.296 92.2779C85.3714 91.2544 93.9731 80.3226 91.2275 73.5459C90.1585 70.9059 83.7274 71.9125 80.7743 72.8607L80.805 72.7979C79.8814 73.1203 78.9293 72.5824 78.725 71.5655C78.493 70.6055 79.072 69.5484 80.0471 69.2513ZM74.2174 64.3521C75.0922 64.7814 75.3993 65.8498 74.9262 66.8163L73.9238 68.8641C73.4507 69.8307 72.4191 70.2422 71.5443 69.8129C70.6695 69.3837 70.3624 68.3152 70.8356 67.3487L71.838 65.3009C72.3111 64.3343 73.3427 63.9228 74.2174 64.3521ZM67.2013 59.7841C68.0761 60.2134 68.3832 61.2818 67.9101 62.2483L66.4944 65.1404C66.0213 66.1069 64.9897 66.5185 64.1149 66.0892C63.2402 65.6599 62.9331 64.5915 63.4062 63.625L64.8219 60.7329C65.295 59.7663 66.3265 59.3548 67.2013 59.7841ZM91.8802 99.5976C92.8149 99.7742 93.3271 100.806 93.0877 101.816C92.7967 102.802 91.8393 103.45 90.9046 103.274L80.9934 101.095L80.6343 100.918C79.9139 100.565 79.5771 99.6936 79.8123 98.8219L79.786 98.8758C80.0769 97.8903 81.0343 97.2419 81.969 97.4185L91.8802 99.5976ZM78.6642 106.513L87.0099 112.936C87.3668 113.221 87.597 113.654 87.6457 114.139C87.6944 114.624 87.5552 115.115 87.2682 115.525C86.7478 116.327 85.7993 116.575 85.0789 116.221L84.7737 116.072L76.4279 109.648C75.6881 109.073 75.5654 107.88 76.1651 107.046C76.4613 106.643 76.8912 106.371 77.3524 106.281C77.8136 106.191 78.2735 106.292 78.6378 106.566L78.6642 106.513ZM77.3544 114.124C77.5781 114.155 77.7889 114.231 77.9777 114.352C78.1665 114.473 78.3304 114.639 78.4555 114.831C78.5806 115.024 78.6687 115.235 78.7111 115.469C78.7535 115.704 78.7504 115.949 78.7036 116.19C78.6329 116.702 77.4715 122.754 75.6187 129.725L72.0909 129.653C74.032 122.396 75.2708 115.856 75.3022 115.723C75.3489 115.482 75.4405 115.252 75.5693 115.041C75.698 114.831 75.8654 114.649 76.0566 114.501C76.2478 114.352 76.4508 114.233 76.6753 114.169C76.8998 114.106 77.1308 114.093 77.3544 114.124ZM17.6767 84.7386C17.8882 84.8175 18.0801 84.9507 18.2386 85.1146C18.4055 85.2689 18.5324 85.4542 18.6232 85.6709C18.7139 85.8877 18.7586 86.1283 18.7586 86.3723C18.7585 86.6163 18.7169 86.8664 18.626 87.0981C18.5351 87.3298 18.345 87.3537 18.1781 87.5355C18.0914 87.6288 11.5242 95.6308 6.14338 103.273L6.14676 97.1706C10.8214 90.9244 15.4029 85.72 15.7725 85.308C15.931 85.1179 16.1204 84.9611 16.3319 84.8473C16.5435 84.7336 16.7752 84.6732 17.0054 84.6543C17.2356 84.6353 17.4652 84.6597 17.6767 84.7386ZM48.9457 77.4037C50.0027 77.8519 50.2323 79.5807 49.5045 81.1979C48.7767 82.815 47.3172 83.8673 46.3395 83.3875C45.2825 82.9393 45.0116 81.2496 45.7672 79.5755C46.495 77.9583 47.968 76.9239 48.9457 77.4037ZM64.7416 84.0968C65.7986 84.545 66.0372 86.2782 65.3094 87.8954C64.5816 89.5126 63.1131 90.5604 62.1354 90.0806C61.0784 89.6324 60.8442 87.8903 61.572 86.2731C62.2998 84.6559 63.7639 83.617 64.7416 84.0968Z"></path><defs><clipPath id="clip-path-_ezDhhNo111KshcdCIvAp"><path d="M109.021 91.7355L228.872 91.7355L228.872 45.7355L109.021 45.7355L109.021 91.7355Z" fill="white"/></clipPath></defs></svg>