<svg xmlns="http://www.w3.org/2000/svg" xmlns:xlink="http://www.w3.org/1999/xlink" width="31.015625" height="37.2314453125" viewBox="0 0 31.015625 37.2314453125" fill="none"><path d="M5.61035 -1.88141e-08L2.14844 -7.20471e-09C0.961914 -3.22574e-09 1.96769e-09 0.961914 4.39485e-09 2.14844L7.17659e-08 35.083C7.41931e-08 36.2695 0.961914 37.2314 2.14844 37.2314L5.61035 37.2314C6.79688 37.2314 7.75879 36.2695 7.75879 35.083L7.75879 2.14844C7.75879 0.961914 6.79688 -2.27931e-08 5.61035 -1.88141e-08ZM28.8672 -9.6805e-08L25.4053 -8.51957e-08C24.2188 -8.12167e-08 23.2568 0.961914 23.2568 2.14844L23.2568 35.083C23.2568 36.2695 24.2188 37.2314 25.4053 37.2314L28.8672 37.2314C30.0537 37.2314 31.0156 36.2695 31.0156 35.083L31.0156 2.14844C31.0156 0.961914 30.0537 -1.00784e-07 28.8672 -9.6805e-08Z"  style="mix-blend-mode:normal" fill="#000000" ></path></svg>