<svg xmlns="http://www.w3.org/2000/svg" xmlns:xlink="http://www.w3.org/1999/xlink" width="50" height="50" viewBox="0 0 50 50" fill="none"><path d="M3.24653 10.3409L46.7535 10.3409C48.1304 10.3409 49.2427 9.25505 49.2427 7.91667C49.2427 6.57891 48.131 5.49242 46.7535 5.49242L3.24653 5.49242C1.87216 5.49242 0.75726 6.57828 0.75726 7.91667C0.75726 9.25505 1.87216 10.3409 3.24653 10.3409ZM46.7528 22.4621L3.24653 22.4621C1.869 22.4621 0.75726 23.548 0.75726 24.8864C0.75726 26.2247 1.869 27.3106 3.24653 27.3106L46.7535 27.3106C48.1304 27.3106 49.2427 26.2247 49.2427 24.8864C49.2421 23.548 48.1234 22.4621 46.7528 22.4621ZM46.7528 39.6319L3.24653 39.6319C1.87279 39.6319 0.75726 40.7178 0.75726 42.0562C0.75726 43.3946 1.87216 44.4804 3.24653 44.4804L46.7535 44.4804C48.1304 44.4804 49.2427 43.3946 49.2427 42.0562C49.2421 40.7184 48.1304 39.6319 46.7528 39.6319Z"  style="mix-blend-mode:normal" fill="#C2ECD6" ></path></svg>