<svg xmlns="http://www.w3.org/2000/svg" xmlns:xlink="http://www.w3.org/1999/xlink" width="390" height="311" viewBox="0 0 390 311" fill="none"><g opacity="0.85"><path d="M0.495136 248.671C24.4285 248.671 41.8799 228.08 41.8799 201.913C41.8799 185.218 21.4784 137.129 0.495136 104.502L0.495136 248.671Z"   fill="#AADFF3" ></path><path     fill="#F5FEF8"  d="M0.709831 142.309L0.709831 145.635C1.38624 144.5 1.74299 143.052 0.709831 142.309Z"></path><path     fill="#F5FEF8"  d="M14.1705 194.54C13.1902 193.715 11.7846 193.913 11.0337 194.989L2.14921 207.733C1.61369 204.21 1.05647 200.776 0.471588 197.416L0.709831 227.656C0.762888 227.689 0.736904 227.68 0.709831 227.666C3.3285 249.888 4.70535 274.966 5.64344 302.896C5.68897 304.252 6.72233 305.301 7.95638 305.253C9.19043 305.201 10.156 304.062 10.1105 302.706C8.98679 269.25 6.65988 239.83 3.12204 214.424L14.5875 197.976C15.3384 196.899 15.1509 195.365 14.1705 194.54Z"></path><path d="M121.783 221.047C102.316 221.047 86.5345 203.811 86.5345 182.55C86.5345 161.289 77.3364 77.3663 96.8038 77.3663C116.271 77.3663 157.032 161.289 157.032 182.55C157.032 203.811 141.251 221.047 121.783 221.047Z"  style="mix-blend-mode:normal" fill="#9EDAF1" ></path><path d="M115.034 143.688L120.529 134.466C121.079 133.543 122.206 133.284 123.046 133.889C123.886 134.493 124.121 135.731 123.571 136.654L117.14 147.448C116.952 147.763 116.697 148.001 116.409 148.154C119.722 159.39 122.5 172.392 124.744 187.163L131.97 176.797C132.58 175.921 133.722 175.755 134.519 176.426C135.316 177.097 135.467 178.351 134.857 179.226L125.535 192.599C128.412 213.264 130.304 237.2 131.217 264.413C131.254 265.515 130.471 266.442 129.467 266.484C128.464 266.523 127.621 265.663 127.584 264.56C126.821 241.839 125.372 221.438 123.243 203.361C123.149 203.323 123.057 203.276 122.967 203.22L109.427 194.73C108.555 194.183 108.251 192.963 108.749 192.005C109.247 191.046 110.357 190.713 111.229 191.26L122.635 198.411C121.015 185.741 119.045 174.269 116.724 163.996C116.527 163.956 116.333 163.88 116.15 163.765L102.609 155.275C101.737 154.728 101.434 153.508 101.931 152.549C102.429 151.591 103.539 151.258 104.411 151.805L115.482 158.746C112.083 145.029 108.007 133.635 103.258 124.57C102.757 123.614 103.057 122.393 103.927 121.842C104.797 121.292 105.909 121.621 106.41 122.577C109.583 128.634 112.457 135.671 115.034 143.688Z" fill-rule="evenodd" style="mix-blend-mode:normal" fill="#F6FFF7" ></path><path   fill-rule="evenodd" style="mix-blend-mode:normal" fill="#7CCBED"  d="M53.5749 216.752C24.2241 216.752 0.436806 190.753 0.436806 158.679C0.436806 135.779 3.05176e-05 64.4166 3.05176e-05 25.8956C2.6596 10.3577 7.51833 0 15.9127 0C45.2635 0 106.723 126.606 106.723 158.679C106.723 190.753 82.9257 216.752 53.5749 216.752Z"></path><path d="M43.4468 100.284L51.6891 86.3726C52.5141 84.9801 54.2044 84.5904 55.4645 85.502C56.7246 86.4136 57.0773 88.2814 56.2523 89.6739L46.6054 105.956C46.3236 106.432 45.9409 106.79 45.5089 107.02C50.4784 123.97 54.6446 143.583 58.0114 165.865L68.8501 150.228C69.7659 148.907 71.4777 148.656 72.6734 149.668C73.869 150.68 74.0959 152.572 73.1801 153.893L59.1977 174.065C63.5126 205.238 66.3505 241.345 67.7211 282.394C67.7766 284.057 66.6015 285.455 65.0964 285.519C63.5912 285.578 62.3261 284.28 62.2706 282.616C61.1263 248.342 58.9538 217.568 55.759 190.299C55.6185 190.242 55.4805 190.171 55.3462 190.087L35.0357 177.279C33.7276 176.454 33.2723 174.614 34.0188 173.168C34.7652 171.723 36.4308 171.22 37.739 172.044L54.8476 182.833C52.4183 163.72 49.4622 146.414 45.9816 130.918C45.6863 130.858 45.395 130.743 45.1195 130.57L24.8091 117.762C23.5009 116.937 23.0456 115.097 23.7921 113.651C24.5386 112.206 26.2042 111.703 27.5123 112.528L44.1186 122.999C39.0202 102.306 32.9063 85.12 25.7827 71.4456C25.0313 70.0032 25.4803 68.1608 26.7856 67.3304C28.0909 66.5001 29.7582 66.9963 30.5096 68.4387C35.2695 77.5756 39.5814 88.1902 43.4468 100.284Z"  style="mix-blend-mode:normal" fill="#9EDAF1" ></path><path d="M28.3634 298.427C32.2961 305.005 35.2236 308.954 37.1585 310.292L0.667658 309.722L0.320221 268.887C4.84547 273.957 9.75319 280.528 15.0416 288.601C7.13914 273.851 7.13914 268.002 15.0416 271.044C26.8954 275.607 22.4643 288.562 28.3634 298.427Z"   fill="#8ED2F0" ></path><path d="M64.7924 298.479C68.7251 304.982 71.6625 308.892 73.5974 310.214L0.615747 309.085C4.50737 308.707 7.21862 308.397 8.75571 308.157C10.146 307.939 3.46363 302.819 4.55668 302.564C9.03427 301.52 18.9443 305.043 18.4343 303.373C17.7279 301.059 8.42539 296.604 0.516479 290.959L0.516479 274.911C6.48338 276.941 14.9533 282.291 25.929 290.959C18.4847 283.24 16.651 277.515 20.4296 273.772C24.2082 270.03 34.5609 275.115 51.4806 289.042C43.5781 274.27 43.5781 268.388 51.4806 271.395C63.3343 275.907 58.8933 288.725 64.7924 298.479Z"   fill="#B6E4F5" ></path></g><g opacity="0.85"><path d="M290.524 251.744C310.735 251.954 327.325 232.139 327.579 207.486C327.832 182.832 338.382 85.6193 318.171 85.409C297.96 85.1987 254.641 182.071 254.388 206.724C254.135 231.377 270.313 251.533 290.524 251.744Z"  style="mix-blend-mode:normal" fill="#7CCBED" ></path><path d="M298.484 162.31C301.256 153.051 304.325 144.932 307.693 137.95C308.225 136.848 309.383 136.479 310.28 137.126C311.177 137.773 311.474 139.191 310.942 140.293C305.902 150.742 301.533 163.895 297.839 179.747L309.42 171.826C310.332 171.202 311.482 171.6 311.987 172.716C312.492 173.831 312.163 175.241 311.25 175.865L297.087 185.553C296.895 185.684 296.692 185.77 296.487 185.814C293.955 197.688 291.771 210.955 289.938 225.613L301.869 217.453C302.782 216.829 303.931 217.227 304.436 218.342C304.942 219.458 304.612 220.868 303.7 221.492L289.536 231.18C289.442 231.244 289.346 231.297 289.248 231.34C286.821 252.255 285.074 275.87 284.011 302.18C283.96 303.456 283.073 304.444 282.032 304.388C280.99 304.328 280.187 303.246 280.239 301.97C281.512 270.459 283.762 242.755 286.996 218.85L277.474 203.26C276.85 202.238 277.022 200.788 277.858 200.019C278.694 199.251 279.877 199.456 280.501 200.477L287.882 212.562C290.389 195.477 293.428 180.446 297.003 167.467C296.706 167.288 296.444 167.01 296.252 166.642L289.701 154.07C289.141 152.995 289.4 151.564 290.28 150.873C291.159 150.182 292.327 150.493 292.887 151.568L298.484 162.31Z" fill-rule="evenodd" style="mix-blend-mode:normal" fill="#F6FFF7" ></path><path d="M357.035 236.238C332.249 235.98 312.41 211.274 312.721 181.056C313.016 152.289 361.32 43.1269 387.328 32.9526L387.322 137.819L387.323 221.702C379.208 230.762 368.882 236.361 357.035 236.238Z"   fill="#ABE0F3" ></path><path d="M366.721 126.6C370.102 115.24 373.847 105.278 377.955 96.7112C378.603 95.3588 380.016 94.906 381.11 95.6998C382.205 96.4935 382.566 98.2333 381.917 99.5856C375.769 112.406 370.44 128.544 365.934 147.995L380.059 138.275C381.171 137.509 382.573 137.998 383.189 139.367C383.806 140.735 383.404 142.465 382.291 143.231L365.015 155.118C364.781 155.28 364.534 155.385 364.284 155.439C361.194 170.008 358.53 186.286 356.294 204.272L370.846 194.258C371.959 193.492 373.36 193.981 373.977 195.35C374.593 196.718 374.191 198.448 373.078 199.214L355.803 211.102C355.688 211.18 355.571 211.246 355.452 211.298C352.49 236.961 350.357 265.935 349.059 298.216C348.996 299.783 347.915 300.995 346.644 300.926C345.374 300.853 344.395 299.525 344.458 297.959C346.013 259.297 348.759 225.305 352.705 195.973L341.093 176.845C340.332 175.593 340.542 173.813 341.562 172.87C342.581 171.927 344.024 172.178 344.785 173.431L353.786 188.258C356.845 167.295 360.554 148.853 364.914 132.928C364.552 132.708 364.232 132.367 363.999 131.916L356.01 116.491C355.327 115.172 355.643 113.416 356.716 112.568C357.789 111.72 359.212 112.102 359.896 113.421L366.721 126.6Z"  style="mix-blend-mode:normal" fill="#7CCBED" ></path><path d="M367.081 300.173C372.157 291.036 368.545 278.932 378.599 274.786C385.302 272.022 385.245 277.565 378.428 291.413C381.616 288.546 384.524 286.083 387.161 284.023L387.16 309.211L361.399 309.213C362.894 307.318 364.786 304.304 367.081 300.173Z"   fill="#8FD3F0" ></path><path d="M329.834 299.657C334.911 290.414 331.291 278.174 341.345 273.979C348.048 271.183 347.991 276.69 341.175 290.517C353.618 269.818 363.539 259.703 370.932 260.165C378.324 260.628 373.454 271.301 356.317 292.182C369.364 287.558 376.808 286.172 378.666 288.02C380.525 289.869 377.285 295.432 368.935 304.728L383.927 310.327L322.308 310.325C323.955 309.082 326.449 305.819 329.834 299.657Z"  style="mix-blend-mode:normal" fill="#9EDAF1" ></path></g></svg>