<svg xmlns="http://www.w3.org/2000/svg" xmlns:xlink="http://www.w3.org/1999/xlink" width="372.02593994140625" height="323" viewBox="0 0 372.02593994140625 323" fill="none"><g opacity="0.8"><path d="M204.757 133.635C199.022 146.48 198.614 161.082 203.621 174.23C208.628 187.377 218.641 197.993 231.457 203.742C244.273 209.492 258.842 209.903 271.959 204.886C285.076 199.868 295.667 189.834 301.402 176.989C304.242 170.629 305.804 163.771 305.999 156.806C306.194 149.841 305.018 142.905 302.539 136.395C297.532 123.247 287.519 112.631 274.703 106.882C261.887 101.133 247.318 100.722 234.2 105.739C221.083 110.756 210.492 120.791 204.757 133.635Z"  style="mix-blend-mode:normal" fill="#C2ECD6" ></path></g><path d="M297.983 164.727C297.538 158.099 296.148 151.672 294.112 145.357C290.935 135.564 285.691 127.118 278.053 120.219C275.194 117.637 272.147 115.308 268.564 113.765C264.468 112 260.178 110.888 255.835 109.942C251.66 109.049 247.415 108.902 243.13 108.742C237.673 108.541 232.265 108.767 226.871 109.683C213.928 111.883 202.025 116.626 191.365 124.376C187.508 127.174 184.101 130.458 181.521 134.509C180.611 135.855 179.798 137.241 179.11 138.721C174.851 147.823 174.341 157.055 178.28 166.361C180.386 171.335 183.927 174.977 188.845 177.262C192.889 179.139 197.204 180.112 201.568 180.781C205.96 181.449 210.365 182.075 214.756 182.688C219.492 183.361 223.265 185.493 226.028 189.499C228.152 192.568 230.264 195.651 232.646 198.506C236.099 202.634 239.983 206.254 244.81 208.747C251.932 212.442 259.479 213.242 267.315 211.826C272.379 210.918 276.88 208.685 281.036 205.659C286.739 201.492 291.156 196.334 293.963 189.794C297.416 181.76 298.563 173.382 297.983 164.727ZM275.042 196.168C271.822 198.439 268.273 200.07 264.235 200.608C257.985 201.462 253.932 200.496 248.087 197.295C244.134 195.126 240.881 192.084 237.95 188.648C235.921 186.267 234.11 183.743 232.298 181.192C229.935 177.894 227.813 174.991 223.999 174.281C220.448 173.635 216.882 172.975 213.33 172.273C209.791 171.584 205.617 170.773 201.967 170.06C197.683 169.224 192.093 168.598 189.04 163.095C184.076 154.159 184.852 140.82 204.069 129.069C216.215 122.636 219.853 120.658 230.184 119.362C234.484 118.832 238.822 118.852 243.221 119.202C246.656 119.493 250.076 119.742 253.466 120.614C257.203 121.574 262.052 123.818 265.442 125.393C266.429 125.853 267.402 126.354 268.31 126.981C276.891 132.836 281.105 142.135 284.478 151.385C286.34 156.503 286.602 158.65 287.2 163.964C287.981 170.916 287.338 177.584 284.857 183.896C282.85 189.065 279.47 193.025 275.042 196.168ZM220.764 99.3244C223.295 98.4771 225.274 96.8286 226.928 94.7876C229.336 91.8176 230.77 88.3739 231.927 84.0948C232.315 82.7604 232.675 80.7227 232.883 78.6749C233.448 72.9882 233.009 67.367 231.526 61.8536C230.191 56.8887 228.133 52.2863 224.712 48.4065C222.741 46.1623 220.42 44.3682 217.471 43.5415C213.262 42.3446 209.635 43.5218 206.51 46.4262C202.939 49.7416 201.135 54.0499 199.916 58.6479C199.133 61.6343 198.779 64.6795 198.701 67.7733C198.51 75.0107 199.8 81.9367 202.997 88.4444C204.76 92.0601 207.053 95.2629 210.416 97.5704C213.556 99.7452 217.001 100.588 220.764 99.3244ZM219.609 90.8769C217.242 91.665 215.111 91.1362 213.116 89.7622C211.008 88.3081 208.908 84.3692 207.79 82.1045C205.798 78.025 204.998 73.6823 205.103 69.1524C205.149 67.2188 205.374 65.3224 205.861 63.4335C206.618 60.5581 208.385 56.5405 210.617 54.4581C212.579 52.6306 214.85 51.8861 217.495 52.6372C219.337 53.1591 221.461 56.2003 222.714 57.6197C224.854 60.0531 224.842 62.3171 225.687 65.4302C226.608 68.8866 226.896 72.4133 226.538 75.9693C226.411 77.2561 226.174 78.5178 225.929 79.3657C225.209 82.0607 224.971 86.1384 223.479 88.0099C222.444 89.3183 221.197 90.342 219.609 90.8769ZM244.692 60.4897C242.262 67.3114 241.309 74.3048 242.315 81.4998C242.86 85.4898 244.048 89.2572 246.493 92.4978C248.811 95.5619 251.807 97.4365 255.746 97.4251C258.417 97.4165 260.795 96.4762 263.012 95.0291C266.208 92.9512 268.646 90.146 271.08 86.4162C271.857 85.2657 272.841 83.4478 273.672 81.5645C275.981 76.333 277.321 70.8487 277.638 65.1404C277.924 59.9988 277.415 54.9866 275.367 50.2044C274.185 47.4444 272.541 45.0267 270.029 43.32C266.401 40.8669 262.6 40.8474 258.738 42.6376C254.316 44.6758 251.271 48.1994 248.677 52.2091C247.019 54.7885 245.724 57.5802 244.692 60.4897ZM260.15 51.5759C262.579 50.4412 264.975 50.4667 267.236 52.0138C268.826 53.08 269.887 56.6435 270.622 58.3789C271.906 61.3712 271.176 63.5143 271.004 66.7346C270.811 70.3142 269.969 73.7576 268.517 77.0222C268.003 78.2078 267.377 79.3408 266.896 80.0701C265.371 82.3979 263.874 86.2158 261.875 87.5197C260.488 88.4086 258.998 89.0102 257.319 89.0227C254.84 89.0268 252.972 87.8568 251.503 85.9319C249.963 83.8844 249.189 79.4859 248.838 76.9821C248.214 72.4833 248.804 68.0936 250.333 63.8194C250.973 61.9959 251.779 60.2512 252.849 58.6245C254.467 56.115 257.393 52.8565 260.15 51.5759ZM353.944 129.585C354.592 125.36 353.516 121.7 350.157 118.909C347.806 116.95 345.035 116.05 342.067 115.666C336.932 115.015 331.964 115.907 327.108 117.611C321.705 119.493 316.829 122.287 312.438 125.953C310.852 127.275 309.393 128.718 308.505 129.788C305.609 133.156 303.562 136.284 302.462 139.94C301.699 142.457 301.459 145.016 302.169 147.594C303.248 151.419 305.869 153.772 309.448 155.15C313.249 156.605 317.19 156.704 321.172 156.139C328.341 155.112 334.799 152.266 340.681 148.053C343.18 146.255 345.509 144.239 347.53 141.927C350.656 138.318 353.196 134.393 353.944 129.585ZM335.939 143.529C332.258 146.171 328.216 147.951 323.712 148.611C321.213 148.975 316.76 149.44 314.388 148.517C312.141 147.659 310.501 146.166 309.821 143.781C309.363 142.177 309.525 140.572 309.99 138.987C310.676 136.693 313.933 134.214 315.751 132.086C316.316 131.41 317.235 130.504 318.211 129.68C320.948 127.379 324.026 125.621 327.405 124.45C330.442 123.383 332.317 122.096 335.534 122.503C337.397 122.748 341.116 122.769 342.585 123.99C344.698 125.748 345.362 128.037 344.959 130.683C344.494 133.704 342.183 137.417 340.216 139.672C338.964 141.152 337.501 142.401 335.939 143.529ZM283.482 89.0045C281.452 92.9593 280.211 96.4812 279.996 100.282C279.84 102.922 280.219 105.453 281.517 107.782C283.47 111.228 286.573 112.907 290.383 113.395C294.428 113.92 298.281 113.069 302.012 111.585C308.749 108.898 314.368 104.623 319.082 99.1268C321.102 96.7871 322.886 94.3013 324.306 91.5481C326.51 87.3268 328.051 82.9282 327.64 78.0655C327.283 73.8226 325.388 70.5138 321.453 68.5788C318.714 67.2225 315.805 67.0022 312.823 67.3358C307.67 67.9145 303.055 69.9573 298.716 72.7527C293.901 75.8493 289.803 79.7156 286.394 84.3246C285.187 86.0098 284.106 87.7611 283.482 89.0045ZM300.634 79.36C303.354 77.611 304.864 75.9185 308.093 75.5514C309.961 75.3411 313.594 74.495 315.304 75.3513C317.751 76.5627 318.948 78.6322 319.178 81.2907C319.43 84.3214 318.064 88.4812 316.669 91.1234C315.779 92.8425 314.653 94.4154 313.4 95.8671C310.437 99.3059 306.922 101.999 302.686 103.674C300.349 104.599 296.123 106.122 293.597 105.782C291.208 105.466 289.261 104.436 288.034 102.257C287.221 100.8 286.984 99.2179 287.09 97.559C287.223 95.1679 289.805 91.9866 291.079 89.4992C291.477 88.7167 292.145 87.6241 292.924 86.584C295.058 83.7309 297.628 81.2953 300.634 79.36Z"  style="mix-blend-mode:normal" fill="#7CCBED" ></path><path d="M108.021 233.26C103.693 242.954 103.385 253.974 107.164 263.897C110.942 273.82 118.499 281.832 128.172 286.171C137.844 290.51 148.84 290.82 158.74 287.033C168.639 283.247 176.633 275.674 180.961 265.98C183.104 261.18 184.283 256.004 184.43 250.747C184.577 245.49 183.69 240.256 181.819 235.342C178.04 225.42 170.483 217.407 160.81 213.069C151.138 208.73 140.142 208.419 130.243 212.206C120.343 215.992 112.349 223.566 108.021 233.26Z"  style="mix-blend-mode:normal" fill="#9EDAF1" ></path><path d="M150.249 207.201C145.111 205.038 139.806 203.696 134.371 202.909C125.936 201.687 117.835 202.567 110.091 205.892C107.193 207.13 104.425 208.619 102.076 210.817C99.3932 213.33 97.1166 216.238 94.9786 219.259C92.9213 222.165 91.4062 225.412 89.8581 228.654C87.8977 232.815 86.2681 237.097 85.1738 241.622C82.5334 252.494 82.1682 263.514 84.4816 274.709C85.3111 278.764 86.6645 282.631 88.8497 286.171C89.5603 287.386 90.3414 288.54 91.2258 289.636C96.6882 296.372 103.474 300.255 111.78 300.704C116.228 300.939 120.144 299.57 123.5 296.608C126.263 294.18 128.418 291.203 130.365 288.055C132.326 284.902 134.262 281.725 136.178 278.539C138.25 275.108 141.119 272.991 145.053 272.354C148.074 271.873 151.088 271.378 154.042 270.605C158.307 269.485 162.314 267.828 165.799 265.034C170.946 260.899 174.047 255.351 175.584 248.739C176.575 244.472 176.388 240.131 175.486 235.768C174.232 229.781 171.816 224.402 167.797 219.751C162.89 214.074 156.965 210.021 150.249 207.201ZM166.335 236.859C166.984 240.213 167.028 243.586 166.112 246.917C164.684 252.077 162.614 254.87 158.251 258.193C155.294 260.445 151.935 261.831 148.384 262.805C145.914 263.489 143.401 263.938 140.901 264.382C137.621 264.964 134.736 265.509 132.95 268.224C131.277 270.744 129.598 273.25 127.899 275.746C126.201 278.242 124.196 281.161 122.46 283.722C120.402 286.745 118.087 290.843 112.933 291.137C104.56 291.603 94.7535 285.985 92.2697 266.667C91.4414 254.806 91.1643 251.238 93.6019 242.745C94.6249 239.205 96.0673 235.852 97.7903 232.574C99.1341 230.016 100.478 227.457 102.25 225.15C104.203 222.622 107.51 219.695 109.823 217.646C110.501 217.045 111.195 216.487 111.97 216.015C119.224 211.556 127.629 211.816 135.729 212.665C140.208 213.14 141.914 213.763 146.117 215.302C151.61 217.326 156.415 220.325 160.363 224.633C163.567 228.126 165.442 232.241 166.335 236.859ZM75.3473 242.474C75.5569 240.193 74.9676 238.04 73.9738 235.98C72.5286 233.005 70.4164 230.578 67.5656 228.071C66.6824 227.26 65.2695 226.22 63.8032 225.284C59.7091 222.695 55.322 220.925 50.6805 219.994C46.4982 219.152 42.3558 219.015 38.2786 220.212C35.9355 220.897 33.8152 222.031 32.219 223.984C29.9219 226.799 29.608 230.061 30.7647 233.585C32.0818 237.6 34.726 240.624 37.7848 243.301C39.7831 245.035 41.9609 246.463 44.2455 247.681C49.6432 250.548 55.2758 252.164 61.2421 252.139C64.5435 252.136 67.7299 251.557 70.5796 249.834C73.2828 248.219 75.0516 245.863 75.3473 242.474ZM68.5973 240.171C68.4047 242.295 67.2982 243.77 65.6041 244.787C63.8122 245.877 60.1427 246.024 58.0698 246.032C54.3298 246.04 50.7895 245.029 47.4138 243.232C45.9829 242.467 44.6132 241.578 43.356 240.494C41.427 238.817 38.9988 235.943 38.1685 233.415C37.444 231.199 37.6378 229.159 39.0749 227.403C40.0724 226.172 43.0872 225.677 44.5508 225.237C47.1042 224.486 48.7943 225.351 51.423 225.88C54.3404 226.464 57.0841 227.569 59.654 229.196C60.5724 229.775 61.459 230.434 62.0171 230.937C63.8131 232.515 66.8092 234.226 67.7155 236.103C68.3613 237.394 68.731 238.742 68.5973 240.171ZM54.0221 209.266C58.3588 213.724 63.3248 217.096 69.0632 219.024C72.2478 220.09 75.4823 220.6 78.7414 219.925C81.8255 219.285 84.2161 217.676 85.5279 214.593C86.4012 212.521 86.4802 210.308 86.1364 208.059C85.6332 204.799 84.3198 201.84 82.3245 198.544C81.715 197.508 80.6748 196.053 79.5346 194.704C76.3618 190.931 72.6664 187.832 68.4734 185.433C64.6896 183.275 60.7424 181.786 56.4727 181.565C54.0032 181.444 51.6418 181.8 49.5102 183.106C46.4571 184.993 45.1817 187.927 45.252 191.609C45.335 195.807 46.9713 199.512 49.1258 203.014C50.4958 205.313 52.1613 207.361 54.0221 209.266ZM52.427 193.913C52.3922 191.61 53.1918 189.752 55.095 188.585C56.4244 187.761 59.4725 188.277 61.0146 188.36C63.6955 188.5 65.0744 189.855 67.4431 191.208C70.0744 192.71 72.3909 194.654 74.3815 197.012C75.0897 197.859 75.7468 198.776 76.1425 199.426C77.4022 201.483 79.7747 204.094 80.0991 206.132C80.3188 207.539 80.2669 208.936 79.7172 210.226C78.8995 212.158 77.3917 213.17 75.4724 213.571C73.4247 214.005 69.8423 212.927 67.8534 212.264C64.2471 211.044 61.1441 208.938 58.4182 206.148C57.2609 204.957 56.2094 203.674 55.3339 202.239C53.9514 200.028 52.4606 196.535 52.427 193.913ZM142.301 150.548C139.329 148.458 136.223 147.915 132.987 149.453C130.737 150.538 129.131 152.343 127.872 154.516C125.687 158.261 124.714 162.453 124.372 166.851C124.004 171.745 124.483 176.593 125.802 181.379C126.273 183.108 126.88 184.783 127.386 185.877C128.968 189.402 130.641 192.153 133.038 194.385C134.696 195.933 136.533 197.092 138.719 197.493C141.954 198.086 144.606 196.944 146.821 194.682C149.19 192.292 150.551 189.257 151.446 185.951C153.052 180 153.053 173.923 151.81 167.764C151.291 165.148 150.543 162.588 149.462 160.142C147.803 156.379 145.69 152.944 142.301 150.548ZM146.856 169.776C147.625 173.637 147.634 177.443 146.625 181.18C146.064 183.246 144.949 186.873 143.462 188.38C142.067 189.8 140.412 190.517 138.378 190.14C137.006 189.89 135.858 189.165 134.819 188.197C133.33 186.8 132.528 183.339 131.538 181.126C131.218 180.429 130.842 179.385 130.547 178.308C129.721 175.309 129.416 172.273 129.645 169.196C129.853 166.428 129.494 164.504 130.871 162.151C131.664 160.799 132.929 157.919 134.335 157.25C136.364 156.286 138.302 156.616 140.168 157.932C142.295 159.43 144.316 162.632 145.364 164.99C146.06 166.53 146.512 168.131 146.856 169.776ZM88.3634 189.93C90.6655 193.004 92.9072 195.28 95.7044 196.885C97.631 197.992 99.6722 198.668 101.853 198.534C105.102 198.316 107.383 196.548 109.02 193.774C110.754 190.844 111.39 187.522 111.518 184.065C111.722 177.825 110.361 171.846 107.795 166.122C106.7 163.682 105.411 161.351 103.819 159.206C101.365 155.906 98.5507 153.049 94.7705 151.545C91.4506 150.213 88.3391 150.46 85.5771 152.77C83.6444 154.384 82.5177 156.572 81.7865 159.008C80.5262 163.229 80.5262 167.576 81.1933 171.98C81.9413 176.874 83.4893 181.52 85.8258 185.89C86.6786 187.469 87.629 188.976 88.3634 189.93ZM86.7871 172.974C86.3705 170.217 85.5995 168.405 86.3909 165.761C86.8496 164.238 87.4147 161.096 88.6236 160.084C90.3528 158.633 92.3086 158.487 94.393 159.314C96.7753 160.259 99.4443 162.904 100.976 164.972C101.97 166.31 102.778 167.772 103.468 169.298C105.078 172.896 105.942 176.635 105.804 180.55C105.741 182.723 105.462 186.559 104.391 188.406C103.368 190.134 101.933 191.251 99.8975 191.395C98.5304 191.479 97.2495 191.058 96.0334 190.361C94.2728 189.356 92.7366 186.149 91.295 184.23C90.8289 183.641 90.2343 182.683 89.7079 181.698C88.2275 178.955 87.2437 176.035 86.7871 172.974Z"  style="mix-blend-mode:normal" fill="#C2ECD6" ></path><path d="M315.375 195.033L241 163.158L166.625 195.033L166.625 285.908L241 317.571L247.423 314.835L248.783 314.835L248.783 314.256L315.375 285.913L315.375 195.033ZM241 222.163L222.151 214.142L275.101 189.704C275.223 189.646 275.303 189.539 275.42 189.47L296.542 198.523L241 222.163ZM262.367 183.876L208.96 208.526L185.458 198.518L241 174.717L262.367 183.876ZM177.25 206.571L198.5 215.618L198.5 248.625C198.5 250.034 199.06 251.385 200.056 252.382C201.052 253.378 202.404 253.938 203.812 253.938C205.221 253.938 206.573 253.378 207.569 252.382C208.565 251.385 209.125 250.034 209.125 248.625L209.125 220.15L209.136 220.145L238.158 232.502L238.158 304.815L177.25 278.885L177.25 206.571ZM248.783 302.712L248.783 230.398L304.75 206.571L304.75 278.89L248.783 302.712Z"  style="mix-blend-mode:normal" fill="#7CCBED" ></path><path d="M201.168 151.94C203.437 152.145 205.738 151.82 207.721 151.014C216.239 146.843 214.273 138.039 212.963 129.698C211.325 126.111 210.877 122.306 211.652 118.577C223.371 107.807 229.811 94.6318 230 81.0434C230 43.0464 178.234 12 115.328 12C52.4216 12 0 43.0464 0 81.0434C0 119.04 51.7664 150.087 115.328 150.087C131.951 150.312 148.46 148.103 163.818 143.6C169.525 144.446 175.039 145.85 180.199 147.77C186.773 150.049 193.878 151.462 201.168 151.94ZM115.328 21.2676C171.026 21.2676 216.895 48.1435 216.895 81.0434C216.904 92.6507 211.362 103.919 201.168 113.017C196.581 117.187 197.892 124.138 199.858 131.088C201.017 134.894 201.239 138.813 200.513 142.673C195.062 141.933 189.774 140.687 184.786 138.966C172.991 135.722 165.128 133.405 159.231 135.259C145.193 138.976 130.317 140.86 115.328 140.819C58.9744 140.819 13.1054 114.407 13.1054 81.0434C13.1054 47.6801 58.9744 21.2676 115.328 21.2676Z"  style="mix-blend-mode:normal" fill="#9EDAF1" ></path></svg>