<svg xmlns="http://www.w3.org/2000/svg" xmlns:xlink="http://www.w3.org/1999/xlink" width="389.99725341796875" height="193" viewBox="0 0 389.99725341796875 193" fill="none"><path d="M124.99 193C123.445 193 121.5 192.997 119.93 191.56C114.098 189.45 108.633 182.447 103.2 171.94C95.0004 155.101 90.3455 134.041 85.66 113.7C83.716 105.258 81.7728 96.1819 79.43 87.74C78.6227 84.6703 77.5688 81.8288 76.31 79.3C72.8208 73.6871 66.5955 77.1886 61.91 83.52C60.3648 85.6305 53.3652 99.0144 51.82 101.08C46.7651 108.13 41.299 131.21 20.66 139.65C9.7687 146.655 0.4 139.65 0.4 139.65L0 114.37L0.4 46.5L0.4 40.01C0.4 39.2915 0 37.22 0 37.22L0 7.05C0 2.82907 1.54725 0 3.89 0L385.91 0C388.253 0 389.82 2.82907 389.82 7.05L389.82 14.05C389.82 15.442 390.219 86.348 389.82 87.74L389.82 110.19L381.24 131.21C373.838 150.159 355.196 160.95 341.92 145.5C338.805 150.439 346.979 145.5 341.92 145.5C332.57 132.88 322.433 111.587 318.57 101.08C317.198 96.4676 315.482 92.2012 313.48 88.41C308.794 80.0131 299.443 78.5802 292.44 85.63C286.209 91.9165 280.762 103.141 276.5 119.98C275.329 124.201 274.526 128.419 273.38 132.64C268.694 152.263 263.633 175.433 251.57 183.83C244.941 188.769 237.146 188.053 229.37 182.44C223.799 178.624 218.842 172.357 214.96 164.21C210.673 154.376 208.334 142.436 206.39 131.21C203.648 117.2 201.331 103.861 195.1 97.53C186.925 89.8515 176.011 98.9721 169.78 111.59C165.892 119.987 162.8 129.098 159.66 139.65C157.317 147.373 154.995 155.102 151.88 162.78C146.023 178.227 135.906 192.95 124.99 192.95L124.99 193Z"  style="mix-blend-mode:normal" fill="#9EDAF1" ></path></svg>